{"glyphs":{"0":{"ha":740,"x_min":0,"x_max":0,"o":"m 344 953 b 26 439 136 875 25 686 b 382 0 29 163 114 0 b 683 294 560 0 658 144 b 675 614 696 406 697 492 b 404 932 650 742 569 871 b 344 953 392 944 367 958 z m 353 844 b 563 636 463 803 533 729 b 586 446 575 575 586 517 b 550 214 589 339 575 265 b 382 106 515 150 458 106 b 143 319 206 106 149 214 b 153 597 131 440 128 471 b 353 844 181 717 246 794 z "},"1":{"ha":635,"x_min":0,"x_max":0,"o":"m 39 626 b 106 569 11 599 79 550 b 286 760 129 588 194 640 b 272 100 271 599 288 243 b 99 103 238 103 172 103 b 100 -1 61 103 64 -1 b 554 3 263 -1 407 -8 b 542 101 606 8 592 101 b 382 96 432 97 401 96 b 396 885 396 231 353 756 b 293 918 414 954 335 986 b 39 626 208 764 104 693 z "},"2":{"ha":757,"x_min":0,"x_max":0,"o":"m 333 965 b 133 864 258 964 181 924 b 50 586 61 781 49 647 b 158 586 50 518 154 526 b 193 749 156 621 167 679 b 333 861 213 804 261 860 b 492 778 415 863 486 851 b 328 440 500 660 429 576 b 89 136 240 324 163 210 b 94 4 -42 7 24 -32 b 292 56 157 53 238 75 b 635 7 431 3 539 -32 b 678 318 747 50 686 197 b 574 318 671 376 558 372 b 594 104 574 283 632 165 b 431 115 574 76 492 93 b 213 138 350 146 276 160 b 554 608 313 260 476 471 b 333 965 672 789 586 969 z "},"3":{"ha":699,"x_min":0,"x_max":0,"o":"m 132 943 b 132 844 75 936 72 838 b 444 863 204 858 378 863 b 181 658 332 785 231 710 b 236 575 144 622 161 575 b 532 554 315 575 447 643 b 524 239 589 478 564 343 b 328 94 490 160 456 94 b 181 157 251 94 210 124 b 150 410 143 208 143 368 b 44 425 154 456 57 465 b 39 285 39 375 38 340 b 332 0 50 81 128 0 b 626 200 479 0 565 63 b 608 635 689 347 719 526 b 331 675 532 704 422 686 b 571 864 399 739 518 790 b 519 947 607 908 581 953 z "},"4":{"ha":871,"x_min":0,"x_max":0,"o":"m 538 931 b 53 281 428 811 143 396 b 79 171 4 225 49 172 b 538 186 285 203 382 171 b 536 47 539 149 539 71 b 643 54 519 -22 621 -4 b 646 199 649 81 647 169 b 760 200 679 203 728 200 b 771 299 793 200 807 297 b 638 297 736 300 681 300 b 633 892 618 526 633 633 b 538 931 633 981 575 993 z m 531 756 b 526 286 522 524 519 356 b 189 282 382 275 350 294 b 531 756 294 440 408 597 z "},"5":{"ha":656,"x_min":0,"x_max":0,"o":"m 514 960 b 79 950 318 953 303 935 b 35 858 39 953 18 889 b 42 657 35 815 46 699 b 117 599 29 613 67 572 b 385 610 224 631 288 642 b 500 447 465 579 497 547 b 497 253 501 415 497 275 b 447 140 497 213 483 164 b 179 144 375 86 258 86 b 128 443 125 188 136 388 b 21 426 124 474 17 457 b 153 36 40 326 0 118 b 517 63 256 -19 433 -14 b 610 301 585 122 610 200 b 604 522 610 343 615 469 b 310 722 574 663 449 725 b 147 694 251 721 196 708 l 139 836 b 508 853 285 822 340 858 b 514 960 572 853 614 971 z "},"6":{"ha":778,"x_min":0,"x_max":0,"o":"m 432 963 b 117 654 275 963 138 842 b 108 419 108 567 108 474 b 14 303 74 393 25 335 b 114 304 8 251 58 258 b 138 178 113 253 124 213 b 426 -7 178 68 275 -7 b 681 143 515 -7 626 6 b 699 453 722 238 725 365 b 444 625 668 603 549 625 b 211 507 364 625 278 569 b 236 704 214 599 224 658 b 432 858 264 790 336 858 b 593 693 549 858 575 790 b 694 717 610 619 700 647 b 432 963 665 886 615 963 z m 444 521 b 601 339 561 521 594 453 b 558 147 606 260 599 193 b 426 99 533 121 496 103 b 238 235 357 99 272 119 b 213 385 226 283 215 324 b 444 521 292 468 372 521 z "},"7":{"ha":707,"x_min":0,"x_max":0,"o":"m 592 957 b 85 953 439 964 286 935 b 74 850 51 956 38 867 b 525 857 168 842 346 857 b 335 465 454 701 407 625 b 169 63 274 335 219 197 b 274 35 157 32 265 7 b 657 883 369 297 464 489 b 592 957 674 917 660 963 z "},"8":{"ha":774,"x_min":0,"x_max":0,"o":"m 351 963 b 113 761 207 961 124 867 b 218 572 107 707 117 622 b 29 328 114 521 38 433 b 254 10 17 192 69 40 b 667 126 358 -10 583 -12 b 690 476 735 246 743 361 b 521 592 660 539 586 568 b 600 785 578 643 606 731 b 351 963 588 892 507 964 z m 346 858 b 493 761 438 858 494 829 b 358 600 492 668 422 604 b 222 738 294 597 222 657 b 346 858 222 806 271 858 z m 382 525 b 590 433 490 513 550 504 b 614 288 624 376 618 336 b 469 106 603 200 542 125 b 140 296 326 75 150 79 b 382 525 133 432 247 503 z "},"9":{"ha":638,"x_min":0,"x_max":0,"o":"m 306 981 b 31 693 117 967 33 846 b 261 389 28 547 83 403 b 410 429 329 383 375 413 b 228 63 368 321 271 176 b 331 40 204 -10 301 -19 b 590 675 394 176 553 443 b 306 981 611 814 547 981 z m 308 875 b 485 783 399 874 467 846 b 275 476 521 674 460 475 b 139 696 139 501 136 626 b 308 875 142 768 172 865 z "},"A":{"ha":879,"x_min":0,"x_max":0,"o":"m 474 910 b 669 432 535 743 621 519 b 756 438 697 433 722 436 b 746 328 853 438 853 338 b 707 326 733 328 719 326 b 817 65 740 239 783 153 b 710 42 863 -69 735 -42 b 596 328 675 165 625 247 b 271 328 536 329 297 328 b 138 10 232 226 174 131 b 44 61 119 -44 6 -42 b 150 328 61 124 108 258 b 131 417 50 333 51 418 l 189 417 b 360 900 246 547 301 769 b 474 910 392 981 456 976 z m 421 758 b 310 429 382 651 340 500 b 551 433 331 429 517 435 b 421 758 514 510 465 622 z "},"Á":{"ha":879,"x_min":0,"x_max":0,"o":"m 449 1163 b 360 1064 431 1136 378 1090 b 418 1021 329 1019 389 989 b 519 1117 442 1049 496 1089 b 449 1163 551 1154 481 1200 z m 474 910 b 669 432 535 743 621 519 b 756 438 697 433 722 436 b 746 328 853 438 853 338 b 707 326 733 328 719 326 b 817 65 740 239 783 153 b 710 42 863 -69 735 -42 b 596 328 675 165 625 247 b 271 328 536 329 297 328 b 138 10 232 226 174 131 b 44 61 119 -44 6 -42 b 150 328 61 124 108 258 b 131 417 50 333 51 418 l 189 417 b 360 900 246 547 301 769 b 474 910 392 981 456 976 z m 421 758 b 310 429 382 651 340 500 b 551 433 331 429 517 435 b 421 758 514 510 465 622 z "},"Ă":{"ha":879,"x_min":0,"x_max":0,"o":"m 489 1147 b 401 1101 463 1121 447 1101 b 314 1147 356 1101 340 1121 b 267 1103 281 1182 243 1139 b 401 1029 294 1061 340 1029 b 536 1103 463 1029 508 1061 b 489 1147 560 1139 522 1182 z m 474 910 b 669 432 535 743 621 519 b 756 438 697 433 722 436 b 746 328 853 438 853 338 b 707 326 733 328 719 326 b 817 65 740 239 783 153 b 710 42 863 -69 735 -42 b 596 328 675 165 625 247 b 271 328 536 329 297 328 b 138 10 232 226 174 131 b 44 61 119 -44 6 -42 b 150 328 61 124 108 258 b 131 417 50 333 51 418 l 189 417 b 360 900 246 547 301 769 b 474 910 392 981 456 976 z m 421 758 b 310 429 382 651 340 500 b 551 433 331 429 517 435 b 421 758 514 510 465 622 z "},"Â":{"ha":879,"x_min":0,"x_max":0,"o":"m 424 1169 b 239 1072 403 1189 263 1099 b 288 1025 204 1033 253 997 b 408 1099 317 1047 374 1074 b 517 1014 433 1078 468 1054 b 554 1082 550 986 593 1053 b 424 1169 524 1104 478 1138 z m 474 910 b 669 432 535 743 621 519 b 756 438 697 433 722 436 b 746 328 853 438 853 338 b 707 326 733 328 719 326 b 817 65 740 239 783 153 b 710 42 863 -69 735 -42 b 596 328 675 165 625 247 b 271 328 536 329 297 328 b 138 10 232 226 174 131 b 44 61 119 -44 6 -42 b 150 328 61 124 108 258 b 131 417 50 333 51 418 l 189 417 b 360 900 246 547 301 769 b 474 910 392 981 456 976 z m 421 758 b 310 429 382 651 340 500 b 551 433 331 429 517 435 b 421 758 514 510 465 622 z "},"Ä":{"ha":879,"x_min":0,"x_max":0,"o":"m 481 1106 b 482 1017 432 1100 431 1017 b 554 1079 542 1017 567 1054 b 481 1106 546 1097 522 1110 z m 340 1107 b 272 1061 290 1107 271 1093 b 342 1014 272 1024 315 1014 b 340 1107 399 1014 397 1107 z m 474 910 b 669 432 535 743 621 519 b 756 438 697 433 722 436 b 746 328 853 438 853 338 b 707 326 733 328 719 326 b 817 65 740 239 783 153 b 710 42 863 -69 735 -42 b 596 328 675 165 625 247 b 271 328 536 329 297 328 b 138 10 232 226 174 131 b 44 61 119 -44 6 -42 b 150 328 61 124 108 258 b 131 417 50 333 51 418 l 189 417 b 360 900 246 547 301 769 b 474 910 392 981 456 976 z m 421 758 b 310 429 382 651 340 500 b 551 433 331 429 517 435 b 421 758 514 510 465 622 z "},"À":{"ha":879,"x_min":0,"x_max":0,"o":"m 396 1163 b 324 1117 364 1200 292 1154 b 414 1021 347 1089 390 1049 b 472 1064 443 989 503 1019 b 396 1163 454 1090 414 1136 z m 474 910 b 669 432 535 743 621 519 b 756 438 697 433 722 436 b 746 328 853 438 853 338 b 707 326 733 328 719 326 b 817 65 740 239 783 153 b 710 42 863 -69 735 -42 b 596 328 675 165 625 247 b 271 328 536 329 297 328 b 138 10 232 226 174 131 b 44 61 119 -44 6 -42 b 150 328 61 124 108 258 b 131 417 50 333 51 418 l 189 417 b 360 900 246 547 301 769 b 474 910 392 981 456 976 z m 421 758 b 310 429 382 651 340 500 b 551 433 331 429 517 435 b 421 758 514 510 465 622 z "},"Ā":{"ha":879,"x_min":0,"x_max":0,"o":"m 503 1117 b 306 1117 451 1114 357 1114 b 307 1043 246 1119 253 1047 b 511 1043 360 1039 458 1040 b 503 1117 571 1046 558 1119 z m 474 910 b 669 432 535 743 621 519 b 756 438 697 433 722 436 b 746 328 853 438 853 338 b 707 326 733 328 719 326 b 817 65 740 239 783 153 b 710 42 863 -69 735 -42 b 596 328 675 165 625 247 b 271 328 536 329 297 328 b 138 10 232 226 174 131 b 44 61 119 -44 6 -42 b 150 328 61 124 108 258 b 131 417 50 333 51 418 l 189 417 b 360 900 246 547 301 769 b 474 910 392 981 456 976 z m 421 758 b 310 429 382 651 340 500 b 551 433 331 429 517 435 b 421 758 514 510 465 622 z "},"Ą":{"ha":926,"x_min":0,"x_max":0,"o":"m 831 -147 b 778 -142 810 -167 792 -164 b 799 -28 764 -119 772 -64 b 817 65 824 -22 838 6 b 707 326 783 153 740 239 b 746 328 719 326 733 328 b 756 438 853 338 853 438 b 669 432 722 436 697 433 b 474 910 621 519 535 743 b 360 900 456 976 392 981 b 189 417 301 769 246 547 l 131 417 b 150 328 51 418 50 333 b 44 61 108 258 61 124 b 138 10 6 -42 119 -44 b 271 328 174 131 232 226 b 596 328 297 328 536 329 b 710 42 625 247 675 165 b 739 -6 715 22 726 7 b 713 -189 697 -61 683 -144 b 864 -201 750 -246 831 -243 b 831 -147 890 -169 863 -118 z m 310 429 b 421 758 340 500 382 651 b 551 433 465 622 514 510 b 310 429 517 435 331 429 z "},"Å":{"ha":879,"x_min":0,"x_max":0,"o":"m 431 1193 b 324 1128 389 1193 343 1172 b 381 1017 303 1083 329 1031 b 469 1190 488 988 556 1136 b 431 1193 458 1200 442 1199 z m 433 1138 b 399 1074 463 1117 440 1061 b 376 1110 379 1076 368 1094 b 418 1135 383 1125 403 1135 b 433 1138 422 1138 429 1140 z m 474 910 b 669 432 535 743 621 519 b 756 438 697 433 722 436 b 746 328 853 438 853 338 b 707 326 733 328 719 326 b 817 65 740 239 783 153 b 710 42 863 -69 735 -42 b 596 328 675 165 625 247 b 271 328 536 329 297 328 b 138 10 232 226 174 131 b 44 61 119 -44 6 -42 b 150 328 61 124 108 258 b 131 417 50 333 51 418 l 189 417 b 360 900 246 547 301 769 b 474 910 392 981 456 976 z m 421 758 b 310 429 382 651 340 500 b 551 433 331 429 517 435 b 421 758 514 510 465 622 z "},"Ã":{"ha":879,"x_min":0,"x_max":0,"o":"m 357 1131 b 257 1078 314 1139 265 1121 b 319 1043 247 1028 306 1014 b 371 1054 329 1064 353 1063 b 479 1015 394 1043 436 1015 b 557 1075 517 1015 551 1054 b 506 1108 567 1115 518 1126 b 451 1085 500 1100 493 1074 b 357 1131 431 1090 382 1125 z m 474 910 b 669 432 535 743 621 519 b 756 438 697 433 722 436 b 746 328 853 438 853 338 b 707 326 733 328 719 326 b 817 65 740 239 783 153 b 710 42 863 -69 735 -42 b 596 328 675 165 625 247 b 271 328 536 329 297 328 b 138 10 232 226 174 131 b 44 61 119 -44 6 -42 b 150 328 61 124 108 258 b 131 417 50 333 51 418 l 189 417 b 360 900 246 547 301 769 b 474 910 392 981 456 976 z m 421 758 b 310 429 382 651 340 500 b 551 433 331 429 517 435 b 421 758 514 510 465 622 z "},"Æ":{"ha":1268,"x_min":0,"x_max":0,"o":"m 578 968 b 490 928 536 967 515 960 b 236 453 385 768 339 610 l 181 453 b 178 353 101 453 89 371 b 43 88 126 264 76 158 b 125 26 15 28 76 -24 b 301 350 175 124 240 247 b 536 351 357 350 482 354 b 554 64 546 197 551 131 b 624 0 556 21 576 0 b 1133 21 750 0 1122 22 b 1154 124 1232 21 1254 115 b 653 103 1110 124 790 96 b 639 460 644 181 640 392 b 1133 476 889 460 956 443 b 1100 574 1217 519 1179 596 b 638 554 983 542 760 546 l 629 871 b 1108 867 688 875 1099 867 b 1110 964 1183 872 1188 967 b 578 968 964 971 642 976 z m 529 814 b 535 446 535 597 535 508 b 353 443 493 451 417 443 b 529 814 388 500 475 711 z "},"B":{"ha":935,"x_min":0,"x_max":0,"o":"m 51 944 b 108 839 13 942 22 839 l 142 839 b 153 676 147 778 150 735 l 104 676 b 154 571 33 676 4 560 b 131 133 154 439 146 265 b 103 146 121 139 113 143 b 78 50 26 175 1 107 b 108 31 86 43 96 38 b 217 10 90 -50 183 -56 b 582 -10 329 -33 503 -31 b 872 349 736 35 872 126 b 694 583 872 471 790 531 b 507 636 643 611 564 628 b 715 768 619 650 715 707 b 51 944 715 1004 244 961 z m 247 849 b 606 767 325 854 606 863 b 261 679 606 708 418 678 b 247 849 258 732 253 793 z m 304 571 b 625 519 372 574 539 556 b 765 343 693 483 765 421 b 551 94 765 221 699 128 b 238 110 444 71 353 82 b 260 571 242 110 260 419 z "},"C":{"ha":842,"x_min":0,"x_max":0,"o":"m 461 968 b 60 554 243 968 72 831 b 74 301 60 447 50 474 b 365 -18 107 107 257 10 b 631 19 429 -37 554 -31 b 792 263 707 72 746 136 b 679 281 792 296 689 313 b 569 113 643 186 629 154 b 300 131 494 63 389 78 b 175 557 172 211 168 471 b 451 864 188 749 310 864 b 643 643 651 864 664 771 b 754 636 619 561 754 539 b 461 968 769 813 771 968 z "},"Ć":{"ha":842,"x_min":0,"x_max":0,"o":"m 496 1175 b 407 1076 478 1149 425 1103 b 465 1033 376 1032 436 1001 b 567 1129 489 1061 543 1101 b 496 1175 599 1167 528 1213 z m 461 968 b 60 554 243 968 72 831 b 74 301 60 447 50 474 b 365 -18 107 107 257 10 b 631 19 429 -37 554 -31 b 792 263 707 72 746 136 b 679 281 792 296 689 313 b 569 113 643 186 629 154 b 300 131 494 63 389 78 b 175 557 172 211 168 471 b 451 864 188 749 310 864 b 643 643 651 864 664 771 b 754 636 619 561 754 539 b 461 968 769 813 771 968 z "},"Č":{"ha":842,"x_min":0,"x_max":0,"o":"m 553 1183 b 449 1111 531 1163 474 1132 b 364 1182 414 1136 393 1160 b 311 1131 329 1210 290 1156 b 464 1040 335 1103 443 1021 b 594 1122 525 1078 567 1096 b 553 1183 633 1158 583 1213 z m 461 968 b 60 554 243 968 72 831 b 74 301 60 447 50 474 b 365 -18 107 107 257 10 b 631 19 429 -37 554 -31 b 792 263 707 72 746 136 b 679 281 792 296 689 313 b 569 113 643 186 629 154 b 300 131 494 63 389 78 b 175 557 172 211 168 471 b 451 864 188 749 310 864 b 643 643 651 864 664 771 b 754 636 619 561 754 539 b 461 968 769 813 771 968 z "},"Ç":{"ha":842,"x_min":0,"x_max":0,"o":"m 679 281 b 569 113 643 186 629 154 b 300 131 494 63 389 78 b 175 557 172 211 168 471 b 451 864 188 749 310 864 b 643 643 651 864 664 771 b 754 636 619 561 754 539 b 461 968 769 813 771 968 b 60 554 243 968 72 831 b 74 301 60 447 50 474 b 365 -18 107 107 257 10 l 404 -26 l 392 -79 b 424 -111 385 -111 393 -118 b 454 -172 476 -108 479 -153 b 400 -162 436 -186 415 -182 b 353 -190 379 -135 343 -160 b 499 -219 368 -236 454 -253 b 536 -132 525 -200 540 -162 b 456 -61 532 -96 508 -58 b 465 -28 458 -53 463 -40 b 631 19 522 -25 585 -11 b 792 263 707 72 746 136 b 679 281 792 296 689 313 z "},"Ċ":{"ha":842,"x_min":0,"x_max":0,"o":"m 449 1150 b 397 1093 415 1150 390 1128 b 453 1051 400 1072 429 1051 b 449 1150 554 1051 550 1147 z m 461 968 b 60 554 243 968 72 831 b 74 301 60 447 50 474 b 365 -18 107 107 257 10 b 631 19 429 -37 554 -31 b 792 263 707 72 746 136 b 679 281 792 296 689 313 b 569 113 643 186 629 154 b 300 131 494 63 389 78 b 175 557 172 211 168 471 b 451 864 188 749 310 864 b 643 643 651 864 664 771 b 754 636 619 561 754 539 b 461 968 769 813 771 968 z "},"D":{"ha":1058,"x_min":0,"x_max":0,"o":"m 490 963 b 68 908 363 963 207 954 b 111 807 10 875 39 772 b 140 818 118 808 133 815 b 146 54 167 579 158 311 b 214 -21 147 22 168 -21 b 990 533 453 -50 997 47 b 490 963 986 835 807 935 z m 486 851 b 876 526 729 840 876 758 b 564 121 876 344 757 182 b 258 85 453 86 339 75 b 247 842 272 325 276 601 b 486 851 322 853 440 854 z "},"Ð":{"ha":1031,"x_min":0,"x_max":0,"o":"m 963 533 b 463 963 958 835 779 935 b 40 908 335 963 179 954 b 83 807 -18 875 11 772 b 113 818 90 808 106 815 b 129 481 125 710 129 597 b 51 479 100 481 72 481 b 57 374 10 478 10 376 b 129 374 75 375 100 374 b 118 54 128 268 124 160 b 186 -21 119 22 140 -21 b 963 533 425 -50 969 47 z m 536 121 b 231 85 425 86 311 75 b 240 372 236 176 240 274 b 378 376 294 372 344 372 b 369 482 474 386 429 488 b 242 479 339 478 292 478 b 219 842 240 603 233 726 b 458 851 294 853 413 854 b 849 526 701 840 849 758 b 536 121 849 344 729 182 z "},"Ď":{"ha":1058,"x_min":0,"x_max":0,"o":"m 551 1186 b 447 1114 529 1165 472 1135 b 363 1185 413 1139 392 1163 b 310 1133 328 1213 289 1158 b 463 1043 333 1106 442 1024 b 593 1125 524 1081 565 1099 b 551 1186 632 1161 582 1215 z m 490 963 b 68 908 363 963 207 954 b 111 807 10 875 39 772 b 140 818 118 808 133 815 b 146 54 167 579 158 311 b 214 -21 147 22 168 -21 b 990 533 453 -50 997 47 b 490 963 986 835 807 935 z m 486 851 b 876 526 729 840 876 758 b 564 121 876 344 757 182 b 258 85 453 86 339 75 b 247 842 272 325 276 601 b 486 851 322 853 440 854 z "},"Đ":{"ha":1031,"x_min":0,"x_max":0,"o":"m 963 533 b 463 963 958 835 779 935 b 40 908 335 963 179 954 b 83 807 -18 875 11 772 b 113 818 90 808 106 815 b 129 481 125 710 129 597 b 51 479 100 481 72 481 b 57 374 10 478 10 376 b 129 374 75 375 100 374 b 118 54 128 268 124 160 b 186 -21 119 22 140 -21 b 963 533 425 -50 969 47 z m 536 121 b 231 85 425 86 311 75 b 240 372 236 176 240 274 b 378 376 294 372 344 372 b 369 482 474 386 429 488 b 242 479 339 478 292 478 b 219 842 240 603 233 726 b 458 851 294 853 413 854 b 849 526 701 840 849 758 b 536 121 849 344 729 182 z "},"E":{"ha":850,"x_min":0,"x_max":0,"o":"m 692 950 b 128 950 571 956 188 958 b 67 943 110 949 89 946 b 79 840 7 926 3 838 l 103 844 b 113 428 103 824 108 582 b 118 203 113 413 119 258 b 133 10 118 124 117 76 b 178 -29 135 -11 171 -29 b 553 -14 425 -29 471 -19 b 717 -8 592 -11 638 -8 b 738 96 814 -8 836 88 b 233 75 693 96 379 68 b 222 446 229 107 222 428 b 717 463 324 446 543 431 b 682 560 799 506 763 565 b 221 550 565 546 343 542 b 211 850 219 626 213 821 b 692 846 269 854 621 846 b 692 950 767 851 768 953 z "},"É":{"ha":850,"x_min":0,"x_max":0,"o":"m 456 1176 b 367 1078 438 1150 385 1104 b 425 1035 336 1033 396 1003 b 526 1131 449 1063 503 1103 b 456 1176 558 1168 488 1214 z m 692 950 b 128 950 571 956 188 958 b 67 943 110 949 89 946 b 79 840 7 926 3 838 l 103 844 b 113 428 103 824 108 582 b 118 203 113 413 119 258 b 133 10 118 124 117 76 b 178 -29 135 -11 171 -29 b 553 -14 425 -29 471 -19 b 717 -8 592 -11 638 -8 b 738 96 814 -8 836 88 b 233 75 693 96 379 68 b 222 446 229 107 222 428 b 717 463 324 446 543 431 b 682 560 799 506 763 565 b 221 550 565 546 343 542 b 211 850 219 626 213 821 b 692 846 269 854 621 846 b 692 950 767 851 768 953 z "},"Ě":{"ha":850,"x_min":0,"x_max":0,"o":"m 513 1185 b 408 1113 490 1164 433 1133 b 324 1183 374 1138 353 1161 b 271 1132 289 1211 250 1157 b 424 1042 294 1104 403 1022 b 554 1124 485 1079 526 1097 b 513 1185 593 1160 543 1214 z m 692 950 b 128 950 571 956 188 958 b 67 943 110 949 89 946 b 79 840 7 926 3 838 l 103 844 b 113 428 103 824 108 582 b 118 203 113 413 119 258 b 133 10 118 124 117 76 b 178 -29 135 -11 171 -29 b 553 -14 425 -29 471 -19 b 717 -8 592 -11 638 -8 b 738 96 814 -8 836 88 b 233 75 693 96 379 68 b 222 446 229 107 222 428 b 717 463 324 446 543 431 b 682 560 799 506 763 565 b 221 550 565 546 343 542 b 211 850 219 626 213 821 b 692 846 269 854 621 846 b 692 950 767 851 768 953 z "},"Ê":{"ha":850,"x_min":0,"x_max":0,"o":"m 431 1183 b 246 1086 410 1203 269 1113 b 294 1039 211 1047 260 1011 b 415 1113 324 1061 381 1088 b 524 1028 440 1092 475 1068 b 561 1096 557 1000 600 1067 b 431 1183 531 1118 485 1151 z m 692 950 b 128 950 571 956 188 958 b 67 943 110 949 89 946 b 79 840 7 926 3 838 l 103 844 b 113 428 103 824 108 582 b 118 203 113 413 119 258 b 133 10 118 124 117 76 b 178 -29 135 -11 171 -29 b 553 -14 425 -29 471 -19 b 717 -8 592 -11 638 -8 b 738 96 814 -8 836 88 b 233 75 693 96 379 68 b 222 446 229 107 222 428 b 717 463 324 446 543 431 b 682 560 799 506 763 565 b 221 550 565 546 343 542 b 211 850 219 626 213 821 b 692 846 269 854 621 846 b 692 950 767 851 768 953 z "},"Ë":{"ha":850,"x_min":0,"x_max":0,"o":"m 488 1119 b 489 1031 439 1114 438 1031 b 561 1093 549 1031 574 1068 b 488 1119 553 1111 529 1124 z m 347 1121 b 279 1075 297 1121 278 1107 b 349 1028 279 1038 322 1028 b 347 1121 406 1028 404 1121 z m 692 950 b 128 950 571 956 188 958 b 67 943 110 949 89 946 b 79 840 7 926 3 838 l 103 844 b 113 428 103 824 108 582 b 118 203 113 413 119 258 b 133 10 118 124 117 76 b 178 -29 135 -11 171 -29 b 553 -14 425 -29 471 -19 b 717 -8 592 -11 638 -8 b 738 96 814 -8 836 88 b 233 75 693 96 379 68 b 222 446 229 107 222 428 b 717 463 324 446 543 431 b 682 560 799 506 763 565 b 221 550 565 546 343 542 b 211 850 219 626 213 821 b 692 846 269 854 621 846 b 692 950 767 851 768 953 z "},"Ė":{"ha":850,"x_min":0,"x_max":0,"o":"m 408 1151 b 357 1094 375 1151 350 1129 b 413 1053 360 1074 389 1053 b 408 1151 514 1053 510 1149 z m 692 950 b 128 950 571 956 188 958 b 67 943 110 949 89 946 b 79 840 7 926 3 838 l 103 844 b 113 428 103 824 108 582 b 118 203 113 413 119 258 b 133 10 118 124 117 76 b 178 -29 135 -11 171 -29 b 553 -14 425 -29 471 -19 b 717 -8 592 -11 638 -8 b 738 96 814 -8 836 88 b 233 75 693 96 379 68 b 222 446 229 107 222 428 b 717 463 324 446 543 431 b 682 560 799 506 763 565 b 221 550 565 546 343 542 b 211 850 219 626 213 821 b 692 846 269 854 621 846 b 692 950 767 851 768 953 z "},"È":{"ha":850,"x_min":0,"x_max":0,"o":"m 403 1176 b 331 1131 371 1214 299 1168 b 421 1035 354 1103 397 1063 b 479 1078 450 1003 510 1033 b 403 1176 461 1104 421 1150 z m 692 950 b 128 950 571 956 188 958 b 67 943 110 949 89 946 b 79 840 7 926 3 838 l 103 844 b 113 428 103 824 108 582 b 118 203 113 413 119 258 b 133 10 118 124 117 76 b 178 -29 135 -11 171 -29 b 553 -14 425 -29 471 -19 b 717 -8 592 -11 638 -8 b 738 96 814 -8 836 88 b 233 75 693 96 379 68 b 222 446 229 107 222 428 b 717 463 324 446 543 431 b 682 560 799 506 763 565 b 221 550 565 546 343 542 b 211 850 219 626 213 821 b 692 846 269 854 621 846 b 692 950 767 851 768 953 z "},"Ē":{"ha":850,"x_min":0,"x_max":0,"o":"m 510 1131 b 313 1131 458 1128 364 1128 b 314 1057 253 1133 260 1061 b 518 1057 367 1053 465 1054 b 510 1131 578 1060 565 1133 z m 692 950 b 128 950 571 956 188 958 b 67 943 110 949 89 946 b 79 840 7 926 3 838 l 103 844 b 113 428 103 824 108 582 b 118 203 113 413 119 258 b 133 10 118 124 117 76 b 178 -29 135 -11 171 -29 b 553 -14 425 -29 471 -19 b 717 -8 592 -11 638 -8 b 738 96 814 -8 836 88 b 233 75 693 96 379 68 b 222 446 229 107 222 428 b 717 463 324 446 543 431 b 682 560 799 506 763 565 b 221 550 565 546 343 542 b 211 850 219 626 213 821 b 692 846 269 854 621 846 b 692 950 767 851 768 953 z "},"Ę":{"ha":900,"x_min":0,"x_max":0,"o":"m 807 -146 b 754 -140 786 -165 768 -162 b 781 -19 739 -117 750 -56 b 738 96 811 17 815 89 b 233 75 693 96 379 68 b 222 446 229 107 222 428 b 717 463 324 446 543 431 b 682 560 799 506 763 565 b 221 550 565 546 343 542 b 211 850 219 626 213 821 b 692 846 269 854 621 846 b 692 950 767 851 768 953 b 128 950 571 956 188 958 b 67 943 110 949 89 946 b 79 840 7 926 3 838 l 103 844 b 113 428 103 824 108 582 b 118 203 113 413 119 258 b 133 10 118 124 117 76 b 178 -29 135 -11 171 -29 b 553 -14 425 -29 471 -19 b 713 -8 590 -11 636 -8 b 689 -187 672 -64 660 -144 b 840 -200 726 -244 807 -242 b 807 -146 867 -168 839 -117 z "},"F":{"ha":836,"x_min":0,"x_max":0,"o":"m 86 936 b 94 835 17 904 21 844 l 138 836 b 146 504 133 764 146 581 b 151 32 147 432 151 71 b 260 24 151 -36 260 -42 l 261 383 b 721 396 424 383 563 358 b 679 489 764 413 719 506 b 261 492 578 464 358 492 b 233 851 264 504 238 851 b 672 854 281 851 624 867 b 746 807 672 828 711 794 b 717 931 799 826 788 903 b 86 936 610 968 365 951 z "},"G":{"ha":925,"x_min":0,"x_max":0,"o":"m 428 951 b 160 818 325 946 246 892 b 58 378 47 718 36 535 b 132 136 74 271 101 188 b 674 24 249 -42 496 -47 b 839 456 876 115 839 267 b 771 522 833 511 793 522 b 492 524 722 518 528 524 b 506 426 461 524 468 426 b 736 426 529 426 672 425 b 733 282 736 388 733 303 b 628 119 733 194 683 144 b 235 183 519 65 324 68 b 169 389 210 224 183 308 b 233 739 149 513 154 658 b 429 842 286 790 346 838 b 719 710 497 847 710 849 b 825 718 728 633 825 667 b 428 951 817 901 610 961 z "},"Ğ":{"ha":925,"x_min":0,"x_max":0,"o":"m 518 1147 b 431 1101 492 1121 476 1101 b 343 1147 385 1101 369 1121 b 296 1103 310 1182 272 1139 b 431 1029 324 1061 369 1029 b 565 1103 492 1029 538 1061 b 518 1147 589 1139 551 1182 z m 428 951 b 160 818 325 946 246 892 b 58 378 47 718 36 535 b 132 136 74 271 101 188 b 674 24 249 -42 496 -47 b 839 456 876 115 839 267 b 771 522 833 511 793 522 b 492 524 722 518 528 524 b 506 426 461 524 468 426 b 736 426 529 426 672 425 b 733 282 736 388 733 303 b 628 119 733 194 683 144 b 235 183 519 65 324 68 b 169 389 210 224 183 308 b 233 739 149 513 154 658 b 429 842 286 790 346 838 b 719 710 497 847 710 849 b 825 718 728 633 825 667 b 428 951 817 901 610 961 z "},"Ģ":{"ha":925,"x_min":0,"x_max":0,"o":"m 428 951 b 160 818 325 946 246 892 b 58 378 47 718 36 535 b 132 136 74 271 101 188 b 674 24 249 -42 496 -47 b 839 456 876 115 839 267 b 771 522 833 511 793 522 b 492 524 722 518 528 524 b 506 426 461 524 468 426 b 736 426 529 426 672 425 b 733 282 736 388 733 303 b 628 119 733 194 683 144 b 235 183 519 65 324 68 b 169 389 210 224 183 308 b 233 739 149 513 154 658 b 429 842 286 790 346 838 b 719 710 497 847 710 849 b 825 718 728 633 825 667 b 428 951 817 901 610 961 z m 524 -128 b 442 -126 535 -65 447 -61 b 426 -229 439 -157 433 -185 b 496 -254 413 -312 478 -321 b 524 -128 508 -208 514 -185 z "},"Ġ":{"ha":925,"x_min":0,"x_max":0,"o":"m 431 1138 b 379 1081 397 1138 372 1115 b 435 1039 382 1060 411 1039 b 431 1138 536 1039 532 1135 z m 428 951 b 160 818 325 946 246 892 b 58 378 47 718 36 535 b 132 136 74 271 101 188 b 674 24 249 -42 496 -47 b 839 456 876 115 839 267 b 771 522 833 511 793 522 b 492 524 722 518 528 524 b 506 426 461 524 468 426 b 736 426 529 426 672 425 b 733 282 736 388 733 303 b 628 119 733 194 683 144 b 235 183 519 65 324 68 b 169 389 210 224 183 308 b 233 739 149 513 154 658 b 429 842 286 790 346 838 b 719 710 497 847 710 849 b 825 718 728 633 825 667 b 428 951 817 901 610 961 z "},"H":{"ha":1018,"x_min":0,"x_max":0,"o":"m 885 938 b 778 931 885 982 778 969 b 799 414 778 800 781 619 b 265 414 526 408 443 403 b 253 922 254 479 257 789 b 144 913 251 974 144 961 b 154 415 146 821 147 461 b 81 415 110 415 97 414 b 64 308 46 418 19 311 b 165 310 83 307 150 310 b 172 -14 181 211 172 28 b 281 -4 172 -71 281 -49 l 282 224 b 276 306 281 253 279 278 b 807 308 406 297 708 308 b 828 26 818 215 825 121 b 935 35 828 -50 935 -39 b 885 938 924 179 885 613 z "},"Ħ":{"ha":1093,"x_min":0,"x_max":0,"o":"m 922 922 b 817 917 922 988 818 979 l 817 763 b 293 767 649 765 535 767 b 292 908 293 821 292 849 b 182 899 289 974 186 954 b 185 769 183 854 185 813 b 133 772 160 771 157 772 b 121 679 99 776 75 683 b 185 676 142 679 164 678 b 215 283 185 660 201 461 b 211 11 218 176 218 69 b 318 22 204 -62 318 -39 b 311 306 318 75 319 151 b 846 307 432 297 739 308 b 867 40 856 215 863 133 b 972 49 867 -37 983 -28 b 926 671 947 372 932 522 b 1000 674 951 674 975 674 b 1003 765 1040 675 1051 767 b 924 764 975 767 951 765 b 922 922 922 817 921 869 z m 293 671 b 819 668 468 671 644 669 b 836 413 824 575 828 504 b 303 414 547 408 468 404 b 293 671 297 468 294 579 z "},"I":{"ha":688,"x_min":0,"x_max":0,"o":"m 79 940 b 78 843 24 942 31 843 b 258 853 144 843 221 853 b 272 83 269 439 272 415 b 100 81 251 85 147 85 b 96 -21 21 69 56 -24 b 572 -21 297 -7 392 -31 b 586 79 622 -18 625 88 b 382 79 528 72 442 76 b 372 442 382 243 381 324 b 365 854 364 558 365 796 b 506 860 411 856 479 860 b 607 869 553 822 607 838 b 465 954 606 931 565 954 b 79 940 294 954 190 940 z "},"Ĳ":{"ha":1396,"x_min":0,"x_max":0,"o":"m 1272 961 b 856 953 1154 969 1024 938 b 853 847 781 958 776 856 b 1214 853 938 839 1132 861 b 1224 650 1215 782 1222 668 b 1167 165 1224 549 1254 278 b 968 76 1114 96 1024 72 b 826 143 889 81 846 114 b 796 329 797 189 800 283 b 689 331 794 367 688 368 b 739 81 689 289 681 146 b 960 -24 793 18 874 -11 b 1264 125 1126 -18 1192 25 b 1335 458 1304 183 1332 271 b 1321 876 1336 515 1321 815 b 1272 961 1343 908 1332 956 z m 79 940 b 78 843 24 942 31 843 b 258 853 144 843 221 853 b 272 83 269 439 272 415 b 100 81 251 85 147 85 b 96 -21 21 69 56 -24 b 572 -21 297 -7 392 -31 b 586 79 622 -18 625 88 b 382 79 528 72 442 76 b 372 442 382 243 381 324 b 365 854 364 558 365 796 b 506 860 411 856 479 860 b 607 869 553 822 607 838 b 465 954 606 931 565 954 b 79 940 294 954 190 940 z "},"Í":{"ha":688,"x_min":0,"x_max":0,"o":"m 339 1164 b 250 1065 321 1138 268 1092 b 308 1022 219 1021 279 990 b 410 1118 332 1050 386 1090 b 339 1164 442 1156 371 1201 z m 79 940 b 78 843 24 942 31 843 b 258 853 144 843 221 853 b 272 83 269 439 272 415 b 100 81 251 85 147 85 b 96 -21 21 69 56 -24 b 572 -21 297 -7 392 -31 b 586 79 622 -18 625 88 b 382 79 528 72 442 76 b 372 442 382 243 381 324 b 365 854 364 558 365 796 b 506 860 411 856 479 860 b 607 869 553 822 607 838 b 465 954 606 931 565 954 b 79 940 294 954 190 940 z "},"Î":{"ha":688,"x_min":0,"x_max":0,"o":"m 314 1171 b 129 1074 293 1190 153 1100 b 178 1026 94 1035 143 999 b 299 1100 207 1049 264 1075 b 407 1015 324 1079 358 1056 b 444 1083 440 988 483 1054 b 314 1171 414 1106 368 1139 z m 79 940 b 78 843 24 942 31 843 b 258 853 144 843 221 853 b 272 83 269 439 272 415 b 100 81 251 85 147 85 b 96 -21 21 69 56 -24 b 572 -21 297 -7 392 -31 b 586 79 622 -18 625 88 b 382 79 528 72 442 76 b 372 442 382 243 381 324 b 365 854 364 558 365 796 b 506 860 411 856 479 860 b 607 869 553 822 607 838 b 465 954 606 931 565 954 b 79 940 294 954 190 940 z "},"Ï":{"ha":688,"x_min":0,"x_max":0,"o":"m 371 1107 b 372 1018 322 1101 321 1018 b 444 1081 432 1018 457 1056 b 371 1107 436 1099 413 1111 z m 231 1108 b 163 1063 181 1108 161 1094 b 232 1015 163 1025 206 1015 b 231 1108 289 1015 288 1108 z m 79 940 b 78 843 24 942 31 843 b 258 853 144 843 221 853 b 272 83 269 439 272 415 b 100 81 251 85 147 85 b 96 -21 21 69 56 -24 b 572 -21 297 -7 392 -31 b 586 79 622 -18 625 88 b 382 79 528 72 442 76 b 372 442 382 243 381 324 b 365 854 364 558 365 796 b 506 860 411 856 479 860 b 607 869 553 822 607 838 b 465 954 606 931 565 954 b 79 940 294 954 190 940 z "},"İ":{"ha":688,"x_min":0,"x_max":0,"o":"m 292 1139 b 240 1082 258 1139 233 1117 b 296 1040 243 1061 272 1040 b 292 1139 397 1040 393 1136 z m 79 940 b 78 843 24 942 31 843 b 258 853 144 843 221 853 b 272 83 269 439 272 415 b 100 81 251 85 147 85 b 96 -21 21 69 56 -24 b 572 -21 297 -7 392 -31 b 586 79 622 -18 625 88 b 382 79 528 72 442 76 b 372 442 382 243 381 324 b 365 854 364 558 365 796 b 506 860 411 856 479 860 b 607 869 553 822 607 838 b 465 954 606 931 565 954 b 79 940 294 954 190 940 z "},"Ì":{"ha":688,"x_min":0,"x_max":0,"o":"m 286 1164 b 214 1118 254 1201 182 1156 b 304 1022 238 1090 281 1050 b 363 1065 333 990 393 1021 b 286 1164 344 1092 304 1138 z m 79 940 b 78 843 24 942 31 843 b 258 853 144 843 221 853 b 272 83 269 439 272 415 b 100 81 251 85 147 85 b 96 -21 21 69 56 -24 b 572 -21 297 -7 392 -31 b 586 79 622 -18 625 88 b 382 79 528 72 442 76 b 372 442 382 243 381 324 b 365 854 364 558 365 796 b 506 860 411 856 479 860 b 607 869 553 822 607 838 b 465 954 606 931 565 954 b 79 940 294 954 190 940 z "},"Ī":{"ha":688,"x_min":0,"x_max":0,"o":"m 393 1118 b 196 1118 342 1115 247 1115 b 197 1044 136 1121 143 1049 b 401 1044 250 1040 349 1042 b 393 1118 461 1047 449 1121 z m 79 940 b 78 843 24 942 31 843 b 258 853 144 843 221 853 b 272 83 269 439 272 415 b 100 81 251 85 147 85 b 96 -21 21 69 56 -24 b 572 -21 297 -7 392 -31 b 586 79 622 -18 625 88 b 382 79 528 72 442 76 b 372 442 382 243 381 324 b 365 854 364 558 365 796 b 506 860 411 856 479 860 b 607 869 553 822 607 838 b 465 954 606 931 565 954 b 79 940 294 954 190 940 z "},"Į":{"ha":717,"x_min":0,"x_max":0,"o":"m 599 -147 b 546 -142 578 -167 560 -164 b 572 -21 531 -118 542 -57 l 581 -8 b 571 79 607 19 603 86 b 367 79 513 72 426 76 b 357 442 367 243 365 324 b 350 854 349 558 350 796 b 490 860 396 856 464 860 b 592 869 538 822 592 838 b 450 954 590 931 550 954 b 64 940 279 954 175 940 b 63 843 38 939 29 843 b 243 853 129 843 206 853 b 257 83 254 439 257 415 b 85 81 236 85 132 85 b 81 -21 50 75 58 -22 b 496 -24 258 -8 353 -25 b 481 -189 463 -78 454 -149 b 632 -201 518 -246 599 -243 b 599 -147 658 -169 631 -118 z "},"J":{"ha":778,"x_min":0,"x_max":0,"o":"m 654 961 b 238 953 536 969 406 938 b 235 847 163 958 158 856 b 596 853 319 839 514 861 b 606 650 597 782 604 668 b 549 165 606 549 636 278 b 350 76 496 96 406 72 b 208 143 271 81 228 114 b 178 329 179 189 182 283 b 71 331 176 367 69 368 b 121 81 71 289 63 146 b 342 -24 175 18 256 -11 b 646 125 508 -18 574 25 b 717 458 686 183 714 271 b 703 876 718 515 703 815 b 654 961 725 908 714 956 z "},"K":{"ha":817,"x_min":0,"x_max":0,"o":"m 156 931 b 49 896 146 990 39 954 b 76 -4 96 601 76 157 b 183 6 76 -47 183 -29 b 186 417 183 68 186 360 b 260 460 182 415 213 439 b 676 -3 424 335 626 133 b 767 36 693 -49 771 -32 b 356 514 732 186 485 415 b 544 664 415 554 488 611 b 681 935 649 761 681 863 b 574 915 681 976 574 949 b 443 706 574 869 526 781 b 186 519 354 626 261 557 b 156 931 183 665 174 819 z "},"Ķ":{"ha":817,"x_min":0,"x_max":0,"o":"m 156 931 b 49 896 146 990 39 954 b 76 -4 96 601 76 157 b 183 6 76 -47 183 -29 b 186 417 183 68 186 360 b 260 460 182 415 213 439 b 676 -3 424 335 626 133 b 767 36 693 -49 771 -32 b 356 514 732 186 485 415 b 544 664 415 554 488 611 b 681 935 649 761 681 863 b 574 915 681 976 574 949 b 443 706 574 869 526 781 b 186 519 354 626 261 557 b 156 931 183 665 174 819 z m 449 -128 b 367 -126 460 -65 372 -61 b 351 -229 364 -157 358 -185 b 421 -254 338 -312 403 -321 b 449 -128 433 -208 439 -185 z "},"L":{"ha":775,"x_min":0,"x_max":0,"o":"m 156 903 b 50 901 156 981 50 979 b 83 44 47 624 94 325 b 138 -29 83 17 96 -29 b 669 -29 275 -11 639 -29 b 736 3 694 -29 728 -25 b 740 200 747 65 736 156 b 647 197 744 233 654 228 b 650 61 642 161 644 61 b 194 67 599 60 325 79 b 156 903 206 293 156 551 z "},"Ĺ":{"ha":781,"x_min":0,"x_max":0,"o":"m 147 1171 b 58 1072 129 1144 76 1099 b 117 1029 28 1028 88 997 b 218 1125 140 1057 194 1097 b 147 1171 250 1163 179 1208 z m 161 903 b 56 901 161 981 56 979 b 89 44 53 624 100 325 b 143 -29 89 17 101 -29 b 675 -29 281 -11 644 -29 b 742 3 700 -29 733 -25 b 746 200 753 65 742 156 b 653 197 750 233 660 228 b 656 61 647 161 650 61 b 200 67 604 60 331 79 b 161 903 211 293 161 551 z "},"Ľ":{"ha":775,"x_min":0,"x_max":0,"o":"m 156 903 b 50 901 156 981 50 979 b 83 44 47 624 94 325 b 138 -29 83 17 96 -29 b 669 -29 275 -11 639 -29 b 736 3 694 -29 728 -25 b 740 200 747 65 736 156 b 647 197 744 233 654 228 b 650 61 642 161 644 61 b 194 67 599 60 325 79 b 156 903 206 293 156 551 z m 650 919 b 556 922 664 969 571 975 b 533 807 553 896 536 838 b 617 797 524 758 604 754 z "},"Ļ":{"ha":775,"x_min":0,"x_max":0,"o":"m 156 903 b 50 901 156 981 50 979 b 83 44 47 624 94 325 b 138 -29 83 17 96 -29 b 669 -29 275 -11 639 -29 b 736 3 694 -29 728 -25 b 740 200 747 65 736 156 b 647 197 744 233 654 228 b 650 61 642 161 644 61 b 194 67 599 60 325 79 b 156 903 206 293 156 551 z m 426 -153 b 344 -151 438 -90 350 -86 b 329 -254 342 -182 336 -210 b 399 -279 315 -337 381 -346 b 426 -153 411 -233 417 -210 z "},"Ŀ":{"ha":775,"x_min":0,"x_max":0,"o":"m 156 903 b 50 901 156 981 50 979 b 83 44 47 624 94 325 b 138 -29 83 17 96 -29 b 669 -29 275 -11 639 -29 b 736 3 694 -29 728 -25 b 740 200 747 65 736 156 b 647 197 744 233 654 228 b 650 61 642 161 644 61 b 194 67 599 60 325 79 b 156 903 206 293 156 551 z m 450 497 b 443 369 381 500 374 375 b 506 421 472 369 506 388 b 450 497 506 456 496 497 z "},"Ł":{"ha":843,"x_min":0,"x_max":0,"o":"m 219 917 b 118 915 219 994 118 993 b 138 503 118 771 126 656 b 71 465 115 492 93 476 b 104 388 21 438 69 369 l 146 410 b 151 72 154 272 156 175 b 206 -1 151 44 164 -1 b 738 -1 361 18 707 -1 b 803 43 763 -1 796 15 b 808 228 817 111 800 174 b 715 225 814 269 725 268 b 721 89 700 161 721 89 b 258 99 654 93 399 104 b 244 457 263 178 256 326 l 360 513 b 325 597 413 536 392 619 b 238 551 299 585 264 564 b 219 917 226 679 218 794 z "},"M":{"ha":1224,"x_min":0,"x_max":0,"o":"m 819 933 b 921 906 846 981 915 972 b 1100 271 958 731 1064 413 b 1179 42 1119 201 1144 104 b 1079 -11 1211 -8 1117 -65 b 999 238 1039 64 1021 131 b 853 726 975 338 883 596 b 651 11 767 457 728 235 b 550 13 638 -26 588 -57 b 313 696 438 222 353 533 b 150 13 239 360 199 163 b 47 29 124 -62 33 -51 b 258 908 135 296 174 639 b 365 924 265 967 344 1000 b 590 190 406 789 475 442 b 819 933 657 453 746 782 z "},"N":{"ha":881,"x_min":0,"x_max":0,"o":"m 796 938 b 686 931 796 982 686 979 b 714 218 686 699 710 365 b 410 621 625 344 476 546 b 154 925 338 701 218 838 b 54 917 126 1000 60 985 b 57 825 50 888 54 853 b 58 42 72 538 83 276 b 172 29 44 -40 158 -50 b 164 747 194 281 188 443 b 711 47 468 390 586 225 b 814 51 746 -33 810 -17 b 796 938 831 310 796 700 z "},"Ń":{"ha":881,"x_min":0,"x_max":0,"o":"m 456 1176 b 367 1078 438 1150 385 1104 b 425 1035 336 1033 396 1003 b 526 1131 449 1063 503 1103 b 456 1176 558 1168 488 1214 z m 796 938 b 686 931 796 982 686 979 b 714 218 686 699 710 365 b 410 621 625 344 476 546 b 154 925 338 701 218 838 b 54 917 126 1000 60 985 b 57 825 50 888 54 853 b 58 42 72 538 83 276 b 172 29 44 -40 158 -50 b 164 747 194 281 188 443 b 711 47 468 390 586 225 b 814 51 746 -33 810 -17 b 796 938 831 310 796 700 z "},"Ň":{"ha":881,"x_min":0,"x_max":0,"o":"m 513 1185 b 408 1113 490 1164 433 1133 b 324 1183 374 1138 353 1161 b 271 1132 289 1211 250 1157 b 424 1042 294 1104 403 1022 b 554 1124 485 1079 526 1097 b 513 1185 593 1160 543 1214 z m 796 938 b 686 931 796 982 686 979 b 714 218 686 699 710 365 b 410 621 625 344 476 546 b 154 925 338 701 218 838 b 54 917 126 1000 60 985 b 57 825 50 888 54 853 b 58 42 72 538 83 276 b 172 29 44 -40 158 -50 b 164 747 194 281 188 443 b 711 47 468 390 586 225 b 814 51 746 -33 810 -17 b 796 938 831 310 796 700 z "},"Ņ":{"ha":881,"x_min":0,"x_max":0,"o":"m 796 938 b 686 931 796 982 686 979 b 714 218 686 699 710 365 b 410 621 625 344 476 546 b 154 925 338 701 218 838 b 54 917 126 1000 60 985 b 57 825 50 888 54 853 b 58 42 72 538 83 276 b 172 29 44 -40 158 -50 b 164 747 194 281 188 443 b 711 47 468 390 586 225 b 814 51 746 -33 810 -17 b 796 938 831 310 796 700 z m 481 -128 b 399 -126 492 -65 404 -61 b 383 -229 396 -157 390 -185 b 453 -254 369 -312 435 -321 b 481 -128 465 -208 471 -185 z "},"Ŋ":{"ha":883,"x_min":0,"x_max":0,"o":"m 796 951 b 685 944 796 1014 685 1013 b 713 219 685 758 708 388 b 410 621 621 349 474 550 b 156 926 278 765 197 853 b 53 917 121 983 58 978 b 57 825 50 888 53 853 b 58 68 72 538 83 303 b 172 57 46 -10 157 -25 b 165 740 193 294 188 449 b 350 506 240 639 297 571 b 718 36 446 390 535 289 b 499 -390 710 -136 694 -408 b 361 -149 333 -375 369 -231 b 247 -147 360 -110 246 -110 b 494 -501 256 -346 289 -501 b 818 -57 751 -501 800 -304 b 796 951 833 182 796 578 z "},"Ñ":{"ha":881,"x_min":0,"x_max":0,"o":"m 364 1144 b 264 1092 321 1153 272 1135 b 326 1057 254 1042 313 1028 b 378 1068 336 1078 360 1076 b 486 1029 401 1057 443 1029 b 564 1089 524 1029 558 1068 b 513 1122 574 1129 525 1140 b 458 1099 507 1114 500 1088 b 364 1144 438 1104 389 1139 z m 796 938 b 686 931 796 982 686 979 b 714 218 686 699 710 365 b 410 621 625 344 476 546 b 154 925 338 701 218 838 b 54 917 126 1000 60 985 b 57 825 50 888 54 853 b 58 42 72 538 83 276 b 172 29 44 -40 158 -50 b 164 747 194 281 188 443 b 711 47 468 390 586 225 b 814 51 746 -33 810 -17 b 796 938 831 310 796 700 z "},"O":{"ha":910,"x_min":0,"x_max":0,"o":"m 489 965 b 375 935 439 981 397 983 b 122 775 294 908 185 858 b 49 411 24 633 38 556 b 149 139 56 271 100 203 b 440 -19 213 60 304 -25 b 803 190 613 -12 743 68 b 844 422 842 271 844 299 b 806 646 843 499 828 574 b 489 965 761 790 642 917 z m 465 857 b 725 488 626 818 690 678 b 717 278 739 419 736 353 b 439 85 692 169 554 85 b 243 196 358 85 293 135 b 158 454 204 246 158 313 b 215 722 158 528 138 629 b 465 857 271 785 397 846 z "},"Ó":{"ha":910,"x_min":0,"x_max":0,"o":"m 482 1176 b 393 1078 464 1150 411 1104 b 451 1035 363 1033 422 1003 b 553 1131 475 1063 529 1103 b 482 1176 585 1168 514 1214 z m 489 965 b 375 935 439 981 397 983 b 122 775 294 908 185 858 b 49 411 24 633 38 556 b 149 139 56 271 100 203 b 440 -19 213 60 304 -25 b 803 190 613 -12 743 68 b 844 422 842 271 844 299 b 806 646 843 499 828 574 b 489 965 761 790 642 917 z m 465 857 b 725 488 626 818 690 678 b 717 278 739 419 736 353 b 439 85 692 169 554 85 b 243 196 358 85 293 135 b 158 454 204 246 158 313 b 215 722 158 528 138 629 b 465 857 271 785 397 846 z "},"Ô":{"ha":910,"x_min":0,"x_max":0,"o":"m 457 1183 b 272 1086 436 1203 296 1113 b 321 1039 238 1047 286 1011 b 442 1113 350 1061 407 1088 b 550 1028 467 1092 501 1068 b 588 1096 583 1000 626 1067 b 457 1183 557 1118 511 1151 z m 489 965 b 375 935 439 981 397 983 b 122 775 294 908 185 858 b 49 411 24 633 38 556 b 149 139 56 271 100 203 b 440 -19 213 60 304 -25 b 803 190 613 -12 743 68 b 844 422 842 271 844 299 b 806 646 843 499 828 574 b 489 965 761 790 642 917 z m 465 857 b 725 488 626 818 690 678 b 717 278 739 419 736 353 b 439 85 692 169 554 85 b 243 196 358 85 293 135 b 158 454 204 246 158 313 b 215 722 158 528 138 629 b 465 857 271 785 397 846 z "},"Ö":{"ha":910,"x_min":0,"x_max":0,"o":"m 514 1119 b 515 1031 465 1114 464 1031 b 588 1093 575 1031 600 1068 b 514 1119 579 1111 556 1124 z m 374 1121 b 306 1075 324 1121 304 1107 b 375 1028 306 1038 349 1028 b 374 1121 432 1028 431 1121 z m 489 965 b 375 935 439 981 397 983 b 122 775 294 908 185 858 b 49 411 24 633 38 556 b 149 139 56 271 100 203 b 440 -19 213 60 304 -25 b 803 190 613 -12 743 68 b 844 422 842 271 844 299 b 806 646 843 499 828 574 b 489 965 761 790 642 917 z m 465 857 b 725 488 626 818 690 678 b 717 278 739 419 736 353 b 439 85 692 169 554 85 b 243 196 358 85 293 135 b 158 454 204 246 158 313 b 215 722 158 528 138 629 b 465 857 271 785 397 846 z "},"Ò":{"ha":910,"x_min":0,"x_max":0,"o":"m 429 1176 b 357 1131 397 1214 325 1168 b 447 1035 381 1103 424 1063 b 506 1078 476 1003 536 1033 b 429 1176 488 1104 447 1150 z m 489 965 b 375 935 439 981 397 983 b 122 775 294 908 185 858 b 49 411 24 633 38 556 b 149 139 56 271 100 203 b 440 -19 213 60 304 -25 b 803 190 613 -12 743 68 b 844 422 842 271 844 299 b 806 646 843 499 828 574 b 489 965 761 790 642 917 z m 465 857 b 725 488 626 818 690 678 b 717 278 739 419 736 353 b 439 85 692 169 554 85 b 243 196 358 85 293 135 b 158 454 204 246 158 313 b 215 722 158 528 138 629 b 465 857 271 785 397 846 z "},"Ő":{"ha":910,"x_min":0,"x_max":0,"o":"m 374 1169 b 336 1072 363 1139 347 1103 b 403 1044 317 1022 383 1007 l 453 1143 b 374 1169 476 1186 396 1213 z m 506 1167 b 468 1069 494 1138 479 1101 b 535 1043 450 1019 515 1004 l 586 1140 b 506 1167 608 1185 528 1211 z m 489 965 b 375 935 439 981 397 983 b 122 775 294 908 185 858 b 49 411 24 633 38 556 b 149 139 56 271 100 203 b 440 -19 213 60 304 -25 b 803 190 613 -12 743 68 b 844 422 842 271 844 299 b 806 646 843 499 828 574 b 489 965 761 790 642 917 z m 465 857 b 725 488 626 818 690 678 b 717 278 739 419 736 353 b 439 85 692 169 554 85 b 243 196 358 85 293 135 b 158 454 204 246 158 313 b 215 722 158 528 138 629 b 465 857 271 785 397 846 z "},"Ō":{"ha":910,"x_min":0,"x_max":0,"o":"m 536 1131 b 339 1131 485 1128 390 1128 b 340 1057 279 1133 286 1061 b 544 1057 393 1053 492 1054 b 536 1131 604 1060 592 1133 z m 489 965 b 375 935 439 981 397 983 b 122 775 294 908 185 858 b 49 411 24 633 38 556 b 149 139 56 271 100 203 b 440 -19 213 60 304 -25 b 803 190 613 -12 743 68 b 844 422 842 271 844 299 b 806 646 843 499 828 574 b 489 965 761 790 642 917 z m 465 857 b 725 488 626 818 690 678 b 717 278 739 419 736 353 b 439 85 692 169 554 85 b 243 196 358 85 293 135 b 158 454 204 246 158 313 b 215 722 158 528 138 629 b 465 857 271 785 397 846 z "},"Ø":{"ha":910,"x_min":0,"x_max":0,"o":"m 489 979 b 375 949 439 994 397 997 b 122 789 294 922 185 872 b 49 425 24 647 38 569 b 149 153 56 285 100 217 b 178 119 157 142 167 131 b 131 57 161 96 146 75 b 210 -8 103 25 182 -40 b 254 51 224 10 239 29 b 440 -6 304 15 365 -8 b 803 204 613 1 743 82 b 844 436 842 285 844 313 b 806 660 843 513 828 588 b 719 819 788 717 758 772 b 764 888 735 844 750 868 b 682 949 788 922 707 983 l 646 894 b 489 979 600 932 547 961 z m 465 871 b 590 806 515 858 557 836 b 240 214 485 631 354 392 b 158 468 201 263 158 331 b 215 736 158 542 138 643 b 465 871 271 799 397 860 z m 657 718 b 725 501 689 658 710 585 b 717 292 739 433 736 367 b 439 99 692 183 554 99 b 314 142 392 99 350 115 b 657 718 424 313 553 543 z "},"Õ":{"ha":910,"x_min":0,"x_max":0,"o":"m 390 1144 b 290 1092 347 1153 299 1135 b 353 1057 281 1042 339 1028 b 404 1068 363 1078 386 1076 b 513 1029 428 1057 469 1029 b 590 1089 550 1029 585 1068 b 539 1122 600 1129 551 1140 b 485 1099 533 1114 526 1088 b 390 1144 464 1104 415 1139 z m 489 965 b 375 935 439 981 397 983 b 122 775 294 908 185 858 b 49 411 24 633 38 556 b 149 139 56 271 100 203 b 440 -19 213 60 304 -25 b 803 190 613 -12 743 68 b 844 422 842 271 844 299 b 806 646 843 499 828 574 b 489 965 761 790 642 917 z m 465 857 b 725 488 626 818 690 678 b 717 278 739 419 736 353 b 439 85 692 169 554 85 b 243 196 358 85 293 135 b 158 454 204 246 158 313 b 215 722 158 528 138 629 b 465 857 271 785 397 846 z "},"Œ":{"ha":1469,"x_min":0,"x_max":0,"o":"m 489 979 b 375 949 439 994 397 997 b 122 789 294 922 185 872 b 49 425 24 647 38 569 b 149 153 56 285 100 217 b 440 -6 213 74 304 -11 b 740 115 567 0 669 44 b 753 36 742 90 746 65 b 797 -3 754 15 790 -3 b 1153 10 992 -3 1076 4 b 1336 18 1207 14 1256 18 b 1357 122 1433 18 1456 114 b 853 101 1313 122 999 94 b 843 457 846 151 844 385 b 1336 474 946 457 1164 442 b 1301 571 1418 517 1382 576 b 840 561 1185 557 963 553 b 831 861 839 638 832 832 b 1311 857 889 865 1240 857 b 1311 961 1386 863 1388 964 b 803 963 1190 967 863 971 b 726 904 771 961 726 953 b 724 831 726 878 724 854 b 489 979 679 894 544 961 z m 465 871 b 733 607 626 832 699 756 b 743 292 743 561 750 358 b 439 99 732 183 554 99 b 243 210 358 99 293 149 b 158 468 204 260 158 326 b 215 736 158 542 138 643 b 465 871 271 799 397 860 z "},"P":{"ha":842,"x_min":0,"x_max":0,"o":"m 511 957 b 269 936 443 963 361 954 b 17 853 185 919 78 892 b 83 774 -15 822 53 756 b 104 783 88 776 96 781 b 129 386 104 664 118 486 b 94 382 117 388 104 385 b 106 290 46 364 49 310 l 139 286 b 158 24 139 226 142 101 b 267 42 171 -50 279 -37 b 250 285 253 107 251 213 b 554 364 365 292 476 326 b 719 500 600 388 681 443 b 738 850 801 614 814 749 b 511 957 692 908 614 950 z m 503 863 b 657 576 667 843 729 697 b 524 461 628 526 557 478 b 239 382 425 413 328 379 b 215 818 232 460 215 651 b 503 863 307 857 382 876 z "},"Þ":{"ha":890,"x_min":0,"x_max":0,"o":"m 146 924 b 143 811 143 903 143 878 b 44 757 113 799 68 774 b 106 671 -42 701 40 638 l 147 692 b 176 315 156 539 168 401 l 151 311 b 153 208 85 317 93 229 b 188 206 164 207 176 207 b 206 47 188 168 192 122 b 315 65 221 -26 325 -15 b 297 204 303 126 299 153 b 603 282 415 208 525 244 b 775 418 654 308 732 357 b 785 768 851 525 860 672 b 561 875 739 825 661 867 b 251 842 481 882 425 875 b 254 914 251 878 253 899 b 146 924 254 992 149 1001 z m 542 763 b 694 503 718 744 768 632 b 571 392 665 453 599 407 b 289 313 478 342 375 318 b 258 729 279 451 268 590 b 542 763 354 750 447 765 z "},"Q":{"ha":892,"x_min":0,"x_max":0,"o":"m 486 960 b 364 926 454 967 372 961 b 44 406 43 831 31 569 b 146 133 54 269 96 196 b 438 -25 208 54 301 -31 b 600 11 496 -22 550 -8 b 642 -44 608 -3 633 -31 b 714 21 674 -83 757 -36 l 689 58 b 801 188 732 92 779 142 b 838 410 839 261 839 300 b 803 626 838 485 824 556 b 486 960 758 771 651 911 z m 472 849 b 724 481 631 807 690 669 b 715 271 739 407 736 350 b 621 144 704 226 663 178 b 571 217 603 168 582 197 b 492 164 532 267 460 231 b 536 97 499 149 518 121 b 435 78 503 86 467 78 b 239 190 356 78 289 129 b 150 450 200 240 150 308 b 472 849 150 675 236 801 z "},"R":{"ha":876,"x_min":0,"x_max":0,"o":"m 194 961 b 26 929 107 958 63 942 b 56 826 -11 914 22 813 b 99 839 61 829 81 835 b 118 -1 92 669 100 369 b 222 -11 119 -32 219 -46 b 208 424 215 190 211 321 b 285 401 236 418 265 410 b 801 -26 417 318 636 -37 b 818 78 853 -24 869 89 b 406 431 714 56 460 385 b 783 619 546 431 775 446 b 594 896 790 761 697 851 b 194 961 454 957 297 968 z m 213 858 b 558 797 290 867 440 847 b 678 618 643 760 689 688 b 208 531 639 476 356 510 b 213 858 208 678 210 763 z "},"Ŕ":{"ha":876,"x_min":0,"x_max":0,"o":"m 389 1176 b 300 1078 371 1150 318 1104 b 358 1035 269 1033 329 1003 b 460 1131 382 1063 436 1103 b 389 1176 492 1168 421 1214 z m 194 961 b 26 929 107 958 63 942 b 56 826 -11 914 22 813 b 99 839 61 829 81 835 b 118 -1 92 669 100 369 b 222 -11 119 -32 219 -46 b 208 424 215 190 211 321 b 285 401 236 418 265 410 b 801 -26 417 318 636 -37 b 818 78 853 -24 869 89 b 406 431 714 56 460 385 b 783 619 546 431 775 446 b 594 896 790 761 697 851 b 194 961 454 957 297 968 z m 213 858 b 558 797 290 867 440 847 b 678 618 643 760 689 688 b 208 531 639 476 356 510 b 213 858 208 678 210 763 z "},"Ř":{"ha":876,"x_min":0,"x_max":0,"o":"m 446 1185 b 342 1113 424 1164 367 1133 b 257 1183 307 1138 286 1161 b 204 1132 222 1211 183 1157 b 357 1042 228 1104 336 1022 b 488 1124 418 1079 460 1097 b 446 1185 526 1160 476 1214 z m 194 961 b 26 929 107 958 63 942 b 56 826 -11 914 22 813 b 99 839 61 829 81 835 b 118 -1 92 669 100 369 b 222 -11 119 -32 219 -46 b 208 424 215 190 211 321 b 285 401 236 418 265 410 b 801 -26 417 318 636 -37 b 818 78 853 -24 869 89 b 406 431 714 56 460 385 b 783 619 546 431 775 446 b 594 896 790 761 697 851 b 194 961 454 957 297 968 z m 213 858 b 558 797 290 867 440 847 b 678 618 643 760 689 688 b 208 531 639 476 356 510 b 213 858 208 678 210 763 z "},"Ŗ":{"ha":876,"x_min":0,"x_max":0,"o":"m 194 961 b 26 929 107 958 63 942 b 56 826 -11 914 22 813 b 99 839 61 829 81 835 b 118 -1 92 669 100 369 b 222 -11 119 -32 219 -46 b 208 424 215 190 211 321 b 285 401 236 418 265 410 b 801 -26 417 318 636 -37 b 818 78 853 -24 869 89 b 406 431 714 56 460 385 b 783 619 546 431 775 446 b 594 896 790 761 697 851 b 194 961 454 957 297 968 z m 213 858 b 558 797 290 867 440 847 b 678 618 643 760 689 688 b 208 531 639 476 356 510 b 213 858 208 678 210 763 z m 463 -128 b 381 -126 474 -65 386 -61 b 365 -229 378 -157 372 -185 b 435 -254 351 -312 417 -321 b 463 -128 447 -208 453 -185 z "},"S":{"ha":775,"x_min":0,"x_max":0,"o":"m 654 919 b 558 915 650 949 553 961 b 564 856 558 906 564 865 b 183 904 485 960 283 1001 b 214 603 113 833 110 697 b 610 242 318 513 588 392 b 429 79 628 128 535 79 b 194 182 347 79 243 121 b 138 357 151 242 140 299 b 26 339 136 397 25 379 b 93 142 28 279 60 193 b 439 -24 190 8 317 -26 b 711 282 635 -19 765 126 b 294 671 644 475 425 554 b 261 843 244 715 221 803 b 453 844 314 882 390 875 b 579 629 538 813 568 708 b 669 640 585 599 669 600 b 654 919 657 711 660 865 z "},"Ś":{"ha":775,"x_min":0,"x_max":0,"o":"m 428 1176 b 339 1078 410 1150 357 1104 b 397 1035 308 1033 368 1003 b 499 1131 421 1063 475 1103 b 428 1176 531 1168 460 1214 z m 654 919 b 558 915 650 949 553 961 b 564 856 558 906 564 865 b 183 904 485 960 283 1001 b 214 603 113 833 110 697 b 610 242 318 513 588 392 b 429 79 628 128 535 79 b 194 182 347 79 243 121 b 138 357 151 242 140 299 b 26 339 136 397 25 379 b 93 142 28 279 60 193 b 439 -24 190 8 317 -26 b 711 282 635 -19 765 126 b 294 671 644 475 425 554 b 261 843 244 715 221 803 b 453 844 314 882 390 875 b 579 629 538 813 568 708 b 669 640 585 599 669 600 b 654 919 657 711 660 865 z "},"Š":{"ha":775,"x_min":0,"x_max":0,"o":"m 485 1185 b 381 1113 463 1164 406 1133 b 296 1183 346 1138 325 1161 b 243 1132 261 1211 222 1157 b 396 1042 267 1104 375 1022 b 526 1124 457 1079 499 1097 b 485 1185 565 1160 515 1214 z m 654 919 b 558 915 650 949 553 961 b 564 856 558 906 564 865 b 183 904 485 960 283 1001 b 214 603 113 833 110 697 b 610 242 318 513 588 392 b 429 79 628 128 535 79 b 194 182 347 79 243 121 b 138 357 151 242 140 299 b 26 339 136 397 25 379 b 93 142 28 279 60 193 b 439 -24 190 8 317 -26 b 711 282 635 -19 765 126 b 294 671 644 475 425 554 b 261 843 244 715 221 803 b 453 844 314 882 390 875 b 579 629 538 813 568 708 b 669 640 585 599 669 600 b 654 919 657 711 660 865 z "},"Ş":{"ha":775,"x_min":0,"x_max":0,"o":"m 439 -24 b 711 282 635 -19 765 126 b 294 671 644 475 425 554 b 261 843 244 715 221 803 b 453 844 314 882 390 875 b 579 629 538 813 568 708 b 669 640 585 599 669 600 b 654 919 657 711 660 865 b 558 915 650 949 553 961 b 564 856 558 906 564 865 b 183 904 485 960 283 1001 b 214 603 113 833 110 697 b 610 242 318 513 588 392 b 429 79 628 128 535 79 b 194 182 347 79 243 121 b 138 357 151 242 140 299 b 26 339 136 397 25 379 b 93 142 28 279 60 193 b 372 -21 172 32 272 -11 l 361 -69 b 393 -101 354 -101 363 -108 b 424 -162 446 -99 449 -143 b 369 -153 406 -176 385 -172 b 322 -181 349 -125 313 -150 b 468 -210 338 -226 424 -243 b 506 -122 494 -190 510 -153 b 425 -51 501 -86 478 -49 b 433 -24 428 -44 431 -33 z "},"Ș":{"ha":775,"x_min":0,"x_max":0,"o":"m 654 919 b 558 915 650 949 553 961 b 564 856 558 906 564 865 b 183 904 485 960 283 1001 b 214 603 113 833 110 697 b 610 242 318 513 588 392 b 429 79 628 128 535 79 b 194 182 347 79 243 121 b 138 357 151 242 140 299 b 26 339 136 397 25 379 b 93 142 28 279 60 193 b 439 -24 190 8 317 -26 b 711 282 635 -19 765 126 b 294 671 644 475 425 554 b 261 843 244 715 221 803 b 453 844 314 882 390 875 b 579 629 538 813 568 708 b 669 640 585 599 669 600 b 654 919 657 711 660 865 z m 438 -151 b 356 -150 449 -89 361 -85 b 340 -253 353 -181 347 -208 b 410 -278 326 -336 392 -344 b 438 -151 422 -232 428 -208 z "},"T":{"ha":786,"x_min":0,"x_max":0,"o":"m 43 958 b 26 856 8 960 -18 858 b 328 854 79 853 268 853 b 344 594 335 781 344 688 b 321 4 344 408 321 169 b 431 14 321 -37 424 -36 b 432 853 431 179 467 631 b 721 851 661 861 493 857 b 738 951 756 850 779 947 b 43 958 653 954 172 950 z "},"Ŧ":{"ha":786,"x_min":0,"x_max":0,"o":"m 44 972 b 26 865 10 974 -18 868 b 322 864 81 863 263 863 b 333 510 331 790 333 704 b 224 511 289 511 239 511 b 226 414 161 511 175 414 b 331 413 236 414 297 414 b 321 46 322 183 321 110 b 432 56 321 13 431 22 b 440 410 432 135 439 385 b 556 414 481 410 532 411 b 546 511 608 421 624 510 b 443 507 528 508 481 507 b 433 863 444 572 442 772 b 722 861 667 863 489 867 b 739 965 756 860 779 961 b 44 972 653 968 174 964 z "},"Ť":{"ha":786,"x_min":0,"x_max":0,"o":"m 465 1185 b 361 1113 443 1164 386 1133 b 276 1183 326 1138 306 1161 b 224 1132 242 1211 203 1157 b 376 1042 247 1104 356 1022 b 507 1124 438 1079 479 1097 b 465 1185 546 1160 496 1214 z m 43 958 b 26 856 8 960 -18 858 b 328 854 79 853 268 853 b 344 594 335 781 344 688 b 321 4 344 408 321 169 b 431 14 321 -37 424 -36 b 432 853 431 179 467 631 b 721 851 661 861 493 857 b 738 951 756 850 779 947 b 43 958 653 954 172 950 z "},"Ţ":{"ha":786,"x_min":0,"x_max":0,"o":"m 738 951 b 43 958 653 954 172 950 b 26 856 8 960 -18 858 b 328 854 79 853 268 853 b 344 594 335 781 344 688 b 321 4 344 408 321 169 b 340 -21 321 -7 328 -15 l 331 -58 b 363 -90 324 -90 332 -97 b 393 -151 415 -87 418 -132 b 339 -142 375 -165 354 -161 b 292 -169 318 -114 282 -139 b 438 -199 307 -215 393 -232 b 475 -111 464 -179 479 -142 b 394 -40 471 -75 447 -37 b 401 -19 397 -35 399 -28 b 431 14 417 -14 428 -3 b 432 853 431 179 467 631 b 721 851 661 861 493 857 b 738 951 756 850 779 947 z "},"Ț":{"ha":786,"x_min":0,"x_max":0,"o":"m 43 958 b 26 856 8 960 -18 858 b 328 854 79 853 268 853 b 344 594 335 781 344 688 b 321 4 344 408 321 169 b 431 14 321 -37 424 -36 b 432 853 431 179 467 631 b 721 851 661 861 493 857 b 738 951 756 850 779 947 b 43 958 653 954 172 950 z m 407 -140 b 325 -139 418 -78 331 -74 b 310 -242 322 -169 317 -197 b 379 -267 296 -325 361 -333 b 407 -140 392 -221 397 -197 z "},"U":{"ha":839,"x_min":0,"x_max":0,"o":"m 654 925 b 649 281 671 774 699 424 b 428 71 613 179 542 71 b 167 438 264 71 169 238 b 154 925 167 589 165 774 b 42 913 132 990 36 979 b 57 407 56 746 57 574 b 429 -32 58 132 239 -29 b 739 219 574 -33 688 100 b 768 911 807 394 765 725 b 654 925 769 961 649 976 z "},"Ú":{"ha":839,"x_min":0,"x_max":0,"o":"m 447 1176 b 358 1078 429 1150 376 1104 b 417 1035 328 1033 388 1003 b 518 1131 440 1063 494 1103 b 447 1176 550 1168 479 1214 z m 654 925 b 649 281 671 774 699 424 b 428 71 613 179 542 71 b 167 438 264 71 169 238 b 154 925 167 589 165 774 b 42 913 132 990 36 979 b 57 407 56 746 57 574 b 429 -32 58 132 239 -29 b 739 219 574 -33 688 100 b 768 911 807 394 765 725 b 654 925 769 961 649 976 z "},"Û":{"ha":839,"x_min":0,"x_max":0,"o":"m 422 1183 b 238 1086 401 1203 261 1113 b 286 1039 203 1047 251 1011 b 407 1113 315 1061 372 1088 b 515 1028 432 1092 467 1068 b 553 1096 549 1000 592 1067 b 422 1183 522 1118 476 1151 z m 654 925 b 649 281 671 774 699 424 b 428 71 613 179 542 71 b 167 438 264 71 169 238 b 154 925 167 589 165 774 b 42 913 132 990 36 979 b 57 407 56 746 57 574 b 429 -32 58 132 239 -29 b 739 219 574 -33 688 100 b 768 911 807 394 765 725 b 654 925 769 961 649 976 z "},"Ü":{"ha":839,"x_min":0,"x_max":0,"o":"m 479 1119 b 481 1031 431 1114 429 1031 b 553 1093 540 1031 565 1068 b 479 1119 544 1111 521 1124 z m 339 1121 b 271 1075 289 1121 269 1107 b 340 1028 271 1038 314 1028 b 339 1121 397 1028 396 1121 z m 654 925 b 649 281 671 774 699 424 b 428 71 613 179 542 71 b 167 438 264 71 169 238 b 154 925 167 589 165 774 b 42 913 132 990 36 979 b 57 407 56 746 57 574 b 429 -32 58 132 239 -29 b 739 219 574 -33 688 100 b 768 911 807 394 765 725 b 654 925 769 961 649 976 z "},"Ù":{"ha":839,"x_min":0,"x_max":0,"o":"m 394 1176 b 322 1131 363 1214 290 1168 b 413 1035 346 1103 389 1063 b 471 1078 442 1003 501 1033 b 394 1176 453 1104 413 1150 z m 654 925 b 649 281 671 774 699 424 b 428 71 613 179 542 71 b 167 438 264 71 169 238 b 154 925 167 589 165 774 b 42 913 132 990 36 979 b 57 407 56 746 57 574 b 429 -32 58 132 239 -29 b 739 219 574 -33 688 100 b 768 911 807 394 765 725 b 654 925 769 961 649 976 z "},"Ű":{"ha":839,"x_min":0,"x_max":0,"o":"m 339 1169 b 301 1072 328 1139 313 1103 b 368 1044 282 1022 349 1007 l 418 1143 b 339 1169 442 1186 361 1213 z m 471 1167 b 433 1069 460 1138 444 1101 b 500 1043 415 1019 481 1004 l 551 1140 b 471 1167 574 1185 493 1211 z m 654 925 b 649 281 671 774 699 424 b 428 71 613 179 542 71 b 167 438 264 71 169 238 b 154 925 167 589 165 774 b 42 913 132 990 36 979 b 57 407 56 746 57 574 b 429 -32 58 132 239 -29 b 739 219 574 -33 688 100 b 768 911 807 394 765 725 b 654 925 769 961 649 976 z "},"Ū":{"ha":839,"x_min":0,"x_max":0,"o":"m 501 1131 b 304 1131 450 1128 356 1128 b 306 1057 244 1133 251 1061 b 510 1057 358 1053 457 1054 b 501 1131 569 1060 557 1133 z m 654 925 b 649 281 671 774 699 424 b 428 71 613 179 542 71 b 167 438 264 71 169 238 b 154 925 167 589 165 774 b 42 913 132 990 36 979 b 57 407 56 746 57 574 b 429 -32 58 132 239 -29 b 739 219 574 -33 688 100 b 768 911 807 394 765 725 b 654 925 769 961 649 976 z "},"Ų":{"ha":839,"x_min":0,"x_max":0,"o":"m 739 219 b 768 911 807 394 765 725 b 654 925 769 961 649 976 b 649 281 671 774 699 424 b 428 71 613 179 542 71 b 167 438 264 71 169 238 b 154 925 167 589 165 774 b 42 913 132 990 36 979 b 57 407 56 746 57 574 b 429 -32 58 132 239 -29 b 521 -14 461 -32 493 -26 b 503 -186 485 -69 475 -144 b 654 -199 540 -243 621 -240 b 621 -144 681 -167 653 -115 b 568 -139 600 -164 582 -161 b 608 21 553 -115 568 -43 b 739 219 642 75 711 154 z "},"Ů":{"ha":839,"x_min":0,"x_max":0,"o":"m 429 1207 b 322 1142 388 1207 342 1186 b 379 1031 301 1097 328 1044 b 468 1204 486 1001 554 1150 b 429 1207 457 1214 440 1213 z m 432 1151 b 397 1088 461 1131 439 1075 b 375 1124 378 1090 367 1108 b 417 1149 382 1139 401 1149 b 432 1151 421 1151 428 1154 z m 654 925 b 649 281 671 774 699 424 b 428 71 613 179 542 71 b 167 438 264 71 169 238 b 154 925 167 589 165 774 b 42 913 132 990 36 979 b 57 407 56 746 57 574 b 429 -32 58 132 239 -29 b 739 219 574 -33 688 100 b 768 911 807 394 765 725 b 654 925 769 961 649 976 z "},"V":{"ha":743,"x_min":0,"x_max":0,"o":"m 104 944 b 4 896 76 1026 -25 958 b 346 22 121 657 172 274 b 467 39 381 -43 449 -44 b 669 894 522 308 588 635 b 571 932 701 981 597 1007 b 396 139 503 728 442 403 b 104 944 264 349 206 743 z "},"W":{"ha":1179,"x_min":0,"x_max":0,"o":"m 124 947 b 24 907 100 1011 -3 960 b 228 21 94 725 217 119 b 339 24 236 -51 313 -42 b 550 672 403 219 493 507 b 782 25 576 592 725 156 b 886 19 814 -50 857 -56 b 1138 896 971 247 1053 668 b 1031 921 1164 969 1056 972 b 829 185 969 763 890 375 b 611 832 751 367 626 744 b 501 865 603 879 506 922 b 299 194 479 739 315 238 b 124 947 254 413 196 729 z "},"Ẃ":{"ha":1179,"x_min":0,"x_max":0,"o":"m 603 1147 b 514 1049 585 1121 532 1075 b 572 1006 483 1004 543 974 b 674 1101 596 1033 650 1074 b 603 1147 706 1139 635 1185 z m 124 947 b 24 907 100 1011 -3 960 b 228 21 94 725 217 119 b 339 24 236 -51 313 -42 b 550 672 403 219 493 507 b 782 25 576 592 725 156 b 886 19 814 -50 857 -56 b 1138 896 971 247 1053 668 b 1031 921 1164 969 1056 972 b 829 185 969 763 890 375 b 611 832 751 367 626 744 b 501 865 603 879 506 922 b 299 194 479 739 315 238 b 124 947 254 413 196 729 z "},"Ŵ":{"ha":1179,"x_min":0,"x_max":0,"o":"m 578 1154 b 393 1057 557 1174 417 1083 b 442 1010 358 1018 407 982 b 563 1083 471 1032 528 1058 b 671 999 588 1063 622 1039 b 708 1067 704 971 747 1038 b 578 1154 678 1089 632 1122 z m 124 947 b 24 907 100 1011 -3 960 b 228 21 94 725 217 119 b 339 24 236 -51 313 -42 b 550 672 403 219 493 507 b 782 25 576 592 725 156 b 886 19 814 -50 857 -56 b 1138 896 971 247 1053 668 b 1031 921 1164 969 1056 972 b 829 185 969 763 890 375 b 611 832 751 367 626 744 b 501 865 603 879 506 922 b 299 194 479 739 315 238 b 124 947 254 413 196 729 z "},"Ẅ":{"ha":1179,"x_min":0,"x_max":0,"o":"m 635 1090 b 636 1001 586 1085 585 1001 b 708 1064 696 1001 721 1039 b 635 1090 700 1082 676 1094 z m 494 1092 b 426 1046 444 1092 425 1078 b 496 999 426 1008 469 999 b 494 1092 553 999 551 1092 z m 124 947 b 24 907 100 1011 -3 960 b 228 21 94 725 217 119 b 339 24 236 -51 313 -42 b 550 672 403 219 493 507 b 782 25 576 592 725 156 b 886 19 814 -50 857 -56 b 1138 896 971 247 1053 668 b 1031 921 1164 969 1056 972 b 829 185 969 763 890 375 b 611 832 751 367 626 744 b 501 865 603 879 506 922 b 299 194 479 739 315 238 b 124 947 254 413 196 729 z "},"Ẁ":{"ha":1179,"x_min":0,"x_max":0,"o":"m 550 1147 b 478 1101 518 1185 446 1139 b 568 1006 501 1074 544 1033 b 626 1049 597 974 657 1004 b 550 1147 608 1075 568 1121 z m 124 947 b 24 907 100 1011 -3 960 b 228 21 94 725 217 119 b 339 24 236 -51 313 -42 b 550 672 403 219 493 507 b 782 25 576 592 725 156 b 886 19 814 -50 857 -56 b 1138 896 971 247 1053 668 b 1031 921 1164 969 1056 972 b 829 185 969 763 890 375 b 611 832 751 367 626 744 b 501 865 603 879 506 922 b 299 194 479 739 315 238 b 124 947 254 413 196 729 z "},"X":{"ha":788,"x_min":0,"x_max":0,"o":"m 213 943 b 132 881 188 979 99 932 b 347 540 192 803 307 638 b 43 35 235 317 108 119 b 158 -1 -11 -29 111 -54 b 410 428 181 33 332 290 b 665 -3 486 288 592 99 b 758 65 692 -37 794 10 b 463 542 682 163 575 342 b 692 899 532 649 639 804 b 578 926 724 960 600 972 b 407 629 549 872 493 764 b 213 943 349 740 278 847 z "},"Y":{"ha":726,"x_min":0,"x_max":0,"o":"m 124 936 b 28 883 101 988 8 928 b 222 511 46 842 121 686 b 413 288 278 418 356 332 b 279 64 390 208 365 57 b 214 238 206 72 206 181 b 104 258 221 294 122 342 b 168 14 94 194 90 74 b 454 71 257 -56 400 -49 b 625 656 540 247 582 479 b 686 901 644 735 664 828 b 583 939 692 951 592 992 b 451 392 551 818 499 540 b 251 679 378 469 329 529 b 124 936 204 768 157 864 z "},"Ý":{"ha":726,"x_min":0,"x_max":0,"o":"m 404 1176 b 315 1078 386 1150 333 1104 b 374 1035 285 1033 344 1003 b 475 1131 397 1063 451 1103 b 404 1176 507 1168 436 1214 z m 124 936 b 28 883 101 988 8 928 b 222 511 46 842 121 686 b 413 288 278 418 356 332 b 279 64 390 208 365 57 b 214 238 206 72 206 181 b 104 258 221 294 122 342 b 168 14 94 194 90 74 b 454 71 257 -56 400 -49 b 625 656 540 247 582 479 b 686 901 644 735 664 828 b 583 939 692 951 592 992 b 451 392 551 818 499 540 b 251 679 378 469 329 529 b 124 936 204 768 157 864 z "},"Ŷ":{"ha":726,"x_min":0,"x_max":0,"o":"m 379 1183 b 194 1086 358 1203 218 1113 b 243 1039 160 1047 208 1011 b 364 1113 272 1061 329 1088 b 472 1028 389 1092 424 1068 b 510 1096 506 1000 549 1067 b 379 1183 479 1118 433 1151 z m 124 936 b 28 883 101 988 8 928 b 222 511 46 842 121 686 b 413 288 278 418 356 332 b 279 64 390 208 365 57 b 214 238 206 72 206 181 b 104 258 221 294 122 342 b 168 14 94 194 90 74 b 454 71 257 -56 400 -49 b 625 656 540 247 582 479 b 686 901 644 735 664 828 b 583 939 692 951 592 992 b 451 392 551 818 499 540 b 251 679 378 469 329 529 b 124 936 204 768 157 864 z "},"Ÿ":{"ha":726,"x_min":0,"x_max":0,"o":"m 436 1119 b 438 1031 388 1114 386 1031 b 510 1093 497 1031 522 1068 b 436 1119 501 1111 478 1124 z m 296 1121 b 228 1075 246 1121 226 1107 b 297 1028 228 1038 271 1028 b 296 1121 354 1028 353 1121 z m 124 936 b 28 883 101 988 8 928 b 222 511 46 842 121 686 b 413 288 278 418 356 332 b 279 64 390 208 365 57 b 214 238 206 72 206 181 b 104 258 221 294 122 342 b 168 14 94 194 90 74 b 454 71 257 -56 400 -49 b 625 656 540 247 582 479 b 686 901 644 735 664 828 b 583 939 692 951 592 992 b 451 392 551 818 499 540 b 251 679 378 469 329 529 b 124 936 204 768 157 864 z "},"Ỳ":{"ha":726,"x_min":0,"x_max":0,"o":"m 351 1176 b 279 1131 319 1214 247 1168 b 369 1035 303 1103 346 1063 b 428 1078 399 1003 458 1033 b 351 1176 410 1104 369 1150 z m 124 936 b 28 883 101 988 8 928 b 222 511 46 842 121 686 b 413 288 278 418 356 332 b 279 64 390 208 365 57 b 214 238 206 72 206 181 b 104 258 221 294 122 342 b 168 14 94 194 90 74 b 454 71 257 -56 400 -49 b 625 656 540 247 582 479 b 686 901 644 735 664 828 b 583 939 692 951 592 992 b 451 392 551 818 499 540 b 251 679 378 469 329 529 b 124 936 204 768 157 864 z "},"Z":{"ha":750,"x_min":0,"x_max":0,"o":"m 113 956 b 100 854 76 956 63 851 b 564 849 226 865 382 849 b 42 65 418 668 200 203 b 82 -22 14 11 39 -19 b 643 -22 288 -33 335 -12 b 654 76 675 -24 689 72 b 176 72 529 83 314 72 b 733 885 329 249 517 657 b 689 951 743 919 724 950 b 113 956 488 938 379 956 z "},"Ź":{"ha":750,"x_min":0,"x_max":0,"o":"m 442 1176 b 353 1078 424 1150 371 1104 b 411 1035 322 1033 382 1003 b 513 1131 435 1063 489 1103 b 442 1176 544 1168 474 1214 z m 113 956 b 100 854 76 956 63 851 b 564 849 226 865 382 849 b 42 65 418 668 200 203 b 82 -22 14 11 39 -19 b 643 -22 288 -33 335 -12 b 654 76 675 -24 689 72 b 176 72 529 83 314 72 b 733 885 329 249 517 657 b 689 951 743 919 724 950 b 113 956 488 938 379 956 z "},"Ž":{"ha":750,"x_min":0,"x_max":0,"o":"m 499 1185 b 394 1113 476 1164 419 1133 b 310 1183 360 1138 339 1161 b 257 1132 275 1211 236 1157 b 410 1042 281 1104 389 1022 b 540 1124 471 1079 513 1097 b 499 1185 579 1160 529 1214 z m 113 956 b 100 854 76 956 63 851 b 564 849 226 865 382 849 b 42 65 418 668 200 203 b 82 -22 14 11 39 -19 b 643 -22 288 -33 335 -12 b 654 76 675 -24 689 72 b 176 72 529 83 314 72 b 733 885 329 249 517 657 b 689 951 743 919 724 950 b 113 956 488 938 379 956 z "},"Ż":{"ha":750,"x_min":0,"x_max":0,"o":"m 394 1151 b 343 1094 361 1151 336 1129 b 399 1053 346 1074 375 1053 b 394 1151 500 1053 496 1149 z m 113 956 b 100 854 76 956 63 851 b 564 849 226 865 382 849 b 42 65 418 668 200 203 b 82 -22 14 11 39 -19 b 643 -22 288 -33 335 -12 b 654 76 675 -24 689 72 b 176 72 529 83 314 72 b 733 885 329 249 517 657 b 689 951 743 919 724 950 b 113 956 488 938 379 956 z "},"a":{"ha":807,"x_min":0,"x_max":0,"o":"m 460 868 b 628 390 521 701 579 478 b 714 396 656 392 681 394 b 708 292 807 396 811 301 b 669 290 696 292 682 290 b 775 65 703 203 728 153 b 668 42 821 -69 700 -39 b 554 292 619 165 583 211 b 257 286 494 293 283 286 b 138 10 204 185 174 131 b 44 61 121 -46 6 -42 b 136 286 61 124 106 217 b 117 375 36 292 38 376 l 175 375 b 346 858 232 506 288 728 b 460 868 378 939 442 935 z m 407 717 b 296 388 368 610 326 458 b 510 392 317 388 475 393 b 407 717 472 468 451 581 z "},"á":{"ha":807,"x_min":0,"x_max":0,"o":"m 449 1135 b 360 1036 431 1108 378 1063 b 418 993 329 992 389 961 b 519 1089 442 1021 496 1061 b 449 1135 551 1126 481 1172 z m 460 868 b 628 390 521 701 579 478 b 714 396 656 392 681 394 b 708 292 807 396 811 301 b 669 290 696 292 682 290 b 775 65 703 203 728 153 b 668 42 821 -69 700 -39 b 554 292 619 165 583 211 b 257 286 494 293 283 286 b 138 10 204 185 174 131 b 44 61 121 -46 6 -42 b 136 286 61 124 106 217 b 117 375 36 292 38 376 l 175 375 b 346 858 232 506 288 728 b 460 868 378 939 442 935 z m 407 717 b 296 388 368 610 326 458 b 510 392 317 388 475 393 b 407 717 472 468 451 581 z "},"ă":{"ha":807,"x_min":0,"x_max":0,"o":"m 489 1119 b 401 1074 463 1093 447 1074 b 314 1119 356 1074 340 1093 b 267 1075 281 1154 243 1111 b 401 1001 294 1033 340 1001 b 536 1075 463 1001 508 1033 b 489 1119 560 1111 522 1154 z m 460 868 b 628 390 521 701 579 478 b 714 396 656 392 681 394 b 708 292 807 396 811 301 b 669 290 696 292 682 290 b 775 65 703 203 728 153 b 668 42 821 -69 700 -39 b 554 292 619 165 583 211 b 257 286 494 293 283 286 b 138 10 204 185 174 131 b 44 61 121 -46 6 -42 b 136 286 61 124 106 217 b 117 375 36 292 38 376 l 175 375 b 346 858 232 506 288 728 b 460 868 378 939 442 935 z m 407 717 b 296 388 368 610 326 458 b 510 392 317 388 475 393 b 407 717 472 468 451 581 z "},"â":{"ha":807,"x_min":0,"x_max":0,"o":"m 424 1142 b 239 1044 403 1161 263 1071 b 288 997 204 1006 253 969 b 408 1071 317 1019 374 1046 b 517 986 433 1050 468 1026 b 554 1054 550 958 593 1025 b 424 1142 524 1076 478 1110 z m 460 868 b 628 390 521 701 579 478 b 714 396 656 392 681 394 b 708 292 807 396 811 301 b 669 290 696 292 682 290 b 775 65 703 203 728 153 b 668 42 821 -69 700 -39 b 554 292 619 165 583 211 b 257 286 494 293 283 286 b 138 10 204 185 174 131 b 44 61 121 -46 6 -42 b 136 286 61 124 106 217 b 117 375 36 292 38 376 l 175 375 b 346 858 232 506 288 728 b 460 868 378 939 442 935 z m 407 717 b 296 388 368 610 326 458 b 510 392 317 388 475 393 b 407 717 472 468 451 581 z "},"ä":{"ha":807,"x_min":0,"x_max":0,"o":"m 481 1078 b 482 989 432 1072 431 989 b 554 1051 542 989 567 1026 b 481 1078 546 1069 522 1082 z m 340 1079 b 272 1033 290 1079 271 1065 b 342 986 272 996 315 986 b 340 1079 399 986 397 1079 z m 460 868 b 628 390 521 701 579 478 b 714 396 656 392 681 394 b 708 292 807 396 811 301 b 669 290 696 292 682 290 b 775 65 703 203 728 153 b 668 42 821 -69 700 -39 b 554 292 619 165 583 211 b 257 286 494 293 283 286 b 138 10 204 185 174 131 b 44 61 121 -46 6 -42 b 136 286 61 124 106 217 b 117 375 36 292 38 376 l 175 375 b 346 858 232 506 288 728 b 460 868 378 939 442 935 z m 407 717 b 296 388 368 610 326 458 b 510 392 317 388 475 393 b 407 717 472 468 451 581 z "},"à":{"ha":807,"x_min":0,"x_max":0,"o":"m 396 1135 b 324 1089 364 1172 292 1126 b 414 993 347 1061 390 1021 b 472 1036 443 961 503 992 b 396 1135 454 1063 414 1108 z m 460 868 b 628 390 521 701 579 478 b 714 396 656 392 681 394 b 708 292 807 396 811 301 b 669 290 696 292 682 290 b 775 65 703 203 728 153 b 668 42 821 -69 700 -39 b 554 292 619 165 583 211 b 257 286 494 293 283 286 b 138 10 204 185 174 131 b 44 61 121 -46 6 -42 b 136 286 61 124 106 217 b 117 375 36 292 38 376 l 175 375 b 346 858 232 506 288 728 b 460 868 378 939 442 935 z m 407 717 b 296 388 368 610 326 458 b 510 392 317 388 475 393 b 407 717 472 468 451 581 z "},"ā":{"ha":807,"x_min":0,"x_max":0,"o":"m 503 1089 b 306 1089 451 1086 357 1086 b 307 1015 246 1092 253 1019 b 511 1015 360 1011 458 1013 b 503 1089 571 1018 558 1092 z m 460 868 b 628 390 521 701 579 478 b 714 396 656 392 681 394 b 708 292 807 396 811 301 b 669 290 696 292 682 290 b 775 65 703 203 728 153 b 668 42 821 -69 700 -39 b 554 292 619 165 583 211 b 257 286 494 293 283 286 b 138 10 204 185 174 131 b 44 61 121 -46 6 -42 b 136 286 61 124 106 217 b 117 375 36 292 38 376 l 175 375 b 346 858 232 506 288 728 b 460 868 378 939 442 935 z m 407 717 b 296 388 368 610 326 458 b 510 392 317 388 475 393 b 407 717 472 468 451 581 z "},"ą":{"ha":903,"x_min":0,"x_max":0,"o":"m 475 910 b 361 900 457 976 393 981 b 190 417 303 769 247 547 l 132 417 b 151 328 53 418 51 333 b 46 61 110 258 63 124 b 139 10 7 -42 121 -44 b 272 328 175 131 233 226 b 597 328 299 328 538 329 b 711 42 626 247 676 165 b 746 -10 718 21 731 3 b 719 -192 703 -65 690 -147 b 871 -204 757 -249 838 -246 b 838 -150 897 -172 869 -121 b 785 -144 817 -169 799 -167 b 811 -24 769 -121 781 -60 b 818 65 828 -12 835 15 b 708 326 785 153 742 239 b 747 328 721 326 735 328 b 757 438 854 338 854 438 b 671 432 724 436 699 433 b 475 910 622 519 536 743 z m 422 758 b 553 433 467 622 515 510 b 311 429 518 435 332 429 b 422 758 342 500 383 651 z "},"å":{"ha":807,"x_min":0,"x_max":0,"o":"m 431 1165 b 324 1100 389 1165 343 1144 b 381 989 303 1056 329 1003 b 469 1163 488 960 556 1108 b 431 1165 458 1172 442 1171 z m 433 1110 b 399 1046 463 1089 440 1033 b 376 1082 379 1049 368 1067 b 418 1107 383 1097 403 1107 b 433 1110 422 1110 429 1113 z m 460 868 b 628 390 521 701 579 478 b 714 396 656 392 681 394 b 708 292 807 396 811 301 b 669 290 696 292 682 290 b 775 65 703 203 728 153 b 668 42 821 -69 700 -39 b 554 292 619 165 583 211 b 257 286 494 293 283 286 b 138 10 204 185 174 131 b 44 61 121 -46 6 -42 b 136 286 61 124 106 217 b 117 375 36 292 38 376 l 175 375 b 346 858 232 506 288 728 b 460 868 378 939 442 935 z m 407 717 b 296 388 368 610 326 458 b 510 392 317 388 475 393 b 407 717 472 468 451 581 z "},"ã":{"ha":807,"x_min":0,"x_max":0,"o":"m 357 1103 b 257 1050 314 1111 265 1093 b 319 1015 247 1000 306 986 b 371 1026 329 1036 353 1035 b 479 988 394 1015 436 988 b 557 1047 517 988 551 1026 b 506 1081 567 1088 518 1099 b 451 1057 500 1072 493 1046 b 357 1103 431 1063 382 1097 z m 460 868 b 628 390 521 701 579 478 b 714 396 656 392 681 394 b 708 292 807 396 811 301 b 669 290 696 292 682 290 b 775 65 703 203 728 153 b 668 42 821 -69 700 -39 b 554 292 619 165 583 211 b 257 286 494 293 283 286 b 138 10 204 185 174 131 b 44 61 121 -46 6 -42 b 136 286 61 124 106 217 b 117 375 36 292 38 376 l 175 375 b 346 858 232 506 288 728 b 460 868 378 939 442 935 z m 407 717 b 296 388 368 610 326 458 b 510 392 317 388 475 393 b 407 717 472 468 451 581 z "},"æ":{"ha":1138,"x_min":0,"x_max":0,"o":"m 551 906 b 468 867 513 904 492 896 b 235 425 422 799 276 493 l 175 425 b 178 329 99 425 107 344 b 51 85 128 247 82 150 b 131 26 0 -7 104 -24 b 294 326 176 118 239 232 b 510 328 322 326 472 331 b 528 58 510 243 518 160 b 583 1 533 8 542 1 b 931 11 667 1 814 4 b 1043 21 974 14 1014 17 b 1061 118 1129 32 1144 111 b 624 101 1013 121 751 96 b 613 429 619 149 613 310 b 1043 444 718 429 878 414 b 1011 539 1122 488 1089 544 b 611 529 913 524 718 522 b 604 803 608 621 607 711 b 1022 801 806 821 892 797 b 1022 901 1057 804 1060 901 b 551 906 889 908 607 914 z m 500 728 b 504 428 500 674 504 483 b 354 425 481 429 382 425 b 500 728 397 499 438 615 z "},"b":{"ha":832,"x_min":0,"x_max":0,"o":"m 226 910 b 138 865 190 953 135 925 l 92 861 b 140 764 60 858 71 764 l 147 764 b 154 564 151 711 153 619 l 110 564 b 157 461 60 564 35 492 b 147 160 157 354 160 268 b 119 174 138 164 129 169 b 103 68 38 221 17 106 l 119 60 b 144 -18 110 14 113 -7 b 217 35 188 -33 207 4 b 536 22 336 11 421 -10 b 790 286 675 57 790 111 b 624 508 790 397 733 460 b 567 529 606 515 586 524 b 656 668 615 556 656 603 b 239 871 656 838 500 871 b 226 910 238 881 232 900 z m 247 769 b 549 663 314 774 549 778 b 257 567 549 569 300 567 b 247 769 254 633 253 722 z m 264 467 b 571 422 354 471 494 460 b 686 283 635 392 686 351 b 504 118 686 182 610 143 b 238 132 418 100 328 110 b 264 467 233 132 257 333 z "},"c":{"ha":776,"x_min":0,"x_max":0,"o":"m 447 901 b 139 757 354 924 208 856 b 36 376 35 608 28 472 b 225 43 43 221 111 113 b 406 -3 272 14 342 -4 b 690 201 526 0 629 82 b 597 256 717 267 631 294 b 400 104 554 175 486 106 b 258 150 347 103 294 121 b 149 410 190 206 149 278 b 238 704 149 518 174 625 b 417 794 285 758 363 803 b 610 601 499 781 565 701 b 715 649 633 563 738 601 b 611 806 694 701 660 751 b 447 901 574 847 539 878 z "},"ć":{"ha":776,"x_min":0,"x_max":0,"o":"m 446 1132 b 357 1033 428 1106 375 1060 b 415 990 326 989 386 958 b 517 1086 439 1018 493 1058 b 446 1132 549 1124 478 1169 z m 447 901 b 139 757 354 924 208 856 b 36 376 35 608 28 472 b 225 43 43 221 111 113 b 406 -3 272 14 342 -4 b 690 201 526 0 629 82 b 597 256 717 267 631 294 b 400 104 554 175 486 106 b 258 150 347 103 294 121 b 149 410 190 206 149 278 b 238 704 149 518 174 625 b 417 794 285 758 363 803 b 610 601 499 781 565 701 b 715 649 633 563 738 601 b 611 806 694 701 660 751 b 447 901 574 847 539 878 z "},"č":{"ha":776,"x_min":0,"x_max":0,"o":"m 503 1140 b 399 1068 481 1119 424 1089 b 314 1139 364 1093 343 1117 b 261 1088 279 1167 240 1113 b 414 997 285 1060 393 978 b 544 1079 475 1035 517 1053 b 503 1140 583 1115 533 1169 z m 447 901 b 139 757 354 924 208 856 b 36 376 35 608 28 472 b 225 43 43 221 111 113 b 406 -3 272 14 342 -4 b 690 201 526 0 629 82 b 597 256 717 267 631 294 b 400 104 554 175 486 106 b 258 150 347 103 294 121 b 149 410 190 206 149 278 b 238 704 149 518 174 625 b 417 794 285 758 363 803 b 610 601 499 781 565 701 b 715 649 633 563 738 601 b 611 806 694 701 660 751 b 447 901 574 847 539 878 z "},"ç":{"ha":776,"x_min":0,"x_max":0,"o":"m 417 794 b 610 601 499 781 565 701 b 715 649 633 563 738 601 b 611 806 694 701 660 751 b 447 901 574 847 539 878 b 139 757 354 924 208 856 b 36 376 35 608 28 472 b 225 43 43 221 111 113 b 353 0 260 22 306 7 l 335 -76 b 367 -108 328 -108 336 -115 b 397 -169 419 -106 422 -150 b 343 -160 379 -183 358 -179 b 296 -187 322 -132 286 -157 b 442 -217 311 -233 397 -250 b 479 -129 468 -197 483 -160 b 399 -58 475 -93 451 -56 b 413 -3 404 -43 410 -19 b 690 201 531 3 631 85 b 597 256 717 267 631 294 b 400 104 554 175 486 106 b 258 150 347 103 294 121 b 149 410 190 206 149 278 b 238 704 149 518 174 625 b 417 794 285 758 363 803 z "},"ċ":{"ha":776,"x_min":0,"x_max":0,"o":"m 399 1107 b 347 1050 365 1107 340 1085 b 403 1008 350 1029 379 1008 b 399 1107 504 1008 500 1104 z m 447 901 b 139 757 354 924 208 856 b 36 376 35 608 28 472 b 225 43 43 221 111 113 b 406 -3 272 14 342 -4 b 690 201 526 0 629 82 b 597 256 717 267 631 294 b 400 104 554 175 486 106 b 258 150 347 103 294 121 b 149 410 190 206 149 278 b 238 704 149 518 174 625 b 417 794 285 758 363 803 b 610 601 499 781 565 701 b 715 649 633 563 738 601 b 611 806 694 701 660 751 b 447 901 574 847 539 878 z "},"d":{"ha":858,"x_min":0,"x_max":0,"o":"m 28 863 b 76 769 -24 843 14 742 b 85 772 72 768 78 771 b 89 82 113 554 101 319 b 153 13 86 53 108 13 b 572 94 269 -3 428 21 b 817 488 728 179 819 297 b 603 851 815 606 751 782 b 28 863 429 918 225 928 z m 189 797 b 469 788 275 808 371 810 b 710 475 625 751 710 619 b 436 150 710 319 603 206 b 200 113 324 118 296 113 b 189 797 211 292 214 617 z "},"ð":{"ha":882,"x_min":0,"x_max":0,"o":"m 50 846 b 85 749 4 831 10 736 b 108 756 68 747 100 754 b 125 519 117 679 122 600 b 63 521 103 519 75 521 b 82 426 7 521 25 433 l 125 425 b 113 82 125 310 119 204 b 175 13 114 54 135 14 b 596 94 296 -3 454 22 b 840 488 751 179 843 297 b 625 835 839 606 774 765 b 50 846 449 904 242 910 z m 213 781 b 493 771 299 792 393 793 b 732 475 649 735 732 619 b 460 150 732 319 625 206 b 222 113 347 118 318 113 b 232 425 228 219 232 306 b 353 426 271 425 322 425 b 347 521 407 433 410 524 b 231 518 318 518 269 518 b 213 781 228 610 222 700 z "},"ď":{"ha":924,"x_min":0,"x_max":0,"o":"m 789 774 b 865 771 788 731 857 740 b 889 875 879 828 883 864 b 808 876 890 908 810 908 z m 28 846 b 76 753 -24 826 14 725 b 85 756 72 751 78 754 b 89 82 113 538 101 319 b 153 13 86 53 108 13 b 572 94 269 -3 428 21 b 817 488 728 179 819 297 b 603 835 815 606 751 765 b 28 846 429 901 225 911 z m 189 781 b 469 771 275 792 371 793 b 710 475 625 735 710 619 b 436 150 710 319 603 206 b 200 113 324 118 296 113 b 189 781 211 292 214 600 z "},"đ":{"ha":882,"x_min":0,"x_max":0,"o":"m 50 846 b 85 749 4 831 10 736 b 108 756 68 747 100 754 b 125 519 117 679 122 600 b 63 521 103 519 75 521 b 82 426 7 521 25 433 l 125 425 b 113 82 125 310 119 204 b 175 13 114 54 135 14 b 596 94 296 -3 454 22 b 840 488 751 179 843 297 b 625 835 839 606 774 765 b 50 846 449 904 242 910 z m 213 781 b 493 771 299 792 393 793 b 732 475 649 735 732 619 b 460 150 732 319 625 206 b 222 113 347 118 318 113 b 232 425 228 219 232 306 b 353 426 271 425 322 425 b 347 521 407 433 410 524 b 231 518 318 518 269 518 b 213 781 228 610 222 700 z "},"e":{"ha":822,"x_min":0,"x_max":0,"o":"m 692 896 b 128 896 571 901 188 904 b 67 889 110 894 89 892 b 79 786 7 872 3 783 l 103 790 b 113 374 103 769 108 528 b 118 203 113 358 119 258 b 133 10 118 124 117 76 b 178 -29 135 -11 171 -29 b 553 -14 425 -29 471 -19 b 717 -8 592 -11 638 -8 b 738 96 814 -8 836 88 b 233 75 693 96 379 68 b 222 392 229 107 222 374 b 717 408 324 392 543 376 b 682 506 799 451 763 511 b 221 496 565 492 343 488 b 211 796 219 572 213 767 b 692 792 269 800 621 792 b 692 896 767 797 768 899 z "},"é":{"ha":822,"x_min":0,"x_max":0,"o":"m 457 1139 b 368 1040 439 1113 386 1067 b 426 997 338 996 397 965 b 528 1093 450 1025 504 1065 b 457 1139 560 1131 489 1176 z m 692 896 b 128 896 571 901 188 904 b 67 889 110 894 89 892 b 79 786 7 872 3 783 l 103 790 b 113 374 103 769 108 528 b 118 203 113 358 119 258 b 133 10 118 124 117 76 b 178 -29 135 -11 171 -29 b 553 -14 425 -29 471 -19 b 717 -8 592 -11 638 -8 b 738 96 814 -8 836 88 b 233 75 693 96 379 68 b 222 392 229 107 222 374 b 717 408 324 392 543 376 b 682 506 799 451 763 511 b 221 496 565 492 343 488 b 211 796 219 572 213 767 b 692 792 269 800 621 792 b 692 896 767 797 768 899 z "},"ě":{"ha":822,"x_min":0,"x_max":0,"o":"m 514 1147 b 410 1075 492 1126 435 1096 b 325 1146 375 1100 354 1124 b 272 1094 290 1174 251 1119 b 425 1004 296 1067 404 985 b 556 1086 486 1042 528 1060 b 514 1147 594 1122 544 1176 z m 692 896 b 128 896 571 901 188 904 b 67 889 110 894 89 892 b 79 786 7 872 3 783 l 103 790 b 113 374 103 769 108 528 b 118 203 113 358 119 258 b 133 10 118 124 117 76 b 178 -29 135 -11 171 -29 b 553 -14 425 -29 471 -19 b 717 -8 592 -11 638 -8 b 738 96 814 -8 836 88 b 233 75 693 96 379 68 b 222 392 229 107 222 374 b 717 408 324 392 543 376 b 682 506 799 451 763 511 b 221 496 565 492 343 488 b 211 796 219 572 213 767 b 692 792 269 800 621 792 b 692 896 767 797 768 899 z "},"ê":{"ha":822,"x_min":0,"x_max":0,"o":"m 432 1146 b 247 1049 411 1165 271 1075 b 296 1001 213 1010 261 974 b 417 1075 325 1024 382 1050 b 525 990 442 1054 476 1031 b 563 1058 558 963 601 1029 b 432 1146 532 1081 486 1114 z m 692 896 b 128 896 571 901 188 904 b 67 889 110 894 89 892 b 79 786 7 872 3 783 l 103 790 b 113 374 103 769 108 528 b 118 203 113 358 119 258 b 133 10 118 124 117 76 b 178 -29 135 -11 171 -29 b 553 -14 425 -29 471 -19 b 717 -8 592 -11 638 -8 b 738 96 814 -8 836 88 b 233 75 693 96 379 68 b 222 392 229 107 222 374 b 717 408 324 392 543 376 b 682 506 799 451 763 511 b 221 496 565 492 343 488 b 211 796 219 572 213 767 b 692 792 269 800 621 792 b 692 896 767 797 768 899 z "},"ë":{"ha":822,"x_min":0,"x_max":0,"o":"m 489 1082 b 490 993 440 1076 439 993 b 563 1056 550 993 575 1031 b 489 1082 554 1074 531 1086 z m 349 1083 b 281 1038 299 1083 279 1069 b 350 990 281 1000 324 990 b 349 1083 407 990 406 1083 z m 692 896 b 128 896 571 901 188 904 b 67 889 110 894 89 892 b 79 786 7 872 3 783 l 103 790 b 113 374 103 769 108 528 b 118 203 113 358 119 258 b 133 10 118 124 117 76 b 178 -29 135 -11 171 -29 b 553 -14 425 -29 471 -19 b 717 -8 592 -11 638 -8 b 738 96 814 -8 836 88 b 233 75 693 96 379 68 b 222 392 229 107 222 374 b 717 408 324 392 543 376 b 682 506 799 451 763 511 b 221 496 565 492 343 488 b 211 796 219 572 213 767 b 692 792 269 800 621 792 b 692 896 767 797 768 899 z "},"ė":{"ha":822,"x_min":0,"x_max":0,"o":"m 410 1114 b 358 1057 376 1114 351 1092 b 414 1015 361 1036 390 1015 b 410 1114 515 1015 511 1111 z m 692 896 b 128 896 571 901 188 904 b 67 889 110 894 89 892 b 79 786 7 872 3 783 l 103 790 b 113 374 103 769 108 528 b 118 203 113 358 119 258 b 133 10 118 124 117 76 b 178 -29 135 -11 171 -29 b 553 -14 425 -29 471 -19 b 717 -8 592 -11 638 -8 b 738 96 814 -8 836 88 b 233 75 693 96 379 68 b 222 392 229 107 222 374 b 717 408 324 392 543 376 b 682 506 799 451 763 511 b 221 496 565 492 343 488 b 211 796 219 572 213 767 b 692 792 269 800 621 792 b 692 896 767 797 768 899 z "},"è":{"ha":822,"x_min":0,"x_max":0,"o":"m 404 1139 b 332 1093 372 1176 300 1131 b 422 997 356 1065 399 1025 b 481 1040 451 965 511 996 b 404 1139 463 1067 422 1113 z m 692 896 b 128 896 571 901 188 904 b 67 889 110 894 89 892 b 79 786 7 872 3 783 l 103 790 b 113 374 103 769 108 528 b 118 203 113 358 119 258 b 133 10 118 124 117 76 b 178 -29 135 -11 171 -29 b 553 -14 425 -29 471 -19 b 717 -8 592 -11 638 -8 b 738 96 814 -8 836 88 b 233 75 693 96 379 68 b 222 392 229 107 222 374 b 717 408 324 392 543 376 b 682 506 799 451 763 511 b 221 496 565 492 343 488 b 211 796 219 572 213 767 b 692 792 269 800 621 792 b 692 896 767 797 768 899 z "},"ē":{"ha":822,"x_min":0,"x_max":0,"o":"m 511 1093 b 314 1093 460 1090 365 1090 b 315 1019 254 1096 261 1024 b 519 1019 368 1015 467 1017 b 511 1093 579 1022 567 1096 z m 692 896 b 128 896 571 901 188 904 b 67 889 110 894 89 892 b 79 786 7 872 3 783 l 103 790 b 113 374 103 769 108 528 b 118 203 113 358 119 258 b 133 10 118 124 117 76 b 178 -29 135 -11 171 -29 b 553 -14 425 -29 471 -19 b 717 -8 592 -11 638 -8 b 738 96 814 -8 836 88 b 233 75 693 96 379 68 b 222 392 229 107 222 374 b 717 408 324 392 543 376 b 682 506 799 451 763 511 b 221 496 565 492 343 488 b 211 796 219 572 213 767 b 692 792 269 800 621 792 b 692 896 767 797 768 899 z "},"ę":{"ha":853,"x_min":0,"x_max":0,"o":"m 788 -147 b 735 -142 767 -167 749 -164 b 761 -21 719 -118 731 -57 b 776 8 771 -10 775 0 b 738 96 817 36 810 90 b 233 75 693 96 379 68 b 222 392 229 107 222 374 b 717 408 324 392 543 376 b 682 506 799 451 763 511 b 221 496 565 492 343 488 b 211 796 219 572 213 767 b 692 792 269 800 621 792 b 692 896 767 797 768 899 b 128 896 571 901 188 904 b 67 889 110 894 89 892 b 79 786 7 872 3 783 l 103 790 b 113 374 103 769 108 528 b 118 203 113 358 119 258 b 133 10 118 124 117 76 b 178 -29 135 -11 171 -29 b 553 -14 425 -29 471 -19 b 694 -8 588 -11 628 -8 b 669 -189 653 -65 640 -144 b 821 -201 707 -246 788 -243 b 788 -147 847 -169 819 -118 z "},"f":{"ha":765,"x_min":0,"x_max":0,"o":"m 131 900 b 49 888 99 901 64 896 b 76 797 -7 858 10 792 l 113 800 b 119 483 110 774 119 517 b 125 53 121 417 125 89 b 226 46 125 0 219 -31 b 229 374 226 90 229 294 b 651 379 318 374 521 353 b 624 478 718 400 717 490 b 229 478 525 454 342 478 b 203 810 229 490 203 810 b 597 817 247 810 565 817 b 675 747 625 779 626 747 b 725 833 707 747 731 788 b 131 900 711 953 251 900 z "},"g":{"ha":821,"x_min":0,"x_max":0,"o":"m 376 901 b 138 778 279 899 203 849 b 40 369 25 650 31 483 b 613 28 89 10 336 -87 b 769 308 729 81 769 169 b 771 443 769 351 771 375 b 701 503 775 490 731 506 b 450 497 657 499 485 497 b 463 397 399 497 408 397 b 668 397 488 397 614 396 b 665 272 669 378 665 292 b 565 118 665 192 617 143 b 149 361 369 35 185 89 b 210 700 133 471 124 592 b 378 796 247 747 300 793 b 653 672 442 803 629 796 b 754 681 663 618 756 650 b 376 901 746 858 556 908 z "},"ğ":{"ha":821,"x_min":0,"x_max":0,"o":"m 490 1124 b 403 1078 464 1097 449 1078 b 315 1124 357 1078 342 1097 b 268 1079 282 1158 244 1115 b 403 1006 296 1038 342 1006 b 538 1079 464 1006 510 1038 b 490 1124 561 1115 524 1158 z m 376 901 b 138 778 279 899 203 849 b 40 369 25 650 31 483 b 613 28 89 10 336 -87 b 769 308 729 81 769 169 b 771 443 769 351 771 375 b 701 503 775 490 731 506 b 450 497 657 499 485 497 b 463 397 399 497 408 397 b 668 397 488 397 614 396 b 665 272 669 378 665 292 b 565 118 665 192 617 143 b 149 361 369 35 185 89 b 210 700 133 471 124 592 b 378 796 247 747 300 793 b 653 672 442 803 629 796 b 754 681 663 618 756 650 b 376 901 746 858 556 908 z "},"ģ":{"ha":821,"x_min":0,"x_max":0,"o":"m 524 1117 b 425 1128 538 1163 444 1174 b 393 1015 418 1107 401 1047 b 483 1010 378 946 456 961 b 524 1117 504 1050 510 1069 z m 376 901 b 138 778 279 899 203 849 b 40 369 25 650 31 483 b 613 28 89 10 336 -87 b 769 308 729 81 769 169 b 771 443 769 351 771 375 b 701 503 775 490 731 506 b 450 497 657 499 485 497 b 463 397 399 497 408 397 b 668 397 488 397 614 396 b 665 272 669 378 665 292 b 565 118 665 192 617 143 b 149 361 369 35 185 89 b 210 700 133 471 124 592 b 378 796 247 747 300 793 b 653 672 442 803 629 796 b 754 681 663 618 756 650 b 376 901 746 858 556 908 z "},"ġ":{"ha":821,"x_min":0,"x_max":0,"o":"m 403 1114 b 351 1057 369 1114 344 1092 b 407 1015 354 1036 383 1015 b 403 1114 508 1015 504 1111 z m 376 901 b 138 778 279 899 203 849 b 40 369 25 650 31 483 b 613 28 89 10 336 -87 b 769 308 729 81 769 169 b 771 443 769 351 771 375 b 701 503 775 490 731 506 b 450 497 657 499 485 497 b 463 397 399 497 408 397 b 668 397 488 397 614 396 b 665 272 669 378 665 292 b 565 118 665 192 617 143 b 149 361 369 35 185 89 b 210 700 133 471 124 592 b 378 796 247 747 300 793 b 653 672 442 803 629 796 b 754 681 663 618 756 650 b 376 901 746 858 556 908 z "},"h":{"ha":826,"x_min":0,"x_max":0,"o":"m 686 868 b 581 861 686 938 581 924 b 592 482 581 726 576 638 b 232 494 539 485 303 492 b 221 853 226 613 224 731 b 110 843 218 917 124 924 b 121 497 115 683 117 578 b 71 497 107 499 92 500 b 83 401 21 478 14 401 b 126 399 100 401 114 400 b 139 233 131 339 133 293 b 139 22 142 196 139 61 b 247 32 139 -35 247 -15 b 244 229 247 89 247 122 l 239 390 b 599 382 328 385 533 386 b 629 49 603 332 625 115 b 735 58 635 -24 740 -15 b 707 374 731 125 710 329 b 756 371 721 371 731 369 b 757 471 783 372 796 471 b 697 474 732 471 721 469 b 686 868 690 571 686 690 z "},"ħ":{"ha":1060,"x_min":0,"x_max":0,"o":"m 840 849 b 735 844 840 889 738 876 b 733 731 733 819 733 794 b 286 735 690 731 354 738 b 285 836 286 769 286 799 b 178 826 281 875 178 858 b 179 738 178 799 179 753 l 106 740 b 89 651 72 740 46 654 l 182 647 b 192 424 183 589 192 497 b 204 43 192 251 204 226 b 308 50 204 4 308 19 b 306 351 308 94 313 232 b 761 354 446 339 649 354 b 779 78 771 269 776 161 b 883 85 781 40 882 53 b 843 642 856 456 847 539 b 924 647 876 643 890 646 b 926 735 963 647 974 736 b 840 729 896 733 886 731 b 840 849 838 774 840 803 z m 738 640 b 751 454 742 575 743 526 b 294 453 521 449 397 447 b 286 644 289 553 286 599 z "},"i":{"ha":578,"x_min":0,"x_max":0,"o":"m 421 913 b 76 903 163 913 268 911 b 72 806 40 900 14 806 b 208 814 168 813 176 814 b 219 425 214 621 215 518 b 226 106 226 304 229 158 b 97 106 193 106 139 108 b 93 4 60 104 53 0 b 497 4 283 11 424 -6 b 507 104 549 11 556 107 b 335 104 457 97 385 100 b 326 426 335 253 333 321 b 319 821 319 522 319 628 b 422 808 365 821 404 835 b 514 835 453 764 514 778 b 421 913 513 888 471 913 z "},"ı":{"ha":578,"x_min":0,"x_max":0,"o":"m 421 911 b 76 901 163 911 268 910 b 72 804 40 899 14 804 b 208 813 168 811 176 813 b 219 425 214 619 215 518 b 226 106 226 304 229 158 b 97 106 193 106 139 108 b 93 4 60 104 53 0 b 497 4 283 11 424 -6 b 507 104 549 11 556 107 b 335 104 457 97 385 100 b 326 426 335 253 333 321 b 319 819 319 522 319 626 b 422 807 365 819 404 833 b 514 833 453 763 514 776 b 421 911 513 886 471 911 z "},"í":{"ha":578,"x_min":0,"x_max":0,"o":"m 297 1135 b 208 1036 279 1108 226 1063 b 267 993 178 992 238 961 b 368 1089 290 1021 344 1061 b 297 1135 400 1126 329 1172 z m 421 911 b 76 901 163 911 268 910 b 72 804 40 899 14 804 b 208 813 168 811 176 813 b 219 425 214 619 215 518 b 226 106 226 304 229 158 b 97 106 193 106 139 108 b 93 4 60 104 53 0 b 497 4 283 11 424 -6 b 507 104 549 11 556 107 b 335 104 457 97 385 100 b 326 426 335 253 333 321 b 319 819 319 522 319 626 b 422 807 365 819 404 833 b 514 833 453 763 514 776 b 421 911 513 886 471 911 z "},"î":{"ha":578,"x_min":0,"x_max":0,"o":"m 272 1142 b 88 1044 251 1161 111 1071 b 136 997 53 1006 101 969 b 257 1071 165 1019 222 1046 b 365 986 282 1050 317 1026 b 403 1054 399 958 442 1025 b 272 1142 372 1076 326 1110 z m 421 911 b 76 901 163 911 268 910 b 72 804 40 899 14 804 b 208 813 168 811 176 813 b 219 425 214 619 215 518 b 226 106 226 304 229 158 b 97 106 193 106 139 108 b 93 4 60 104 53 0 b 497 4 283 11 424 -6 b 507 104 549 11 556 107 b 335 104 457 97 385 100 b 326 426 335 253 333 321 b 319 819 319 522 319 626 b 422 807 365 819 404 833 b 514 833 453 763 514 776 b 421 911 513 886 471 911 z "},"ï":{"ha":578,"x_min":0,"x_max":0,"o":"m 329 1078 b 331 989 281 1072 279 989 b 403 1051 390 989 415 1026 b 329 1078 394 1069 371 1082 z m 189 1079 b 121 1033 139 1079 119 1065 b 190 986 121 996 164 986 b 189 1079 247 986 246 1079 z m 421 911 b 76 901 163 911 268 910 b 72 804 40 899 14 804 b 208 813 168 811 176 813 b 219 425 214 619 215 518 b 226 106 226 304 229 158 b 97 106 193 106 139 108 b 93 4 60 104 53 0 b 497 4 283 11 424 -6 b 507 104 549 11 556 107 b 335 104 457 97 385 100 b 326 426 335 253 333 321 b 319 819 319 522 319 626 b 422 807 365 819 404 833 b 514 833 453 763 514 776 b 421 911 513 886 471 911 z "},"ì":{"ha":578,"x_min":0,"x_max":0,"o":"m 244 1135 b 172 1089 213 1172 140 1126 b 263 993 196 1061 239 1021 b 321 1036 292 961 351 992 b 244 1135 303 1063 263 1108 z m 421 911 b 76 901 163 911 268 910 b 72 804 40 899 14 804 b 208 813 168 811 176 813 b 219 425 214 619 215 518 b 226 106 226 304 229 158 b 97 106 193 106 139 108 b 93 4 60 104 53 0 b 497 4 283 11 424 -6 b 507 104 549 11 556 107 b 335 104 457 97 385 100 b 326 426 335 253 333 321 b 319 819 319 522 319 626 b 422 807 365 819 404 833 b 514 833 453 763 514 776 b 421 911 513 886 471 911 z "},"ĳ":{"ha":1161,"x_min":0,"x_max":0,"o":"m 421 913 b 76 903 163 913 268 911 b 72 806 40 900 14 806 b 208 814 168 813 176 814 b 219 425 214 621 215 518 b 226 106 226 304 229 158 b 97 106 193 106 139 108 b 93 4 60 104 53 0 b 497 4 283 11 424 -6 b 507 104 549 11 556 107 b 335 104 457 97 385 100 b 326 426 335 253 333 321 b 319 821 319 522 319 628 b 422 808 365 821 404 835 b 514 835 453 764 514 778 b 421 913 513 888 471 913 z m 1044 894 b 689 886 1024 894 775 876 b 686 788 635 892 631 792 b 985 792 826 774 908 800 b 992 649 986 729 988 711 b 996 526 992 635 996 553 b 947 175 996 453 1029 281 b 800 106 903 114 846 103 b 656 319 678 119 664 196 b 549 322 654 354 547 357 b 796 0 558 118 581 29 b 1049 133 947 7 982 44 b 1104 404 1101 213 1111 322 b 1088 818 1099 521 1090 686 b 1044 894 1104 846 1094 889 z "},"ī":{"ha":578,"x_min":0,"x_max":0,"o":"m 351 1089 b 154 1089 300 1086 206 1086 b 156 1015 94 1092 101 1019 b 360 1015 208 1011 307 1013 b 351 1089 419 1018 407 1092 z m 421 911 b 76 901 163 911 268 910 b 72 804 40 899 14 804 b 208 813 168 811 176 813 b 219 425 214 619 215 518 b 226 106 226 304 229 158 b 97 106 193 106 139 108 b 93 4 60 104 53 0 b 497 4 283 11 424 -6 b 507 104 549 11 556 107 b 335 104 457 97 385 100 b 326 426 335 253 333 321 b 319 819 319 522 319 626 b 422 807 365 819 404 833 b 514 833 453 763 514 776 b 421 911 513 886 471 911 z "},"į":{"ha":607,"x_min":0,"x_max":0,"o":"m 525 -149 b 472 -143 504 -168 486 -165 b 499 -22 457 -119 468 -58 b 515 11 510 -10 514 1 b 507 104 550 35 549 107 b 335 104 457 97 385 100 b 326 426 335 253 333 321 b 319 819 319 522 319 626 b 422 807 365 819 404 833 b 514 833 453 763 514 776 b 421 911 513 886 471 911 b 76 901 163 911 268 910 b 72 804 40 899 14 804 b 208 813 168 811 176 813 b 219 425 214 619 215 518 b 226 106 226 304 229 158 b 97 106 193 106 139 108 b 93 4 60 104 53 0 b 440 1 242 10 360 0 b 407 -190 392 -56 376 -143 b 558 -203 444 -247 525 -244 b 525 -149 585 -171 557 -119 z "},"j":{"ha":656,"x_min":0,"x_max":0,"o":"m 539 894 b 183 886 518 894 269 876 b 181 788 129 892 125 792 b 479 792 321 774 403 800 b 486 649 481 729 482 711 b 490 526 486 635 490 553 b 442 175 490 453 524 281 b 294 106 397 114 340 103 b 150 319 172 119 158 196 b 43 322 149 354 42 357 b 290 0 53 118 75 29 b 543 133 442 7 476 44 b 599 404 596 213 606 322 b 582 818 593 521 585 686 b 539 894 599 846 589 889 z "},"k":{"ha":686,"x_min":0,"x_max":0,"o":"m 147 869 b 43 836 139 939 46 890 b 60 44 86 568 60 232 b 165 54 60 -32 165 7 b 172 378 165 118 172 297 b 283 401 217 386 250 390 b 551 26 340 308 513 146 b 644 74 568 -25 668 4 b 382 443 569 235 460 315 b 461 497 414 461 439 479 b 621 860 550 569 589 683 b 511 860 633 929 519 904 b 369 546 486 729 442 596 b 174 474 310 504 239 483 b 147 869 176 544 165 721 z "},"ķ":{"ha":686,"x_min":0,"x_max":0,"o":"m 147 869 b 43 836 139 939 46 890 b 60 44 86 568 60 232 b 165 54 60 -32 165 7 b 172 378 165 118 172 297 b 283 401 217 386 250 390 b 551 26 340 308 513 146 b 644 74 568 -25 668 4 b 382 443 569 235 460 315 b 461 497 414 461 439 479 b 621 860 550 569 589 683 b 511 860 633 929 519 904 b 369 546 486 729 442 596 b 174 474 310 504 239 483 b 147 869 176 544 165 721 z m 351 -153 b 269 -151 363 -90 275 -86 b 254 -254 267 -182 261 -210 b 324 -279 240 -337 306 -346 b 351 -153 336 -233 342 -210 z "},"l":{"ha":664,"x_min":0,"x_max":0,"o":"m 142 856 b 36 854 142 928 36 928 b 67 65 31 479 81 368 b 124 -4 65 39 65 -8 b 585 -4 257 13 554 -4 b 649 44 607 -4 640 14 b 650 207 654 83 647 178 b 549 204 649 276 557 251 b 557 89 543 174 557 89 b 176 96 524 86 329 113 b 142 856 190 374 136 481 z "},"ĺ":{"ha":668,"x_min":0,"x_max":0,"o":"m 133 1138 b 44 1039 115 1111 63 1065 b 103 996 14 994 74 964 b 204 1092 126 1024 181 1064 b 133 1138 236 1129 165 1175 z m 146 856 b 40 854 146 928 40 928 b 71 65 35 479 85 368 b 128 -4 69 39 69 -8 b 589 -4 261 13 558 -4 b 653 44 611 -4 644 14 b 654 207 658 83 651 178 b 553 204 653 276 561 251 b 561 89 547 174 561 89 b 181 96 528 86 333 113 b 146 856 194 374 140 481 z "},"ľ":{"ha":664,"x_min":0,"x_max":0,"o":"m 142 856 b 36 854 142 928 36 928 b 67 65 31 479 81 368 b 124 -4 65 39 65 -8 b 585 -4 257 13 554 -4 b 649 44 607 -4 640 14 b 650 207 654 83 647 178 b 549 204 649 276 557 251 b 557 89 543 174 557 89 b 176 96 524 86 329 113 b 142 856 190 374 136 481 z m 585 874 b 494 879 596 918 507 918 b 472 761 492 872 475 786 b 546 758 471 731 538 735 b 585 874 554 789 576 843 z "},"ļ":{"ha":664,"x_min":0,"x_max":0,"o":"m 142 856 b 36 854 142 928 36 928 b 67 65 31 479 81 368 b 124 -4 65 39 65 -8 b 585 -4 257 13 554 -4 b 649 44 607 -4 640 14 b 650 207 654 83 647 178 b 549 204 649 276 557 251 b 557 89 543 174 557 89 b 176 96 524 86 329 113 b 142 856 190 374 136 481 z m 381 -128 b 299 -126 392 -65 304 -61 b 283 -229 296 -157 290 -185 b 353 -254 269 -312 335 -321 b 381 -128 365 -208 371 -185 z "},"ŀ":{"ha":664,"x_min":0,"x_max":0,"o":"m 142 856 b 36 854 142 928 36 928 b 67 65 31 479 81 368 b 124 -4 65 39 65 -8 b 585 -4 257 13 554 -4 b 649 44 607 -4 640 14 b 650 207 654 83 647 178 b 549 204 649 276 557 251 b 557 89 543 174 557 89 b 176 96 524 86 329 113 b 142 856 190 374 136 481 z m 363 551 b 356 422 292 557 286 428 b 418 475 382 422 418 440 b 363 551 419 508 410 550 z "},"ł":{"ha":768,"x_min":0,"x_max":0,"o":"m 182 850 b 78 849 182 928 78 925 b 99 481 78 708 86 646 b 21 440 76 471 36 450 b 71 369 -21 410 38 343 b 107 390 92 379 101 388 b 111 71 111 269 117 175 b 164 -1 111 43 124 -1 b 685 -1 301 17 656 -1 b 750 43 710 -1 742 15 b 754 222 761 104 750 179 b 660 219 758 256 667 250 b 663 89 651 157 663 89 b 219 103 625 86 333 107 b 208 426 222 153 215 321 b 325 494 247 444 296 475 b 290 582 363 519 346 604 b 200 529 271 572 225 542 b 182 850 190 653 181 731 z "},"m":{"ha":1121,"x_min":0,"x_max":0,"o":"m 363 861 b 254 846 347 922 275 908 b 43 71 160 614 153 308 b 144 40 21 -8 114 -26 b 311 681 208 175 299 613 b 375 435 326 629 349 551 b 493 83 400 321 449 196 b 594 47 519 19 550 -26 b 722 343 639 128 681 228 b 817 653 735 383 754 464 b 861 406 831 574 847 454 b 990 17 885 317 950 93 b 1092 71 1013 -39 1117 -1 b 963 433 1054 140 985 343 b 889 858 913 643 919 714 b 786 865 882 908 810 910 b 644 457 744 776 703 661 b 554 210 621 376 590 297 b 474 465 521 300 482 400 b 363 861 457 594 385 789 z "},"n":{"ha":793,"x_min":0,"x_max":0,"o":"m 149 893 b 64 868 117 919 65 914 b 58 53 43 550 88 392 b 164 33 54 6 140 -35 b 158 710 185 282 158 486 b 325 444 240 589 301 479 b 647 10 433 283 565 117 b 735 50 681 -21 733 -3 b 726 383 729 124 732 307 b 706 846 724 418 719 549 b 600 856 703 915 594 931 l 621 376 b 640 186 625 324 638 243 b 388 531 586 257 450 422 b 149 893 349 582 228 797 z "},"ń":{"ha":793,"x_min":0,"x_max":0,"o":"m 431 1079 b 342 981 413 1053 360 1007 b 400 938 311 936 371 906 b 501 1033 424 965 478 1006 b 431 1079 533 1071 463 1117 z m 149 893 b 64 868 117 919 65 914 b 58 53 43 550 88 392 b 164 33 54 6 140 -35 b 158 710 185 282 158 486 b 325 444 240 589 301 479 b 647 10 433 283 565 117 b 735 50 681 -21 733 -3 b 726 383 729 124 732 307 b 706 846 724 418 719 549 b 600 856 703 915 594 931 l 621 376 b 640 186 625 324 638 243 b 388 531 586 257 450 422 b 149 893 349 582 228 797 z "},"ň":{"ha":793,"x_min":0,"x_max":0,"o":"m 488 1088 b 383 1015 465 1067 408 1036 b 299 1086 349 1040 328 1064 b 246 1035 264 1114 225 1060 b 399 944 269 1007 378 925 b 529 1026 460 982 501 1000 b 488 1088 568 1063 518 1117 z m 149 893 b 64 868 117 919 65 914 b 58 53 43 550 88 392 b 164 33 54 6 140 -35 b 158 710 185 282 158 486 b 325 444 240 589 301 479 b 647 10 433 283 565 117 b 735 50 681 -21 733 -3 b 726 383 729 124 732 307 b 706 846 724 418 719 549 b 600 856 703 915 594 931 l 621 376 b 640 186 625 324 638 243 b 388 531 586 257 450 422 b 149 893 349 582 228 797 z "},"ņ":{"ha":793,"x_min":0,"x_max":0,"o":"m 149 893 b 64 868 117 919 65 914 b 58 53 43 550 88 392 b 164 33 54 6 140 -35 b 158 710 185 282 158 486 b 325 444 240 589 301 479 b 647 10 433 283 565 117 b 735 50 681 -21 733 -3 b 726 383 729 124 732 307 b 706 846 724 418 719 549 b 600 856 703 915 594 931 l 621 376 b 640 186 625 324 638 243 b 388 531 586 257 450 422 b 149 893 349 582 228 797 z m 443 -128 b 361 -126 454 -65 367 -61 b 346 -229 358 -157 353 -185 b 415 -254 332 -312 397 -321 b 443 -128 428 -208 433 -185 z "},"ŋ":{"ha":797,"x_min":0,"x_max":0,"o":"m 149 886 b 64 861 117 913 65 907 b 58 53 47 621 83 331 b 164 33 54 8 147 -31 b 158 703 182 249 158 518 b 286 481 233 572 257 526 b 631 32 383 328 504 182 b 454 -337 631 -200 596 -339 b 329 -126 326 -336 329 -174 b 221 -122 329 -74 222 -68 b 449 -443 232 -296 268 -443 b 742 53 699 -443 742 -194 b 728 383 740 174 731 293 b 706 832 725 499 719 621 b 600 842 704 879 596 904 b 621 404 603 783 614 499 b 643 172 625 349 640 229 b 378 526 565 263 450 419 b 149 886 314 622 214 808 z "},"ñ":{"ha":793,"x_min":0,"x_max":0,"o":"m 339 1047 b 239 994 296 1056 247 1038 b 301 960 229 944 288 931 b 353 971 311 981 335 979 b 461 932 376 960 418 932 b 539 992 499 932 533 971 b 488 1025 549 1032 500 1043 b 433 1001 482 1017 475 990 b 339 1047 413 1007 364 1042 z m 149 893 b 64 868 117 919 65 914 b 58 53 43 550 88 392 b 164 33 54 6 140 -35 b 158 710 185 282 158 486 b 325 444 240 589 301 479 b 647 10 433 283 565 117 b 735 50 681 -21 733 -3 b 726 383 729 124 732 307 b 706 846 724 418 719 549 b 600 856 703 915 594 931 l 621 376 b 640 186 625 324 638 243 b 388 531 586 257 450 422 b 149 893 349 582 228 797 z "},"o":{"ha":781,"x_min":0,"x_max":0,"o":"m 431 906 b 325 885 396 917 338 922 b 133 751 267 861 190 832 b 36 375 35 611 28 485 b 236 36 44 235 122 106 b 567 50 332 -24 475 -29 b 747 399 681 149 747 300 b 431 906 747 664 654 821 z m 406 810 b 639 469 518 775 618 658 b 515 135 656 367 621 242 b 265 131 451 72 332 74 b 140 407 196 188 140 288 b 222 701 140 518 158 621 b 406 810 271 757 346 799 z "},"ó":{"ha":781,"x_min":0,"x_max":0,"o":"m 439 1126 b 350 1028 421 1100 368 1054 b 408 985 319 983 379 953 b 510 1081 432 1013 486 1053 b 439 1126 542 1118 471 1164 z m 431 906 b 325 885 396 917 338 922 b 133 751 267 861 190 832 b 36 375 35 611 28 485 b 236 36 44 235 122 106 b 567 50 332 -24 475 -29 b 747 399 681 149 747 300 b 431 906 747 664 654 821 z m 406 810 b 639 469 518 775 618 658 b 515 135 656 367 621 242 b 265 131 451 72 332 74 b 140 407 196 188 140 288 b 222 701 140 518 158 621 b 406 810 271 757 346 799 z "},"ô":{"ha":781,"x_min":0,"x_max":0,"o":"m 414 1133 b 229 1036 393 1153 253 1063 b 278 989 194 997 243 961 b 399 1063 307 1011 364 1038 b 507 978 424 1042 458 1018 b 544 1046 540 950 583 1017 b 414 1133 514 1068 468 1101 z m 431 906 b 325 885 396 917 338 922 b 133 751 267 861 190 832 b 36 375 35 611 28 485 b 236 36 44 235 122 106 b 567 50 332 -24 475 -29 b 747 399 681 149 747 300 b 431 906 747 664 654 821 z m 406 810 b 639 469 518 775 618 658 b 515 135 656 367 621 242 b 265 131 451 72 332 74 b 140 407 196 188 140 288 b 222 701 140 518 158 621 b 406 810 271 757 346 799 z "},"ö":{"ha":781,"x_min":0,"x_max":0,"o":"m 471 1069 b 472 981 422 1064 421 981 b 544 1043 532 981 557 1018 b 471 1069 536 1061 513 1074 z m 331 1071 b 263 1025 281 1071 261 1057 b 332 978 263 988 306 978 b 331 1071 389 978 388 1071 z m 431 906 b 325 885 396 917 338 922 b 133 751 267 861 190 832 b 36 375 35 611 28 485 b 236 36 44 235 122 106 b 567 50 332 -24 475 -29 b 747 399 681 149 747 300 b 431 906 747 664 654 821 z m 406 810 b 639 469 518 775 618 658 b 515 135 656 367 621 242 b 265 131 451 72 332 74 b 140 407 196 188 140 288 b 222 701 140 518 158 621 b 406 810 271 757 346 799 z "},"ò":{"ha":781,"x_min":0,"x_max":0,"o":"m 386 1126 b 314 1081 354 1164 282 1118 b 404 985 338 1053 381 1013 b 463 1028 433 953 493 983 b 386 1126 444 1054 404 1100 z m 431 906 b 325 885 396 917 338 922 b 133 751 267 861 190 832 b 36 375 35 611 28 485 b 236 36 44 235 122 106 b 567 50 332 -24 475 -29 b 747 399 681 149 747 300 b 431 906 747 664 654 821 z m 406 810 b 639 469 518 775 618 658 b 515 135 656 367 621 242 b 265 131 451 72 332 74 b 140 407 196 188 140 288 b 222 701 140 518 158 621 b 406 810 271 757 346 799 z "},"ő":{"ha":781,"x_min":0,"x_max":0,"o":"m 331 1119 b 293 1022 319 1089 304 1053 b 360 994 274 972 340 957 l 410 1093 b 331 1119 433 1136 353 1163 z m 463 1117 b 425 1019 451 1088 436 1051 b 492 993 407 969 472 954 l 543 1090 b 463 1117 565 1135 485 1161 z m 431 906 b 325 885 396 917 338 922 b 133 751 267 861 190 832 b 36 375 35 611 28 485 b 236 36 44 235 122 106 b 567 50 332 -24 475 -29 b 747 399 681 149 747 300 b 431 906 747 664 654 821 z m 406 810 b 639 469 518 775 618 658 b 515 135 656 367 621 242 b 265 131 451 72 332 74 b 140 407 196 188 140 288 b 222 701 140 518 158 621 b 406 810 271 757 346 799 z "},"ō":{"ha":781,"x_min":0,"x_max":0,"o":"m 493 1081 b 296 1081 442 1078 347 1078 b 297 1007 236 1083 243 1011 b 501 1007 350 1003 449 1004 b 493 1081 561 1010 549 1083 z m 431 906 b 325 885 396 917 338 922 b 133 751 267 861 190 832 b 36 375 35 611 28 485 b 236 36 44 235 122 106 b 567 50 332 -24 475 -29 b 747 399 681 149 747 300 b 431 906 747 664 654 821 z m 406 810 b 639 469 518 775 618 658 b 515 135 656 367 621 242 b 265 131 451 72 332 74 b 140 407 196 188 140 288 b 222 701 140 518 158 621 b 406 810 271 757 346 799 z "},"ø":{"ha":793,"x_min":0,"x_max":0,"o":"m 692 869 b 610 931 715 904 635 965 b 557 850 593 907 575 879 b 443 906 524 871 486 889 b 338 885 408 917 350 922 b 146 751 279 861 203 832 b 49 375 47 611 40 485 b 121 147 54 289 79 211 b 39 35 92 104 64 67 b 118 -31 11 3 90 -62 b 189 67 140 -3 164 31 b 249 22 208 50 228 35 b 579 36 344 -37 488 -43 b 760 399 693 135 760 286 b 636 785 760 568 722 694 z m 153 407 b 235 701 153 518 171 621 b 418 810 283 757 358 799 b 504 765 449 800 476 786 b 185 244 407 608 290 408 b 153 407 165 290 153 344 z m 528 121 b 278 117 464 58 344 60 b 244 150 267 126 256 138 b 576 689 351 314 475 524 b 651 469 614 632 642 558 b 528 121 668 367 633 228 z "},"õ":{"ha":781,"x_min":0,"x_max":0,"o":"m 347 1094 b 247 1042 304 1103 256 1085 b 310 1007 238 992 296 978 b 361 1018 319 1028 343 1026 b 469 979 385 1007 426 979 b 547 1039 507 979 542 1018 b 496 1072 557 1079 508 1090 b 442 1049 490 1064 483 1038 b 347 1094 421 1054 372 1089 z m 431 906 b 325 885 396 917 338 922 b 133 751 267 861 190 832 b 36 375 35 611 28 485 b 236 36 44 235 122 106 b 567 50 332 -24 475 -29 b 747 399 681 149 747 300 b 431 906 747 664 654 821 z m 406 810 b 639 469 518 775 618 658 b 515 135 656 367 621 242 b 265 131 451 72 332 74 b 140 407 196 188 140 288 b 222 701 140 518 158 621 b 406 810 271 757 346 799 z "},"œ":{"ha":1383,"x_min":0,"x_max":0,"o":"m 472 914 b 360 885 429 928 378 929 b 113 728 282 858 174 810 b 38 415 25 603 28 526 b 139 149 47 229 82 224 b 425 -6 200 72 290 -10 b 703 104 535 0 636 46 b 707 51 703 90 704 65 b 769 0 710 22 746 0 b 1279 21 1014 0 1263 21 b 1299 122 1375 21 1396 128 b 807 101 1264 121 960 93 b 799 406 800 165 799 247 b 1278 422 903 406 1092 388 b 1242 518 1360 464 1321 522 b 794 507 1132 499 910 501 b 785 801 792 613 785 683 b 1254 797 853 806 1235 797 b 1256 900 1329 800 1332 903 b 738 901 1113 904 832 908 b 669 843 685 899 671 876 b 672 775 669 828 669 793 b 472 914 656 813 572 882 z m 454 813 b 685 569 558 785 656 676 b 693 260 692 285 693 293 b 422 96 664 172 529 96 b 231 206 343 96 279 146 b 147 467 151 308 147 338 b 203 676 146 550 147 608 b 454 813 257 738 388 800 z "},"p":{"ha":808,"x_min":0,"x_max":0,"o":"m 488 903 b 40 796 353 908 185 863 b 83 713 -10 771 22 694 b 129 731 97 718 117 724 b 136 388 129 694 136 417 b 81 388 119 389 94 390 b 78 290 11 361 19 303 b 138 282 90 286 114 283 b 161 46 140 189 149 110 b 258 64 175 -18 269 -15 b 239 285 247 124 242 203 b 547 311 293 282 446 276 b 767 618 675 356 754 460 b 488 903 771 807 650 894 z m 503 800 b 653 636 589 788 654 749 b 510 401 651 518 594 436 b 235 376 425 372 299 372 b 226 764 236 414 228 731 b 503 800 332 797 428 811 z "},"þ":{"ha":811,"x_min":0,"x_max":0,"o":"m 208 833 b 221 746 217 800 219 779 b 450 771 304 769 399 776 b 769 478 626 761 779 678 b 550 204 764 350 674 250 b 231 174 432 164 331 169 b 236 63 231 135 229 108 b 136 47 244 4 151 -35 b 125 178 126 101 126 140 b 67 188 101 179 79 182 b 69 290 11 214 0 282 b 124 286 93 293 100 286 b 118 592 124 364 118 554 l 81 572 b 29 668 42 554 -11 644 b 121 711 60 685 92 700 b 108 811 119 740 117 778 b 208 833 100 872 199 892 z m 219 635 b 228 279 229 533 228 353 b 506 304 285 279 357 260 b 651 494 586 339 651 415 b 465 658 651 594 569 644 b 219 635 394 667 313 664 z "},"q":{"ha":778,"x_min":0,"x_max":0,"o":"m 432 888 b 322 860 392 911 321 903 b 35 453 104 789 54 674 b 386 10 21 293 129 10 b 547 46 442 10 503 29 b 575 1 557 33 567 17 b 647 61 611 -49 683 4 l 626 94 b 744 399 706 165 744 263 b 432 888 744 628 681 804 z m 414 792 b 632 286 644 735 664 436 b 561 174 624 247 594 204 b 518 235 544 194 528 219 b 440 190 482 283 417 250 b 482 129 450 174 465 150 b 385 113 454 113 411 111 b 142 432 260 119 142 251 b 414 792 142 643 186 725 z "},"r":{"ha":875,"x_min":0,"x_max":0,"o":"m 201 906 b 49 875 125 903 83 889 b 72 785 4 857 15 774 b 114 794 82 786 97 790 b 131 51 110 617 117 381 b 233 43 131 -11 229 -17 b 221 406 231 156 224 292 b 285 386 246 401 265 394 b 774 4 419 294 574 -3 b 790 101 832 4 854 101 b 433 399 664 103 504 333 b 738 583 565 386 718 440 b 561 850 747 715 656 811 b 201 906 429 910 313 913 z m 228 806 b 525 750 301 813 426 793 b 624 582 599 717 635 644 b 226 508 601 460 378 461 b 228 806 222 636 222 726 z "},"ŕ":{"ha":875,"x_min":0,"x_max":0,"o":"m 379 1082 b 290 983 361 1056 308 1010 b 349 940 260 939 319 908 b 450 1036 372 968 426 1008 b 379 1082 482 1074 411 1119 z m 201 906 b 49 875 125 903 83 889 b 72 785 4 857 15 774 b 114 794 82 786 97 790 b 131 51 110 617 117 381 b 233 43 131 -11 229 -17 b 221 406 231 156 224 292 b 285 386 246 401 265 394 b 774 4 419 294 574 -3 b 790 101 832 4 854 101 b 433 399 664 103 504 333 b 738 583 565 386 718 440 b 561 850 747 715 656 811 b 201 906 429 910 313 913 z m 228 806 b 525 750 301 813 426 793 b 624 582 599 717 635 644 b 226 508 601 460 378 461 b 228 806 222 636 222 726 z "},"ř":{"ha":875,"x_min":0,"x_max":0,"o":"m 436 1090 b 332 1018 414 1069 357 1039 b 247 1089 297 1043 276 1067 b 194 1038 213 1117 174 1063 b 347 947 218 1010 326 928 b 478 1029 408 985 450 1003 b 436 1090 517 1065 467 1119 z m 201 906 b 49 875 125 903 83 889 b 72 785 4 857 15 774 b 114 794 82 786 97 790 b 131 51 110 617 117 381 b 233 43 131 -11 229 -17 b 221 406 231 156 224 292 b 285 386 246 401 265 394 b 774 4 419 294 574 -3 b 790 101 832 4 854 101 b 433 399 664 103 504 333 b 738 583 565 386 718 440 b 561 850 747 715 656 811 b 201 906 429 910 313 913 z m 228 806 b 525 750 301 813 426 793 b 624 582 599 717 635 644 b 226 508 601 460 378 461 b 228 806 222 636 222 726 z "},"ŗ":{"ha":875,"x_min":0,"x_max":0,"o":"m 201 906 b 49 875 125 903 83 889 b 72 785 4 857 15 774 b 114 794 82 786 97 790 b 131 51 110 617 117 381 b 233 43 131 -11 229 -17 b 221 406 231 156 224 292 b 285 386 246 401 265 394 b 774 4 419 294 574 -3 b 790 101 832 4 854 101 b 433 399 664 103 504 333 b 738 583 565 386 718 440 b 561 850 747 715 656 811 b 201 906 429 910 313 913 z m 228 806 b 525 750 301 813 426 793 b 624 582 599 717 635 644 b 226 508 601 460 378 461 b 228 806 222 636 222 726 z m 458 -128 b 376 -126 469 -65 382 -61 b 361 -229 374 -157 368 -185 b 431 -254 347 -312 413 -321 b 458 -128 443 -208 449 -185 z "},"s":{"ha":729,"x_min":0,"x_max":0,"o":"m 614 888 b 515 874 599 925 504 908 b 528 801 521 856 532 825 b 178 857 458 892 268 944 b 208 539 113 792 88 650 b 563 236 310 444 529 376 b 403 96 575 139 493 96 b 201 192 332 96 243 138 b 147 339 165 243 150 289 b 44 324 144 396 42 382 b 104 147 47 269 74 193 b 426 0 190 28 317 -3 b 664 268 608 4 700 125 b 458 494 635 378 549 443 b 289 603 406 524 343 557 b 258 793 217 663 222 753 b 418 788 297 828 365 814 b 540 624 471 763 532 696 b 628 615 538 569 640 571 b 614 888 611 711 624 804 z "},"ś":{"ha":729,"x_min":0,"x_max":0,"o":"m 401 1089 b 313 990 383 1063 331 1017 b 371 947 282 946 342 915 b 472 1043 394 975 449 1015 b 401 1089 504 1081 433 1126 z m 614 888 b 515 874 599 925 504 908 b 528 801 521 856 532 825 b 178 857 458 892 268 944 b 208 539 113 792 88 650 b 563 236 310 444 529 376 b 403 96 575 139 493 96 b 201 192 332 96 243 138 b 147 339 165 243 150 289 b 44 324 144 396 42 382 b 104 147 47 269 74 193 b 426 0 190 28 317 -3 b 664 268 608 4 700 125 b 458 494 635 378 549 443 b 289 603 406 524 343 557 b 258 793 217 663 222 753 b 418 788 297 828 365 814 b 540 624 471 763 532 696 b 628 615 538 569 640 571 b 614 888 611 711 624 804 z "},"š":{"ha":729,"x_min":0,"x_max":0,"o":"m 458 1097 b 354 1025 436 1076 379 1046 b 269 1096 319 1050 299 1074 b 217 1044 235 1124 196 1069 b 369 954 240 1017 349 935 b 500 1036 431 992 472 1010 b 458 1097 539 1072 489 1126 z m 614 888 b 515 874 599 925 504 908 b 528 801 521 856 532 825 b 178 857 458 892 268 944 b 208 539 113 792 88 650 b 563 236 310 444 529 376 b 403 96 575 139 493 96 b 201 192 332 96 243 138 b 147 339 165 243 150 289 b 44 324 144 396 42 382 b 104 147 47 269 74 193 b 426 0 190 28 317 -3 b 664 268 608 4 700 125 b 458 494 635 378 549 443 b 289 603 406 524 343 557 b 258 793 217 663 222 753 b 418 788 297 828 365 814 b 540 624 471 763 532 696 b 628 615 538 569 640 571 b 614 888 611 711 624 804 z "},"ş":{"ha":729,"x_min":0,"x_max":0,"o":"m 426 0 b 664 268 608 4 700 125 b 458 494 635 378 549 443 b 289 603 406 524 343 557 b 258 793 217 663 222 753 b 418 788 297 828 365 814 b 540 624 471 763 532 696 b 628 615 538 569 640 571 b 614 888 611 711 624 804 b 515 874 599 925 504 908 b 528 801 521 856 532 825 b 178 857 458 892 268 944 b 208 539 113 792 88 650 b 563 236 310 444 529 376 b 403 96 575 139 493 96 b 201 192 332 96 243 138 b 147 339 165 243 150 289 b 44 324 144 396 42 382 b 104 147 47 269 74 193 b 349 4 171 56 261 17 l 328 -83 b 360 -115 321 -115 329 -122 b 390 -176 413 -112 415 -157 b 336 -167 372 -190 351 -186 b 289 -194 315 -139 279 -164 b 435 -224 304 -240 390 -257 b 472 -136 461 -204 476 -167 b 392 -65 468 -100 444 -62 b 408 0 399 -47 404 -15 z "},"ș":{"ha":729,"x_min":0,"x_max":0,"o":"m 614 888 b 515 874 599 925 504 908 b 528 801 521 856 532 825 b 178 857 458 892 268 944 b 208 539 113 792 88 650 b 563 236 310 444 529 376 b 403 96 575 139 493 96 b 201 192 332 96 243 138 b 147 339 165 243 150 289 b 44 324 144 396 42 382 b 104 147 47 269 74 193 b 426 0 190 28 317 -3 b 664 268 608 4 700 125 b 458 494 635 378 549 443 b 289 603 406 524 343 557 b 258 793 217 663 222 753 b 418 788 297 828 365 814 b 540 624 471 763 532 696 b 628 615 538 569 640 571 b 614 888 611 711 624 804 z m 404 -165 b 322 -164 415 -103 328 -99 b 307 -267 319 -194 314 -222 b 376 -292 293 -350 358 -358 b 404 -165 389 -246 394 -222 z "},"ß":{"ha":732,"x_min":0,"x_max":0,"o":"m 396 872 b 160 781 315 874 222 842 b 76 478 75 696 68 582 b 72 36 89 300 82 247 b 178 38 72 -10 168 -17 b 181 440 189 169 186 326 b 229 704 174 503 169 638 b 390 768 268 744 333 768 b 499 700 444 769 492 747 b 431 551 504 654 472 599 b 435 440 392 508 388 465 b 588 176 556 374 611 271 b 403 93 569 88 474 71 b 329 178 360 106 335 146 b 235 143 324 203 226 197 b 371 -3 244 92 303 18 b 688 138 488 -33 638 -14 b 514 504 732 261 686 392 b 603 719 574 569 608 649 b 396 872 594 819 501 871 z "},"t":{"ha":771,"x_min":0,"x_max":0,"o":"m 50 910 b 32 807 6 906 -19 811 b 307 806 88 804 254 804 b 303 39 349 633 303 156 b 410 47 303 -12 404 -24 b 413 804 421 186 432 631 b 676 803 436 806 606 806 b 692 906 724 806 754 906 b 50 910 610 907 136 906 z "},"ŧ":{"ha":768,"x_min":0,"x_max":0,"o":"m 51 897 b 33 794 3 897 -17 797 b 308 793 86 792 250 792 b 315 507 319 694 315 590 b 226 506 285 508 242 508 b 236 414 185 503 194 411 b 313 415 250 415 286 417 b 304 32 307 176 304 100 b 411 40 304 -11 413 -17 b 421 411 411 110 415 214 b 519 414 456 411 503 413 b 513 506 560 417 558 511 b 422 503 497 504 451 503 b 414 792 424 542 421 722 b 678 790 438 793 607 793 b 693 893 725 790 746 889 b 51 897 611 894 142 893 z "},"ť":{"ha":814,"x_min":0,"x_max":0,"o":"m 50 910 b 32 807 6 906 -19 811 b 307 806 88 804 254 804 b 303 39 349 633 303 156 b 410 47 303 -12 404 -24 b 413 804 421 186 432 631 b 676 803 436 806 606 806 b 692 906 724 806 754 906 b 50 910 610 907 136 906 z m 850 869 b 761 876 856 910 769 921 b 747 776 758 851 753 810 b 825 768 736 714 818 728 z "},"ţ":{"ha":771,"x_min":0,"x_max":0,"o":"m 692 906 b 50 910 610 907 136 906 b 32 807 6 906 -19 811 b 307 806 88 804 254 804 b 303 39 349 633 303 156 b 336 0 303 19 318 6 l 319 -72 b 351 -104 313 -104 321 -111 b 382 -165 404 -101 407 -146 b 328 -156 364 -179 343 -175 b 281 -183 307 -128 271 -153 b 426 -212 296 -229 382 -246 b 464 -125 453 -193 468 -156 b 383 -54 460 -89 436 -51 b 400 11 390 -36 396 -4 b 401 19 400 14 401 17 b 410 47 406 26 408 36 b 413 804 421 186 432 631 b 676 803 436 806 606 806 b 692 906 724 806 754 906 z "},"ț":{"ha":771,"x_min":0,"x_max":0,"o":"m 50 910 b 32 807 6 906 -19 811 b 307 806 88 804 254 804 b 303 39 349 633 303 156 b 410 47 303 -12 404 -24 b 413 804 421 186 432 631 b 676 803 436 806 606 806 b 692 906 724 806 754 906 b 50 910 610 907 136 906 z m 396 -154 b 314 -153 407 -92 319 -87 b 299 -256 311 -183 306 -211 b 368 -281 285 -339 350 -347 b 396 -154 381 -235 386 -211 z "},"u":{"ha":769,"x_min":0,"x_max":0,"o":"m 597 883 b 610 542 600 851 610 718 b 588 285 610 438 606 350 b 403 106 560 189 490 106 b 233 182 351 106 290 126 b 165 425 174 239 167 324 l 165 872 b 57 867 168 922 64 914 b 58 399 57 707 58 558 b 186 78 60 228 104 153 b 401 -4 239 29 325 -3 b 686 226 538 -6 638 113 b 711 874 744 381 707 701 b 597 883 714 910 599 928 z "},"ú":{"ha":769,"x_min":0,"x_max":0,"o":"m 417 1079 b 328 981 399 1053 346 1007 b 386 938 297 936 357 906 b 488 1033 410 965 464 1006 b 417 1079 519 1071 449 1117 z m 597 883 b 610 542 600 851 610 718 b 588 285 610 438 606 350 b 403 106 560 189 490 106 b 233 182 351 106 290 126 b 165 425 174 239 167 324 l 165 872 b 57 867 168 922 64 914 b 58 399 57 707 58 558 b 186 78 60 228 104 153 b 401 -4 239 29 325 -3 b 686 226 538 -6 638 113 b 711 874 744 381 707 701 b 597 883 714 910 599 928 z "},"û":{"ha":769,"x_min":0,"x_max":0,"o":"m 392 1086 b 207 989 371 1106 231 1015 b 256 942 172 950 221 914 b 376 1015 285 964 342 990 b 485 931 401 994 436 971 b 522 999 518 903 561 969 b 392 1086 492 1021 446 1054 z m 597 883 b 610 542 600 851 610 718 b 588 285 610 438 606 350 b 403 106 560 189 490 106 b 233 182 351 106 290 126 b 165 425 174 239 167 324 l 165 872 b 57 867 168 922 64 914 b 58 399 57 707 58 558 b 186 78 60 228 104 153 b 401 -4 239 29 325 -3 b 686 226 538 -6 638 113 b 711 874 744 381 707 701 b 597 883 714 910 599 928 z "},"ü":{"ha":769,"x_min":0,"x_max":0,"o":"m 449 1022 b 450 933 400 1017 399 933 b 522 996 510 933 535 971 b 449 1022 514 1014 490 1026 z m 308 1024 b 240 978 258 1024 239 1010 b 310 931 240 940 283 931 b 308 1024 367 931 365 1024 z m 597 883 b 610 542 600 851 610 718 b 588 285 610 438 606 350 b 403 106 560 189 490 106 b 233 182 351 106 290 126 b 165 425 174 239 167 324 l 165 872 b 57 867 168 922 64 914 b 58 399 57 707 58 558 b 186 78 60 228 104 153 b 401 -4 239 29 325 -3 b 686 226 538 -6 638 113 b 711 874 744 381 707 701 b 597 883 714 910 599 928 z "},"ù":{"ha":769,"x_min":0,"x_max":0,"o":"m 364 1079 b 292 1033 332 1117 260 1071 b 382 938 315 1006 358 965 b 440 981 411 906 471 936 b 364 1079 422 1007 382 1053 z m 597 883 b 610 542 600 851 610 718 b 588 285 610 438 606 350 b 403 106 560 189 490 106 b 233 182 351 106 290 126 b 165 425 174 239 167 324 l 165 872 b 57 867 168 922 64 914 b 58 399 57 707 58 558 b 186 78 60 228 104 153 b 401 -4 239 29 325 -3 b 686 226 538 -6 638 113 b 711 874 744 381 707 701 b 597 883 714 910 599 928 z "},"ű":{"ha":769,"x_min":0,"x_max":0,"o":"m 308 1072 b 271 975 297 1042 282 1006 b 338 947 251 925 318 910 l 388 1046 b 308 1072 411 1089 331 1115 z m 440 1069 b 403 972 429 1040 414 1004 b 469 946 385 922 450 907 l 521 1043 b 440 1069 543 1088 463 1114 z m 597 883 b 610 542 600 851 610 718 b 588 285 610 438 606 350 b 403 106 560 189 490 106 b 233 182 351 106 290 126 b 165 425 174 239 167 324 l 165 872 b 57 867 168 922 64 914 b 58 399 57 707 58 558 b 186 78 60 228 104 153 b 401 -4 239 29 325 -3 b 686 226 538 -6 638 113 b 711 874 744 381 707 701 b 597 883 714 910 599 928 z "},"ū":{"ha":769,"x_min":0,"x_max":0,"o":"m 471 1033 b 274 1033 419 1031 325 1031 b 275 960 214 1036 221 964 b 479 960 328 956 426 957 b 471 1033 539 963 526 1036 z m 597 883 b 610 542 600 851 610 718 b 588 285 610 438 606 350 b 403 106 560 189 490 106 b 233 182 351 106 290 126 b 165 425 174 239 167 324 l 165 872 b 57 867 168 922 64 914 b 58 399 57 707 58 558 b 186 78 60 228 104 153 b 401 -4 239 29 325 -3 b 686 226 538 -6 638 113 b 711 874 744 381 707 701 b 597 883 714 910 599 928 z "},"ų":{"ha":769,"x_min":0,"x_max":0,"o":"m 689 226 b 711 874 744 382 707 701 b 597 883 714 910 599 928 b 610 542 600 851 610 718 b 588 285 610 438 606 350 b 403 106 560 189 490 106 b 233 182 351 106 290 126 b 165 425 174 239 167 324 l 165 872 b 57 867 168 922 64 914 b 58 399 57 707 58 558 b 186 78 60 228 104 153 b 390 -4 239 29 314 -4 b 533 51 418 -4 485 4 b 486 -187 476 -21 458 -144 b 638 -200 524 -244 604 -242 b 604 -146 664 -168 636 -117 b 551 -140 583 -165 568 -161 b 604 63 526 -108 558 -12 b 689 226 633 110 665 161 z "},"ů":{"ha":769,"x_min":0,"x_max":0,"o":"m 399 1110 b 292 1044 357 1110 311 1089 b 349 933 271 1000 297 947 b 438 1107 456 904 524 1053 b 399 1110 426 1117 410 1115 z m 401 1054 b 367 990 431 1033 408 978 b 344 1026 347 993 336 1011 b 386 1051 351 1042 371 1051 b 401 1054 390 1054 397 1057 z m 597 883 b 610 542 600 851 610 718 b 588 285 610 438 606 350 b 403 106 560 189 490 106 b 233 182 351 106 290 126 b 165 425 174 239 167 324 l 165 872 b 57 867 168 922 64 914 b 58 399 57 707 58 558 b 186 78 60 228 104 153 b 401 -4 239 29 325 -3 b 686 226 538 -6 638 113 b 711 874 744 381 707 701 b 597 883 714 910 599 928 z "},"v":{"ha":715,"x_min":0,"x_max":0,"o":"m 699 843 b 594 871 711 911 604 928 b 458 551 582 799 510 643 b 325 196 417 478 360 326 b 115 874 246 432 160 699 b 11 847 100 925 3 897 b 267 82 65 632 156 388 b 383 76 301 -15 367 -32 b 540 469 422 229 482 353 b 699 843 600 588 671 724 z "},"w":{"ha":1167,"x_min":0,"x_max":0,"o":"m 125 879 b 32 828 97 936 3 886 b 275 36 125 646 218 214 b 375 28 292 -14 356 -21 b 594 667 440 251 529 442 b 779 56 646 501 738 268 b 879 38 794 -17 860 -25 b 1142 839 953 282 1056 596 b 1036 864 1171 913 1064 931 b 840 204 982 724 910 456 b 642 811 811 343 703 650 b 535 817 625 876 550 894 b 332 197 508 681 376 344 b 125 879 265 403 257 610 z "},"ẃ":{"ha":1167,"x_min":0,"x_max":0,"o":"m 625 1135 b 536 1036 607 1108 554 1063 b 594 993 506 992 565 961 b 696 1089 618 1021 672 1061 b 625 1135 728 1126 657 1172 z m 125 879 b 32 828 97 936 3 886 b 275 36 125 646 218 214 b 375 28 292 -14 356 -21 b 594 667 440 251 529 442 b 779 56 646 501 738 268 b 879 38 794 -17 860 -25 b 1142 839 953 282 1056 596 b 1036 864 1171 913 1064 931 b 840 204 982 724 910 456 b 642 811 811 343 703 650 b 535 817 625 876 550 894 b 332 197 508 681 376 344 b 125 879 265 403 257 610 z "},"ŵ":{"ha":1167,"x_min":0,"x_max":0,"o":"m 600 1142 b 415 1044 579 1161 439 1071 b 464 997 381 1006 429 969 b 585 1071 493 1019 550 1046 b 693 986 610 1050 644 1026 b 731 1054 726 958 769 1025 b 600 1142 700 1076 654 1110 z m 125 879 b 32 828 97 936 3 886 b 275 36 125 646 218 214 b 375 28 292 -14 356 -21 b 594 667 440 251 529 442 b 779 56 646 501 738 268 b 879 38 794 -17 860 -25 b 1142 839 953 282 1056 596 b 1036 864 1171 913 1064 931 b 840 204 982 724 910 456 b 642 811 811 343 703 650 b 535 817 625 876 550 894 b 332 197 508 681 376 344 b 125 879 265 403 257 610 z "},"ẅ":{"ha":1167,"x_min":0,"x_max":0,"o":"m 657 1078 b 658 989 608 1072 607 989 b 731 1051 718 989 743 1026 b 657 1078 722 1069 699 1082 z m 517 1079 b 449 1033 467 1079 447 1065 b 518 986 449 996 492 986 b 517 1079 575 986 574 1079 z m 125 879 b 32 828 97 936 3 886 b 275 36 125 646 218 214 b 375 28 292 -14 356 -21 b 594 667 440 251 529 442 b 779 56 646 501 738 268 b 879 38 794 -17 860 -25 b 1142 839 953 282 1056 596 b 1036 864 1171 913 1064 931 b 840 204 982 724 910 456 b 642 811 811 343 703 650 b 535 817 625 876 550 894 b 332 197 508 681 376 344 b 125 879 265 403 257 610 z "},"ẁ":{"ha":1167,"x_min":0,"x_max":0,"o":"m 572 1135 b 500 1089 540 1172 468 1126 b 590 993 524 1061 567 1021 b 649 1036 619 961 679 992 b 572 1135 631 1063 590 1108 z m 125 879 b 32 828 97 936 3 886 b 275 36 125 646 218 214 b 375 28 292 -14 356 -21 b 594 667 440 251 529 442 b 779 56 646 501 738 268 b 879 38 794 -17 860 -25 b 1142 839 953 282 1056 596 b 1036 864 1171 913 1064 931 b 840 204 982 724 910 456 b 642 811 811 343 703 650 b 535 817 625 876 550 894 b 332 197 508 681 376 344 b 125 879 265 403 257 610 z "},"x":{"ha":763,"x_min":0,"x_max":0,"o":"m 115 897 b 33 821 81 935 8 865 b 340 435 121 736 300 493 b 35 76 260 313 88 129 b 126 17 -32 8 68 -49 b 396 347 228 131 314 239 b 631 8 469 225 539 128 b 718 81 667 -26 749 38 b 460 436 656 163 557 283 b 690 832 511 506 576 606 b 578 863 729 899 624 940 b 401 519 554 801 458 600 b 115 897 318 633 174 839 z "},"y":{"ha":656,"x_min":0,"x_max":0,"o":"m 524 879 b 411 376 474 722 468 532 b 239 564 350 408 286 457 b 119 879 207 635 156 768 b 18 839 99 933 10 908 b 164 469 51 738 118 558 b 372 275 219 371 300 311 b 236 94 340 182 288 94 b 164 222 189 94 164 115 b 57 231 164 268 56 263 b 206 -3 65 71 90 6 b 468 238 347 -14 422 124 b 507 339 551 240 575 311 b 628 849 547 436 563 650 b 524 879 635 896 535 932 z "},"ý":{"ha":656,"x_min":0,"x_max":0,"o":"m 371 1136 b 282 1038 353 1110 300 1064 b 340 994 251 993 311 963 b 442 1090 364 1022 418 1063 b 371 1136 474 1128 403 1174 z m 528 879 b 414 369 478 722 471 525 b 235 564 353 401 282 457 b 117 879 203 635 153 768 b 18 839 96 933 10 908 b 164 469 51 738 118 558 b 381 275 219 371 308 311 b 239 90 349 182 290 90 b 164 222 192 90 164 115 b 57 231 164 268 56 263 b 206 -3 65 71 90 6 b 468 238 347 -14 422 124 b 507 339 551 240 575 311 b 628 849 547 436 563 650 b 528 879 635 896 539 932 z "},"ŷ":{"ha":656,"x_min":0,"x_max":0,"o":"m 346 1143 b 161 1046 325 1163 185 1072 b 210 999 126 1007 175 971 b 331 1072 239 1021 296 1047 b 439 988 356 1051 390 1028 b 476 1056 472 960 515 1026 b 346 1143 446 1078 400 1111 z m 528 879 b 414 369 478 722 471 525 b 235 564 353 401 282 457 b 117 879 203 635 153 768 b 18 839 96 933 10 908 b 164 469 51 738 118 558 b 381 275 219 371 308 311 b 239 90 349 182 290 90 b 164 222 192 90 164 115 b 57 231 164 268 56 263 b 206 -3 65 71 90 6 b 468 238 347 -14 422 124 b 507 339 551 240 575 311 b 628 849 547 436 563 650 b 528 879 635 896 539 932 z "},"ÿ":{"ha":656,"x_min":0,"x_max":0,"o":"m 403 1079 b 404 990 354 1074 353 990 b 476 1053 464 990 489 1028 b 403 1079 468 1071 444 1083 z m 263 1081 b 194 1035 213 1081 193 1067 b 264 988 194 997 238 988 b 263 1081 321 988 319 1081 z m 528 879 b 414 369 478 722 471 525 b 235 564 353 401 282 457 b 117 879 203 635 153 768 b 18 839 96 933 10 908 b 164 469 51 738 118 558 b 381 275 219 371 308 311 b 239 90 349 182 290 90 b 164 222 192 90 164 115 b 57 231 164 268 56 263 b 206 -3 65 71 90 6 b 468 238 347 -14 422 124 b 507 339 551 240 575 311 b 628 849 547 436 563 650 b 528 879 635 896 539 932 z "},"ỳ":{"ha":656,"x_min":0,"x_max":0,"o":"m 318 1136 b 246 1090 286 1174 214 1128 b 336 994 269 1063 313 1022 b 394 1038 365 963 425 993 b 318 1136 376 1064 336 1110 z m 528 879 b 414 369 478 722 471 525 b 235 564 353 401 282 457 b 117 879 203 635 153 768 b 18 839 96 933 10 908 b 164 469 51 738 118 558 b 381 275 219 371 308 311 b 239 90 349 182 290 90 b 164 222 192 90 164 115 b 57 231 164 268 56 263 b 206 -3 65 71 90 6 b 468 238 347 -14 422 124 b 507 339 551 240 575 311 b 628 849 547 436 563 650 b 528 879 635 896 539 932 z "},"z":{"ha":711,"x_min":0,"x_max":0,"o":"m 599 904 b 144 904 340 922 385 892 b 128 810 99 904 94 813 b 540 815 243 803 364 821 b 89 136 444 682 251 271 b 115 4 31 89 26 7 b 629 6 236 -1 471 0 b 635 107 685 8 693 110 b 188 97 536 104 276 81 b 642 808 314 222 446 460 b 599 904 675 850 668 900 z "},"ź":{"ha":711,"x_min":0,"x_max":0,"o":"m 419 1138 b 331 1039 401 1111 349 1065 b 389 996 300 994 360 964 b 490 1092 413 1024 467 1064 b 419 1138 522 1129 451 1175 z m 599 904 b 144 904 340 922 385 892 b 128 810 99 904 94 813 b 540 815 243 803 364 821 b 89 136 444 682 251 271 b 115 4 31 89 26 7 b 629 6 236 -1 471 0 b 635 107 685 8 693 110 b 188 97 536 104 276 81 b 642 808 314 222 446 460 b 599 904 675 850 668 900 z "},"ž":{"ha":711,"x_min":0,"x_max":0,"o":"m 476 1146 b 372 1074 454 1125 397 1094 b 288 1144 338 1099 317 1122 b 235 1093 253 1172 214 1118 b 388 1003 258 1065 367 983 b 518 1085 449 1040 490 1058 b 476 1146 557 1121 507 1175 z m 599 904 b 144 904 340 922 385 892 b 128 810 99 904 94 813 b 540 815 243 803 364 821 b 89 136 444 682 251 271 b 115 4 31 89 26 7 b 629 6 236 -1 471 0 b 635 107 685 8 693 110 b 188 97 536 104 276 81 b 642 808 314 222 446 460 b 599 904 675 850 668 900 z "},"ż":{"ha":711,"x_min":0,"x_max":0,"o":"m 372 1113 b 321 1056 339 1113 314 1090 b 376 1014 324 1035 353 1014 b 372 1113 478 1014 474 1110 z m 599 904 b 144 904 340 922 385 892 b 128 810 99 904 94 813 b 540 815 243 803 364 821 b 89 136 444 682 251 271 b 115 4 31 89 26 7 b 629 6 236 -1 471 0 b 635 107 685 8 693 110 b 188 97 536 104 276 81 b 642 808 314 222 446 460 b 599 904 675 850 668 900 z "},"⁄":{"ha":524,"x_min":0,"x_max":0,"o":"m 421 879 b 35 140 281 679 196 339 b 115 75 -18 83 64 19 b 503 818 275 279 364 617 b 421 879 535 865 456 926 z "},"*":{"ha":1796,"x_min":0,"x_max":0,"o":"m 257 683 l 144 683 l 124 638 l 103 638 l 190 833 l 210 833 l 299 638 l 278 638 z m 403 638 l 381 638 l 297 833 l 318 833 l 392 658 l 463 833 l 485 833 z m 639 683 l 525 683 l 504 638 l 483 638 l 572 833 l 592 833 l 679 638 l 658 638 z m 713 638 l 713 833 l 732 833 l 732 638 z m 806 833 l 806 656 l 915 656 l 915 638 l 786 638 l 786 833 z m 1079 683 l 967 683 l 946 638 l 925 638 l 1014 833 l 1033 833 l 1121 638 l 1100 638 z m 1238 833 b 1303 779 1272 833 1303 818 b 1272 738 1303 761 1292 744 b 1308 690 1296 731 1308 710 b 1238 638 1308 650 1272 638 l 1154 638 l 1154 833 z m 1371 833 l 1371 656 l 1479 656 l 1479 638 l 1351 638 l 1351 833 z m 1651 638 l 1511 638 l 1511 833 l 1650 833 l 1650 815 l 1531 815 l 1531 744 l 1644 744 l 1644 726 l 1531 726 l 1531 656 l 1651 656 z m 1174 747 l 1239 747 b 1283 779 1263 747 1283 756 b 1238 815 1283 806 1261 815 l 1174 815 z m 151 700 l 250 700 l 200 813 z m 532 700 l 631 700 l 582 813 z m 974 700 l 1072 700 l 1024 813 z m 1174 656 l 1238 656 b 1289 690 1260 656 1289 663 b 1239 729 1289 718 1263 729 l 1174 729 z m 69 390 l 69 586 l 89 586 l 89 390 z m 282 426 l 282 586 l 301 586 l 301 390 l 289 390 l 163 547 l 163 390 l 143 390 l 143 586 l 156 586 z m 467 567 l 397 567 l 397 586 l 556 586 l 556 567 l 486 567 l 486 390 l 467 390 z m 725 390 l 725 476 l 607 476 l 607 390 l 588 390 l 588 586 l 607 586 l 607 494 l 725 494 l 725 586 l 744 586 l 744 390 z m 940 390 l 799 390 l 799 586 l 938 586 l 938 567 l 819 567 l 819 497 l 932 497 l 932 479 l 819 479 l 819 408 l 940 408 z m 1056 390 l 1056 586 l 1190 586 l 1190 567 l 1075 567 l 1075 493 l 1186 493 l 1186 475 l 1075 475 l 1075 390 z m 1385 586 l 1385 465 b 1307 388 1385 413 1350 388 b 1229 465 1265 388 1229 413 l 1229 586 l 1249 586 l 1249 465 b 1307 406 1249 428 1274 406 b 1365 465 1338 406 1365 424 l 1365 586 z m 1457 586 l 1457 408 l 1565 408 l 1565 390 l 1436 390 l 1436 586 z m 1617 586 l 1617 408 l 1726 408 l 1726 390 l 1597 390 l 1597 586 z m 975 297 b 918 322 964 317 939 322 b 863 288 894 322 863 315 b 919 253 863 264 889 258 b 997 196 958 246 997 238 b 918 139 997 151 954 139 b 836 182 886 139 851 151 l 854 192 b 918 158 867 167 894 158 b 976 196 943 158 976 164 b 917 235 976 222 947 229 b 843 288 881 242 843 249 b 918 342 843 328 885 342 b 992 307 944 342 974 333 z m 1297 240 b 1197 139 1297 189 1264 138 b 1099 240 1131 138 1099 189 b 1197 342 1099 294 1135 342 b 1297 240 1264 342 1297 292 z m 354 142 l 332 142 l 249 339 l 269 339 l 343 164 l 414 339 l 436 339 z m 611 142 l 471 142 l 471 339 l 608 339 l 608 319 l 490 319 l 490 250 l 603 250 l 603 232 l 490 232 l 490 161 l 611 161 z m 815 142 l 789 142 l 724 214 l 674 214 l 674 142 l 654 142 l 654 339 l 742 339 b 807 276 785 339 807 310 b 747 215 807 246 789 218 z m 1038 142 l 1038 339 l 1057 339 l 1057 142 z m 1478 179 l 1476 244 l 1476 339 l 1496 339 l 1496 142 l 1485 142 l 1358 300 l 1358 142 l 1339 142 l 1339 339 l 1351 339 z m 1197 157 b 1278 240 1251 157 1278 197 b 1197 322 1278 283 1251 324 b 1118 240 1144 324 1117 285 b 1197 157 1119 197 1144 157 z m 674 319 l 674 233 l 740 233 b 788 276 772 233 788 251 b 742 319 788 300 772 319 z "},"\\":{"ha":1796,"x_min":0,"x_max":0,"o":"m 257 683 l 144 683 l 124 638 l 103 638 l 190 833 l 210 833 l 299 638 l 278 638 z m 403 638 l 381 638 l 297 833 l 318 833 l 392 658 l 463 833 l 485 833 z m 639 683 l 525 683 l 504 638 l 483 638 l 572 833 l 592 833 l 679 638 l 658 638 z m 713 638 l 713 833 l 732 833 l 732 638 z m 806 833 l 806 656 l 915 656 l 915 638 l 786 638 l 786 833 z m 1079 683 l 967 683 l 946 638 l 925 638 l 1014 833 l 1033 833 l 1121 638 l 1100 638 z m 1238 833 b 1303 779 1272 833 1303 818 b 1272 738 1303 761 1292 744 b 1308 690 1296 731 1308 710 b 1238 638 1308 650 1272 638 l 1154 638 l 1154 833 z m 1371 833 l 1371 656 l 1479 656 l 1479 638 l 1351 638 l 1351 833 z m 1651 638 l 1511 638 l 1511 833 l 1650 833 l 1650 815 l 1531 815 l 1531 744 l 1644 744 l 1644 726 l 1531 726 l 1531 656 l 1651 656 z m 1174 747 l 1239 747 b 1283 779 1263 747 1283 756 b 1238 815 1283 806 1261 815 l 1174 815 z m 151 700 l 250 700 l 200 813 z m 532 700 l 631 700 l 582 813 z m 974 700 l 1072 700 l 1024 813 z m 1174 656 l 1238 656 b 1289 690 1260 656 1289 663 b 1239 729 1289 718 1263 729 l 1174 729 z m 69 390 l 69 586 l 89 586 l 89 390 z m 282 426 l 282 586 l 301 586 l 301 390 l 289 390 l 163 547 l 163 390 l 143 390 l 143 586 l 156 586 z m 467 567 l 397 567 l 397 586 l 556 586 l 556 567 l 486 567 l 486 390 l 467 390 z m 725 390 l 725 476 l 607 476 l 607 390 l 588 390 l 588 586 l 607 586 l 607 494 l 725 494 l 725 586 l 744 586 l 744 390 z m 940 390 l 799 390 l 799 586 l 938 586 l 938 567 l 819 567 l 819 497 l 932 497 l 932 479 l 819 479 l 819 408 l 940 408 z m 1056 390 l 1056 586 l 1190 586 l 1190 567 l 1075 567 l 1075 493 l 1186 493 l 1186 475 l 1075 475 l 1075 390 z m 1385 586 l 1385 465 b 1307 388 1385 413 1350 388 b 1229 465 1265 388 1229 413 l 1229 586 l 1249 586 l 1249 465 b 1307 406 1249 428 1274 406 b 1365 465 1338 406 1365 424 l 1365 586 z m 1457 586 l 1457 408 l 1565 408 l 1565 390 l 1436 390 l 1436 586 z m 1617 586 l 1617 408 l 1726 408 l 1726 390 l 1597 390 l 1597 586 z m 975 297 b 918 322 964 317 939 322 b 863 288 894 322 863 315 b 919 253 863 264 889 258 b 997 196 958 246 997 238 b 918 139 997 151 954 139 b 836 182 886 139 851 151 l 854 192 b 918 158 867 167 894 158 b 976 196 943 158 976 164 b 917 235 976 222 947 229 b 843 288 881 242 843 249 b 918 342 843 328 885 342 b 992 307 944 342 974 333 z m 1297 240 b 1197 139 1297 189 1264 138 b 1099 240 1131 138 1099 189 b 1197 342 1099 294 1135 342 b 1297 240 1264 342 1297 292 z m 354 142 l 332 142 l 249 339 l 269 339 l 343 164 l 414 339 l 436 339 z m 611 142 l 471 142 l 471 339 l 608 339 l 608 319 l 490 319 l 490 250 l 603 250 l 603 232 l 490 232 l 490 161 l 611 161 z m 815 142 l 789 142 l 724 214 l 674 214 l 674 142 l 654 142 l 654 339 l 742 339 b 807 276 785 339 807 310 b 747 215 807 246 789 218 z m 1038 142 l 1038 339 l 1057 339 l 1057 142 z m 1478 179 l 1476 244 l 1476 339 l 1496 339 l 1496 142 l 1485 142 l 1358 300 l 1358 142 l 1339 142 l 1339 339 l 1351 339 z m 1197 157 b 1278 240 1251 157 1278 197 b 1197 322 1278 283 1251 324 b 1118 240 1144 324 1117 285 b 1197 157 1119 197 1144 157 z m 674 319 l 674 233 l 740 233 b 788 276 772 233 788 251 b 742 319 788 300 772 319 z "},"•":{"ha":1796,"x_min":0,"x_max":0,"o":"m 257 683 l 144 683 l 124 638 l 103 638 l 190 833 l 210 833 l 299 638 l 278 638 z m 403 638 l 381 638 l 297 833 l 318 833 l 392 658 l 463 833 l 485 833 z m 639 683 l 525 683 l 504 638 l 483 638 l 572 833 l 592 833 l 679 638 l 658 638 z m 713 638 l 713 833 l 732 833 l 732 638 z m 806 833 l 806 656 l 915 656 l 915 638 l 786 638 l 786 833 z m 1079 683 l 967 683 l 946 638 l 925 638 l 1014 833 l 1033 833 l 1121 638 l 1100 638 z m 1238 833 b 1303 779 1272 833 1303 818 b 1272 738 1303 761 1292 744 b 1308 690 1296 731 1308 710 b 1238 638 1308 650 1272 638 l 1154 638 l 1154 833 z m 1371 833 l 1371 656 l 1479 656 l 1479 638 l 1351 638 l 1351 833 z m 1651 638 l 1511 638 l 1511 833 l 1650 833 l 1650 815 l 1531 815 l 1531 744 l 1644 744 l 1644 726 l 1531 726 l 1531 656 l 1651 656 z m 1174 747 l 1239 747 b 1283 779 1263 747 1283 756 b 1238 815 1283 806 1261 815 l 1174 815 z m 151 700 l 250 700 l 200 813 z m 532 700 l 631 700 l 582 813 z m 974 700 l 1072 700 l 1024 813 z m 1174 656 l 1238 656 b 1289 690 1260 656 1289 663 b 1239 729 1289 718 1263 729 l 1174 729 z m 69 390 l 69 586 l 89 586 l 89 390 z m 282 426 l 282 586 l 301 586 l 301 390 l 289 390 l 163 547 l 163 390 l 143 390 l 143 586 l 156 586 z m 467 567 l 397 567 l 397 586 l 556 586 l 556 567 l 486 567 l 486 390 l 467 390 z m 725 390 l 725 476 l 607 476 l 607 390 l 588 390 l 588 586 l 607 586 l 607 494 l 725 494 l 725 586 l 744 586 l 744 390 z m 940 390 l 799 390 l 799 586 l 938 586 l 938 567 l 819 567 l 819 497 l 932 497 l 932 479 l 819 479 l 819 408 l 940 408 z m 1056 390 l 1056 586 l 1190 586 l 1190 567 l 1075 567 l 1075 493 l 1186 493 l 1186 475 l 1075 475 l 1075 390 z m 1385 586 l 1385 465 b 1307 388 1385 413 1350 388 b 1229 465 1265 388 1229 413 l 1229 586 l 1249 586 l 1249 465 b 1307 406 1249 428 1274 406 b 1365 465 1338 406 1365 424 l 1365 586 z m 1457 586 l 1457 408 l 1565 408 l 1565 390 l 1436 390 l 1436 586 z m 1617 586 l 1617 408 l 1726 408 l 1726 390 l 1597 390 l 1597 586 z m 975 297 b 918 322 964 317 939 322 b 863 288 894 322 863 315 b 919 253 863 264 889 258 b 997 196 958 246 997 238 b 918 139 997 151 954 139 b 836 182 886 139 851 151 l 854 192 b 918 158 867 167 894 158 b 976 196 943 158 976 164 b 917 235 976 222 947 229 b 843 288 881 242 843 249 b 918 342 843 328 885 342 b 992 307 944 342 974 333 z m 1297 240 b 1197 139 1297 189 1264 138 b 1099 240 1131 138 1099 189 b 1197 342 1099 294 1135 342 b 1297 240 1264 342 1297 292 z m 354 142 l 332 142 l 249 339 l 269 339 l 343 164 l 414 339 l 436 339 z m 611 142 l 471 142 l 471 339 l 608 339 l 608 319 l 490 319 l 490 250 l 603 250 l 603 232 l 490 232 l 490 161 l 611 161 z m 815 142 l 789 142 l 724 214 l 674 214 l 674 142 l 654 142 l 654 339 l 742 339 b 807 276 785 339 807 310 b 747 215 807 246 789 218 z m 1038 142 l 1038 339 l 1057 339 l 1057 142 z m 1478 179 l 1476 244 l 1476 339 l 1496 339 l 1496 142 l 1485 142 l 1358 300 l 1358 142 l 1339 142 l 1339 339 l 1351 339 z m 1197 157 b 1278 240 1251 157 1278 197 b 1197 322 1278 283 1251 324 b 1118 240 1144 324 1117 285 b 1197 157 1119 197 1144 157 z m 674 319 l 674 233 l 740 233 b 788 276 772 233 788 251 b 742 319 788 300 772 319 z "},":":{"ha":1796,"x_min":0,"x_max":0,"o":"m 257 683 l 144 683 l 124 638 l 103 638 l 190 833 l 210 833 l 299 638 l 278 638 z m 403 638 l 381 638 l 297 833 l 318 833 l 392 658 l 463 833 l 485 833 z m 639 683 l 525 683 l 504 638 l 483 638 l 572 833 l 592 833 l 679 638 l 658 638 z m 713 638 l 713 833 l 732 833 l 732 638 z m 806 833 l 806 656 l 915 656 l 915 638 l 786 638 l 786 833 z m 1079 683 l 967 683 l 946 638 l 925 638 l 1014 833 l 1033 833 l 1121 638 l 1100 638 z m 1238 833 b 1303 779 1272 833 1303 818 b 1272 738 1303 761 1292 744 b 1308 690 1296 731 1308 710 b 1238 638 1308 650 1272 638 l 1154 638 l 1154 833 z m 1371 833 l 1371 656 l 1479 656 l 1479 638 l 1351 638 l 1351 833 z m 1651 638 l 1511 638 l 1511 833 l 1650 833 l 1650 815 l 1531 815 l 1531 744 l 1644 744 l 1644 726 l 1531 726 l 1531 656 l 1651 656 z m 1174 747 l 1239 747 b 1283 779 1263 747 1283 756 b 1238 815 1283 806 1261 815 l 1174 815 z m 151 700 l 250 700 l 200 813 z m 532 700 l 631 700 l 582 813 z m 974 700 l 1072 700 l 1024 813 z m 1174 656 l 1238 656 b 1289 690 1260 656 1289 663 b 1239 729 1289 718 1263 729 l 1174 729 z m 69 390 l 69 586 l 89 586 l 89 390 z m 282 426 l 282 586 l 301 586 l 301 390 l 289 390 l 163 547 l 163 390 l 143 390 l 143 586 l 156 586 z m 467 567 l 397 567 l 397 586 l 556 586 l 556 567 l 486 567 l 486 390 l 467 390 z m 725 390 l 725 476 l 607 476 l 607 390 l 588 390 l 588 586 l 607 586 l 607 494 l 725 494 l 725 586 l 744 586 l 744 390 z m 940 390 l 799 390 l 799 586 l 938 586 l 938 567 l 819 567 l 819 497 l 932 497 l 932 479 l 819 479 l 819 408 l 940 408 z m 1056 390 l 1056 586 l 1190 586 l 1190 567 l 1075 567 l 1075 493 l 1186 493 l 1186 475 l 1075 475 l 1075 390 z m 1385 586 l 1385 465 b 1307 388 1385 413 1350 388 b 1229 465 1265 388 1229 413 l 1229 586 l 1249 586 l 1249 465 b 1307 406 1249 428 1274 406 b 1365 465 1338 406 1365 424 l 1365 586 z m 1457 586 l 1457 408 l 1565 408 l 1565 390 l 1436 390 l 1436 586 z m 1617 586 l 1617 408 l 1726 408 l 1726 390 l 1597 390 l 1597 586 z m 975 297 b 918 322 964 317 939 322 b 863 288 894 322 863 315 b 919 253 863 264 889 258 b 997 196 958 246 997 238 b 918 139 997 151 954 139 b 836 182 886 139 851 151 l 854 192 b 918 158 867 167 894 158 b 976 196 943 158 976 164 b 917 235 976 222 947 229 b 843 288 881 242 843 249 b 918 342 843 328 885 342 b 992 307 944 342 974 333 z m 1297 240 b 1197 139 1297 189 1264 138 b 1099 240 1131 138 1099 189 b 1197 342 1099 294 1135 342 b 1297 240 1264 342 1297 292 z m 354 142 l 332 142 l 249 339 l 269 339 l 343 164 l 414 339 l 436 339 z m 611 142 l 471 142 l 471 339 l 608 339 l 608 319 l 490 319 l 490 250 l 603 250 l 603 232 l 490 232 l 490 161 l 611 161 z m 815 142 l 789 142 l 724 214 l 674 214 l 674 142 l 654 142 l 654 339 l 742 339 b 807 276 785 339 807 310 b 747 215 807 246 789 218 z m 1038 142 l 1038 339 l 1057 339 l 1057 142 z m 1478 179 l 1476 244 l 1476 339 l 1496 339 l 1496 142 l 1485 142 l 1358 300 l 1358 142 l 1339 142 l 1339 339 l 1351 339 z m 1197 157 b 1278 240 1251 157 1278 197 b 1197 322 1278 283 1251 324 b 1118 240 1144 324 1117 285 b 1197 157 1119 197 1144 157 z m 674 319 l 674 233 l 740 233 b 788 276 772 233 788 251 b 742 319 788 300 772 319 z "},",":{"ha":236,"x_min":0,"x_max":0,"o":"m 188 46 b 76 39 188 97 76 99 b 50 -150 76 -47 75 -85 b 149 -179 36 -183 135 -206 b 188 46 178 -97 188 -46 z "},"…":{"ha":1796,"x_min":0,"x_max":0,"o":"m 257 683 l 144 683 l 124 638 l 103 638 l 190 833 l 210 833 l 299 638 l 278 638 z m 403 638 l 381 638 l 297 833 l 318 833 l 392 658 l 463 833 l 485 833 z m 639 683 l 525 683 l 504 638 l 483 638 l 572 833 l 592 833 l 679 638 l 658 638 z m 713 638 l 713 833 l 732 833 l 732 638 z m 806 833 l 806 656 l 915 656 l 915 638 l 786 638 l 786 833 z m 1079 683 l 967 683 l 946 638 l 925 638 l 1014 833 l 1033 833 l 1121 638 l 1100 638 z m 1238 833 b 1303 779 1272 833 1303 818 b 1272 738 1303 761 1292 744 b 1308 690 1296 731 1308 710 b 1238 638 1308 650 1272 638 l 1154 638 l 1154 833 z m 1371 833 l 1371 656 l 1479 656 l 1479 638 l 1351 638 l 1351 833 z m 1651 638 l 1511 638 l 1511 833 l 1650 833 l 1650 815 l 1531 815 l 1531 744 l 1644 744 l 1644 726 l 1531 726 l 1531 656 l 1651 656 z m 1174 747 l 1239 747 b 1283 779 1263 747 1283 756 b 1238 815 1283 806 1261 815 l 1174 815 z m 151 700 l 250 700 l 200 813 z m 532 700 l 631 700 l 582 813 z m 974 700 l 1072 700 l 1024 813 z m 1174 656 l 1238 656 b 1289 690 1260 656 1289 663 b 1239 729 1289 718 1263 729 l 1174 729 z m 69 390 l 69 586 l 89 586 l 89 390 z m 282 426 l 282 586 l 301 586 l 301 390 l 289 390 l 163 547 l 163 390 l 143 390 l 143 586 l 156 586 z m 467 567 l 397 567 l 397 586 l 556 586 l 556 567 l 486 567 l 486 390 l 467 390 z m 725 390 l 725 476 l 607 476 l 607 390 l 588 390 l 588 586 l 607 586 l 607 494 l 725 494 l 725 586 l 744 586 l 744 390 z m 940 390 l 799 390 l 799 586 l 938 586 l 938 567 l 819 567 l 819 497 l 932 497 l 932 479 l 819 479 l 819 408 l 940 408 z m 1056 390 l 1056 586 l 1190 586 l 1190 567 l 1075 567 l 1075 493 l 1186 493 l 1186 475 l 1075 475 l 1075 390 z m 1385 586 l 1385 465 b 1307 388 1385 413 1350 388 b 1229 465 1265 388 1229 413 l 1229 586 l 1249 586 l 1249 465 b 1307 406 1249 428 1274 406 b 1365 465 1338 406 1365 424 l 1365 586 z m 1457 586 l 1457 408 l 1565 408 l 1565 390 l 1436 390 l 1436 586 z m 1617 586 l 1617 408 l 1726 408 l 1726 390 l 1597 390 l 1597 586 z m 975 297 b 918 322 964 317 939 322 b 863 288 894 322 863 315 b 919 253 863 264 889 258 b 997 196 958 246 997 238 b 918 139 997 151 954 139 b 836 182 886 139 851 151 l 854 192 b 918 158 867 167 894 158 b 976 196 943 158 976 164 b 917 235 976 222 947 229 b 843 288 881 242 843 249 b 918 342 843 328 885 342 b 992 307 944 342 974 333 z m 1297 240 b 1197 139 1297 189 1264 138 b 1099 240 1131 138 1099 189 b 1197 342 1099 294 1135 342 b 1297 240 1264 342 1297 292 z m 354 142 l 332 142 l 249 339 l 269 339 l 343 164 l 414 339 l 436 339 z m 611 142 l 471 142 l 471 339 l 608 339 l 608 319 l 490 319 l 490 250 l 603 250 l 603 232 l 490 232 l 490 161 l 611 161 z m 815 142 l 789 142 l 724 214 l 674 214 l 674 142 l 654 142 l 654 339 l 742 339 b 807 276 785 339 807 310 b 747 215 807 246 789 218 z m 1038 142 l 1038 339 l 1057 339 l 1057 142 z m 1478 179 l 1476 244 l 1476 339 l 1496 339 l 1496 142 l 1485 142 l 1358 300 l 1358 142 l 1339 142 l 1339 339 l 1351 339 z m 1197 157 b 1278 240 1251 157 1278 197 b 1197 322 1278 283 1251 324 b 1118 240 1144 324 1117 285 b 1197 157 1119 197 1144 157 z m 674 319 l 674 233 l 740 233 b 788 276 772 233 788 251 b 742 319 788 300 772 319 z "},"!":{"ha":1796,"x_min":0,"x_max":0,"o":"m 257 683 l 144 683 l 124 638 l 103 638 l 190 833 l 210 833 l 299 638 l 278 638 z m 403 638 l 381 638 l 297 833 l 318 833 l 392 658 l 463 833 l 485 833 z m 639 683 l 525 683 l 504 638 l 483 638 l 572 833 l 592 833 l 679 638 l 658 638 z m 713 638 l 713 833 l 732 833 l 732 638 z m 806 833 l 806 656 l 915 656 l 915 638 l 786 638 l 786 833 z m 1079 683 l 967 683 l 946 638 l 925 638 l 1014 833 l 1033 833 l 1121 638 l 1100 638 z m 1238 833 b 1303 779 1272 833 1303 818 b 1272 738 1303 761 1292 744 b 1308 690 1296 731 1308 710 b 1238 638 1308 650 1272 638 l 1154 638 l 1154 833 z m 1371 833 l 1371 656 l 1479 656 l 1479 638 l 1351 638 l 1351 833 z m 1651 638 l 1511 638 l 1511 833 l 1650 833 l 1650 815 l 1531 815 l 1531 744 l 1644 744 l 1644 726 l 1531 726 l 1531 656 l 1651 656 z m 1174 747 l 1239 747 b 1283 779 1263 747 1283 756 b 1238 815 1283 806 1261 815 l 1174 815 z m 151 700 l 250 700 l 200 813 z m 532 700 l 631 700 l 582 813 z m 974 700 l 1072 700 l 1024 813 z m 1174 656 l 1238 656 b 1289 690 1260 656 1289 663 b 1239 729 1289 718 1263 729 l 1174 729 z m 69 390 l 69 586 l 89 586 l 89 390 z m 282 426 l 282 586 l 301 586 l 301 390 l 289 390 l 163 547 l 163 390 l 143 390 l 143 586 l 156 586 z m 467 567 l 397 567 l 397 586 l 556 586 l 556 567 l 486 567 l 486 390 l 467 390 z m 725 390 l 725 476 l 607 476 l 607 390 l 588 390 l 588 586 l 607 586 l 607 494 l 725 494 l 725 586 l 744 586 l 744 390 z m 940 390 l 799 390 l 799 586 l 938 586 l 938 567 l 819 567 l 819 497 l 932 497 l 932 479 l 819 479 l 819 408 l 940 408 z m 1056 390 l 1056 586 l 1190 586 l 1190 567 l 1075 567 l 1075 493 l 1186 493 l 1186 475 l 1075 475 l 1075 390 z m 1385 586 l 1385 465 b 1307 388 1385 413 1350 388 b 1229 465 1265 388 1229 413 l 1229 586 l 1249 586 l 1249 465 b 1307 406 1249 428 1274 406 b 1365 465 1338 406 1365 424 l 1365 586 z m 1457 586 l 1457 408 l 1565 408 l 1565 390 l 1436 390 l 1436 586 z m 1617 586 l 1617 408 l 1726 408 l 1726 390 l 1597 390 l 1597 586 z m 975 297 b 918 322 964 317 939 322 b 863 288 894 322 863 315 b 919 253 863 264 889 258 b 997 196 958 246 997 238 b 918 139 997 151 954 139 b 836 182 886 139 851 151 l 854 192 b 918 158 867 167 894 158 b 976 196 943 158 976 164 b 917 235 976 222 947 229 b 843 288 881 242 843 249 b 918 342 843 328 885 342 b 992 307 944 342 974 333 z m 1297 240 b 1197 139 1297 189 1264 138 b 1099 240 1131 138 1099 189 b 1197 342 1099 294 1135 342 b 1297 240 1264 342 1297 292 z m 354 142 l 332 142 l 249 339 l 269 339 l 343 164 l 414 339 l 436 339 z m 611 142 l 471 142 l 471 339 l 608 339 l 608 319 l 490 319 l 490 250 l 603 250 l 603 232 l 490 232 l 490 161 l 611 161 z m 815 142 l 789 142 l 724 214 l 674 214 l 674 142 l 654 142 l 654 339 l 742 339 b 807 276 785 339 807 310 b 747 215 807 246 789 218 z m 1038 142 l 1038 339 l 1057 339 l 1057 142 z m 1478 179 l 1476 244 l 1476 339 l 1496 339 l 1496 142 l 1485 142 l 1358 300 l 1358 142 l 1339 142 l 1339 339 l 1351 339 z m 1197 157 b 1278 240 1251 157 1278 197 b 1197 322 1278 283 1251 324 b 1118 240 1144 324 1117 285 b 1197 157 1119 197 1144 157 z m 674 319 l 674 233 l 740 233 b 788 276 772 233 788 251 b 742 319 788 300 772 319 z "},"¡":{"ha":1796,"x_min":0,"x_max":0,"o":"m 257 683 l 144 683 l 124 638 l 103 638 l 190 833 l 210 833 l 299 638 l 278 638 z m 403 638 l 381 638 l 297 833 l 318 833 l 392 658 l 463 833 l 485 833 z m 639 683 l 525 683 l 504 638 l 483 638 l 572 833 l 592 833 l 679 638 l 658 638 z m 713 638 l 713 833 l 732 833 l 732 638 z m 806 833 l 806 656 l 915 656 l 915 638 l 786 638 l 786 833 z m 1079 683 l 967 683 l 946 638 l 925 638 l 1014 833 l 1033 833 l 1121 638 l 1100 638 z m 1238 833 b 1303 779 1272 833 1303 818 b 1272 738 1303 761 1292 744 b 1308 690 1296 731 1308 710 b 1238 638 1308 650 1272 638 l 1154 638 l 1154 833 z m 1371 833 l 1371 656 l 1479 656 l 1479 638 l 1351 638 l 1351 833 z m 1651 638 l 1511 638 l 1511 833 l 1650 833 l 1650 815 l 1531 815 l 1531 744 l 1644 744 l 1644 726 l 1531 726 l 1531 656 l 1651 656 z m 1174 747 l 1239 747 b 1283 779 1263 747 1283 756 b 1238 815 1283 806 1261 815 l 1174 815 z m 151 700 l 250 700 l 200 813 z m 532 700 l 631 700 l 582 813 z m 974 700 l 1072 700 l 1024 813 z m 1174 656 l 1238 656 b 1289 690 1260 656 1289 663 b 1239 729 1289 718 1263 729 l 1174 729 z m 69 390 l 69 586 l 89 586 l 89 390 z m 282 426 l 282 586 l 301 586 l 301 390 l 289 390 l 163 547 l 163 390 l 143 390 l 143 586 l 156 586 z m 467 567 l 397 567 l 397 586 l 556 586 l 556 567 l 486 567 l 486 390 l 467 390 z m 725 390 l 725 476 l 607 476 l 607 390 l 588 390 l 588 586 l 607 586 l 607 494 l 725 494 l 725 586 l 744 586 l 744 390 z m 940 390 l 799 390 l 799 586 l 938 586 l 938 567 l 819 567 l 819 497 l 932 497 l 932 479 l 819 479 l 819 408 l 940 408 z m 1056 390 l 1056 586 l 1190 586 l 1190 567 l 1075 567 l 1075 493 l 1186 493 l 1186 475 l 1075 475 l 1075 390 z m 1385 586 l 1385 465 b 1307 388 1385 413 1350 388 b 1229 465 1265 388 1229 413 l 1229 586 l 1249 586 l 1249 465 b 1307 406 1249 428 1274 406 b 1365 465 1338 406 1365 424 l 1365 586 z m 1457 586 l 1457 408 l 1565 408 l 1565 390 l 1436 390 l 1436 586 z m 1617 586 l 1617 408 l 1726 408 l 1726 390 l 1597 390 l 1597 586 z m 975 297 b 918 322 964 317 939 322 b 863 288 894 322 863 315 b 919 253 863 264 889 258 b 997 196 958 246 997 238 b 918 139 997 151 954 139 b 836 182 886 139 851 151 l 854 192 b 918 158 867 167 894 158 b 976 196 943 158 976 164 b 917 235 976 222 947 229 b 843 288 881 242 843 249 b 918 342 843 328 885 342 b 992 307 944 342 974 333 z m 1297 240 b 1197 139 1297 189 1264 138 b 1099 240 1131 138 1099 189 b 1197 342 1099 294 1135 342 b 1297 240 1264 342 1297 292 z m 354 142 l 332 142 l 249 339 l 269 339 l 343 164 l 414 339 l 436 339 z m 611 142 l 471 142 l 471 339 l 608 339 l 608 319 l 490 319 l 490 250 l 603 250 l 603 232 l 490 232 l 490 161 l 611 161 z m 815 142 l 789 142 l 724 214 l 674 214 l 674 142 l 654 142 l 654 339 l 742 339 b 807 276 785 339 807 310 b 747 215 807 246 789 218 z m 1038 142 l 1038 339 l 1057 339 l 1057 142 z m 1478 179 l 1476 244 l 1476 339 l 1496 339 l 1496 142 l 1485 142 l 1358 300 l 1358 142 l 1339 142 l 1339 339 l 1351 339 z m 1197 157 b 1278 240 1251 157 1278 197 b 1197 322 1278 283 1251 324 b 1118 240 1144 324 1117 285 b 1197 157 1119 197 1144 157 z m 674 319 l 674 233 l 740 233 b 788 276 772 233 788 251 b 742 319 788 300 772 319 z "},"#":{"ha":1796,"x_min":0,"x_max":0,"o":"m 257 683 l 144 683 l 124 638 l 103 638 l 190 833 l 210 833 l 299 638 l 278 638 z m 403 638 l 381 638 l 297 833 l 318 833 l 392 658 l 463 833 l 485 833 z m 639 683 l 525 683 l 504 638 l 483 638 l 572 833 l 592 833 l 679 638 l 658 638 z m 713 638 l 713 833 l 732 833 l 732 638 z m 806 833 l 806 656 l 915 656 l 915 638 l 786 638 l 786 833 z m 1079 683 l 967 683 l 946 638 l 925 638 l 1014 833 l 1033 833 l 1121 638 l 1100 638 z m 1238 833 b 1303 779 1272 833 1303 818 b 1272 738 1303 761 1292 744 b 1308 690 1296 731 1308 710 b 1238 638 1308 650 1272 638 l 1154 638 l 1154 833 z m 1371 833 l 1371 656 l 1479 656 l 1479 638 l 1351 638 l 1351 833 z m 1651 638 l 1511 638 l 1511 833 l 1650 833 l 1650 815 l 1531 815 l 1531 744 l 1644 744 l 1644 726 l 1531 726 l 1531 656 l 1651 656 z m 1174 747 l 1239 747 b 1283 779 1263 747 1283 756 b 1238 815 1283 806 1261 815 l 1174 815 z m 151 700 l 250 700 l 200 813 z m 532 700 l 631 700 l 582 813 z m 974 700 l 1072 700 l 1024 813 z m 1174 656 l 1238 656 b 1289 690 1260 656 1289 663 b 1239 729 1289 718 1263 729 l 1174 729 z m 69 390 l 69 586 l 89 586 l 89 390 z m 282 426 l 282 586 l 301 586 l 301 390 l 289 390 l 163 547 l 163 390 l 143 390 l 143 586 l 156 586 z m 467 567 l 397 567 l 397 586 l 556 586 l 556 567 l 486 567 l 486 390 l 467 390 z m 725 390 l 725 476 l 607 476 l 607 390 l 588 390 l 588 586 l 607 586 l 607 494 l 725 494 l 725 586 l 744 586 l 744 390 z m 940 390 l 799 390 l 799 586 l 938 586 l 938 567 l 819 567 l 819 497 l 932 497 l 932 479 l 819 479 l 819 408 l 940 408 z m 1056 390 l 1056 586 l 1190 586 l 1190 567 l 1075 567 l 1075 493 l 1186 493 l 1186 475 l 1075 475 l 1075 390 z m 1385 586 l 1385 465 b 1307 388 1385 413 1350 388 b 1229 465 1265 388 1229 413 l 1229 586 l 1249 586 l 1249 465 b 1307 406 1249 428 1274 406 b 1365 465 1338 406 1365 424 l 1365 586 z m 1457 586 l 1457 408 l 1565 408 l 1565 390 l 1436 390 l 1436 586 z m 1617 586 l 1617 408 l 1726 408 l 1726 390 l 1597 390 l 1597 586 z m 975 297 b 918 322 964 317 939 322 b 863 288 894 322 863 315 b 919 253 863 264 889 258 b 997 196 958 246 997 238 b 918 139 997 151 954 139 b 836 182 886 139 851 151 l 854 192 b 918 158 867 167 894 158 b 976 196 943 158 976 164 b 917 235 976 222 947 229 b 843 288 881 242 843 249 b 918 342 843 328 885 342 b 992 307 944 342 974 333 z m 1297 240 b 1197 139 1297 189 1264 138 b 1099 240 1131 138 1099 189 b 1197 342 1099 294 1135 342 b 1297 240 1264 342 1297 292 z m 354 142 l 332 142 l 249 339 l 269 339 l 343 164 l 414 339 l 436 339 z m 611 142 l 471 142 l 471 339 l 608 339 l 608 319 l 490 319 l 490 250 l 603 250 l 603 232 l 490 232 l 490 161 l 611 161 z m 815 142 l 789 142 l 724 214 l 674 214 l 674 142 l 654 142 l 654 339 l 742 339 b 807 276 785 339 807 310 b 747 215 807 246 789 218 z m 1038 142 l 1038 339 l 1057 339 l 1057 142 z m 1478 179 l 1476 244 l 1476 339 l 1496 339 l 1496 142 l 1485 142 l 1358 300 l 1358 142 l 1339 142 l 1339 339 l 1351 339 z m 1197 157 b 1278 240 1251 157 1278 197 b 1197 322 1278 283 1251 324 b 1118 240 1144 324 1117 285 b 1197 157 1119 197 1144 157 z m 674 319 l 674 233 l 740 233 b 788 276 772 233 788 251 b 742 319 788 300 772 319 z "},".":{"ha":224,"x_min":0,"x_max":0,"o":"m 114 129 b 101 -19 38 138 21 -10 b 174 36 133 -19 171 1 b 114 129 178 78 164 128 z "},"·":{"ha":208,"x_min":0,"x_max":0,"o":"m 104 497 b 97 369 35 500 28 375 b 160 421 126 369 160 388 b 104 497 160 456 150 497 z "},"?":{"ha":621,"x_min":0,"x_max":0,"o":"m 321 914 b 119 838 243 914 174 890 b 53 589 49 767 42 664 b 158 624 56 529 158 565 b 158 690 156 657 154 676 b 304 814 179 776 233 814 b 421 788 351 814 386 813 b 467 697 444 769 467 749 b 242 371 467 596 297 479 b 215 188 215 322 215 215 b 322 206 215 143 322 171 b 336 339 322 246 307 289 b 572 701 397 435 574 542 b 321 914 569 861 428 914 z m 282 131 b 263 4 200 131 190 19 b 326 60 297 -8 322 22 b 282 131 326 82 321 125 z "},"¿":{"ha":1796,"x_min":0,"x_max":0,"o":"m 257 683 l 144 683 l 124 638 l 103 638 l 190 833 l 210 833 l 299 638 l 278 638 z m 403 638 l 381 638 l 297 833 l 318 833 l 392 658 l 463 833 l 485 833 z m 639 683 l 525 683 l 504 638 l 483 638 l 572 833 l 592 833 l 679 638 l 658 638 z m 713 638 l 713 833 l 732 833 l 732 638 z m 806 833 l 806 656 l 915 656 l 915 638 l 786 638 l 786 833 z m 1079 683 l 967 683 l 946 638 l 925 638 l 1014 833 l 1033 833 l 1121 638 l 1100 638 z m 1238 833 b 1303 779 1272 833 1303 818 b 1272 738 1303 761 1292 744 b 1308 690 1296 731 1308 710 b 1238 638 1308 650 1272 638 l 1154 638 l 1154 833 z m 1371 833 l 1371 656 l 1479 656 l 1479 638 l 1351 638 l 1351 833 z m 1651 638 l 1511 638 l 1511 833 l 1650 833 l 1650 815 l 1531 815 l 1531 744 l 1644 744 l 1644 726 l 1531 726 l 1531 656 l 1651 656 z m 1174 747 l 1239 747 b 1283 779 1263 747 1283 756 b 1238 815 1283 806 1261 815 l 1174 815 z m 151 700 l 250 700 l 200 813 z m 532 700 l 631 700 l 582 813 z m 974 700 l 1072 700 l 1024 813 z m 1174 656 l 1238 656 b 1289 690 1260 656 1289 663 b 1239 729 1289 718 1263 729 l 1174 729 z m 69 390 l 69 586 l 89 586 l 89 390 z m 282 426 l 282 586 l 301 586 l 301 390 l 289 390 l 163 547 l 163 390 l 143 390 l 143 586 l 156 586 z m 467 567 l 397 567 l 397 586 l 556 586 l 556 567 l 486 567 l 486 390 l 467 390 z m 725 390 l 725 476 l 607 476 l 607 390 l 588 390 l 588 586 l 607 586 l 607 494 l 725 494 l 725 586 l 744 586 l 744 390 z m 940 390 l 799 390 l 799 586 l 938 586 l 938 567 l 819 567 l 819 497 l 932 497 l 932 479 l 819 479 l 819 408 l 940 408 z m 1056 390 l 1056 586 l 1190 586 l 1190 567 l 1075 567 l 1075 493 l 1186 493 l 1186 475 l 1075 475 l 1075 390 z m 1385 586 l 1385 465 b 1307 388 1385 413 1350 388 b 1229 465 1265 388 1229 413 l 1229 586 l 1249 586 l 1249 465 b 1307 406 1249 428 1274 406 b 1365 465 1338 406 1365 424 l 1365 586 z m 1457 586 l 1457 408 l 1565 408 l 1565 390 l 1436 390 l 1436 586 z m 1617 586 l 1617 408 l 1726 408 l 1726 390 l 1597 390 l 1597 586 z m 975 297 b 918 322 964 317 939 322 b 863 288 894 322 863 315 b 919 253 863 264 889 258 b 997 196 958 246 997 238 b 918 139 997 151 954 139 b 836 182 886 139 851 151 l 854 192 b 918 158 867 167 894 158 b 976 196 943 158 976 164 b 917 235 976 222 947 229 b 843 288 881 242 843 249 b 918 342 843 328 885 342 b 992 307 944 342 974 333 z m 1297 240 b 1197 139 1297 189 1264 138 b 1099 240 1131 138 1099 189 b 1197 342 1099 294 1135 342 b 1297 240 1264 342 1297 292 z m 354 142 l 332 142 l 249 339 l 269 339 l 343 164 l 414 339 l 436 339 z m 611 142 l 471 142 l 471 339 l 608 339 l 608 319 l 490 319 l 490 250 l 603 250 l 603 232 l 490 232 l 490 161 l 611 161 z m 815 142 l 789 142 l 724 214 l 674 214 l 674 142 l 654 142 l 654 339 l 742 339 b 807 276 785 339 807 310 b 747 215 807 246 789 218 z m 1038 142 l 1038 339 l 1057 339 l 1057 142 z m 1478 179 l 1476 244 l 1476 339 l 1496 339 l 1496 142 l 1485 142 l 1358 300 l 1358 142 l 1339 142 l 1339 339 l 1351 339 z m 1197 157 b 1278 240 1251 157 1278 197 b 1197 322 1278 283 1251 324 b 1118 240 1144 324 1117 285 b 1197 157 1119 197 1144 157 z m 674 319 l 674 233 l 740 233 b 788 276 772 233 788 251 b 742 319 788 300 772 319 z "},"\"":{"ha":1796,"x_min":0,"x_max":0,"o":"m 257 683 l 144 683 l 124 638 l 103 638 l 190 833 l 210 833 l 299 638 l 278 638 z m 403 638 l 381 638 l 297 833 l 318 833 l 392 658 l 463 833 l 485 833 z m 639 683 l 525 683 l 504 638 l 483 638 l 572 833 l 592 833 l 679 638 l 658 638 z m 713 638 l 713 833 l 732 833 l 732 638 z m 806 833 l 806 656 l 915 656 l 915 638 l 786 638 l 786 833 z m 1079 683 l 967 683 l 946 638 l 925 638 l 1014 833 l 1033 833 l 1121 638 l 1100 638 z m 1238 833 b 1303 779 1272 833 1303 818 b 1272 738 1303 761 1292 744 b 1308 690 1296 731 1308 710 b 1238 638 1308 650 1272 638 l 1154 638 l 1154 833 z m 1371 833 l 1371 656 l 1479 656 l 1479 638 l 1351 638 l 1351 833 z m 1651 638 l 1511 638 l 1511 833 l 1650 833 l 1650 815 l 1531 815 l 1531 744 l 1644 744 l 1644 726 l 1531 726 l 1531 656 l 1651 656 z m 1174 747 l 1239 747 b 1283 779 1263 747 1283 756 b 1238 815 1283 806 1261 815 l 1174 815 z m 151 700 l 250 700 l 200 813 z m 532 700 l 631 700 l 582 813 z m 974 700 l 1072 700 l 1024 813 z m 1174 656 l 1238 656 b 1289 690 1260 656 1289 663 b 1239 729 1289 718 1263 729 l 1174 729 z m 69 390 l 69 586 l 89 586 l 89 390 z m 282 426 l 282 586 l 301 586 l 301 390 l 289 390 l 163 547 l 163 390 l 143 390 l 143 586 l 156 586 z m 467 567 l 397 567 l 397 586 l 556 586 l 556 567 l 486 567 l 486 390 l 467 390 z m 725 390 l 725 476 l 607 476 l 607 390 l 588 390 l 588 586 l 607 586 l 607 494 l 725 494 l 725 586 l 744 586 l 744 390 z m 940 390 l 799 390 l 799 586 l 938 586 l 938 567 l 819 567 l 819 497 l 932 497 l 932 479 l 819 479 l 819 408 l 940 408 z m 1056 390 l 1056 586 l 1190 586 l 1190 567 l 1075 567 l 1075 493 l 1186 493 l 1186 475 l 1075 475 l 1075 390 z m 1385 586 l 1385 465 b 1307 388 1385 413 1350 388 b 1229 465 1265 388 1229 413 l 1229 586 l 1249 586 l 1249 465 b 1307 406 1249 428 1274 406 b 1365 465 1338 406 1365 424 l 1365 586 z m 1457 586 l 1457 408 l 1565 408 l 1565 390 l 1436 390 l 1436 586 z m 1617 586 l 1617 408 l 1726 408 l 1726 390 l 1597 390 l 1597 586 z m 975 297 b 918 322 964 317 939 322 b 863 288 894 322 863 315 b 919 253 863 264 889 258 b 997 196 958 246 997 238 b 918 139 997 151 954 139 b 836 182 886 139 851 151 l 854 192 b 918 158 867 167 894 158 b 976 196 943 158 976 164 b 917 235 976 222 947 229 b 843 288 881 242 843 249 b 918 342 843 328 885 342 b 992 307 944 342 974 333 z m 1297 240 b 1197 139 1297 189 1264 138 b 1099 240 1131 138 1099 189 b 1197 342 1099 294 1135 342 b 1297 240 1264 342 1297 292 z m 354 142 l 332 142 l 249 339 l 269 339 l 343 164 l 414 339 l 436 339 z m 611 142 l 471 142 l 471 339 l 608 339 l 608 319 l 490 319 l 490 250 l 603 250 l 603 232 l 490 232 l 490 161 l 611 161 z m 815 142 l 789 142 l 724 214 l 674 214 l 674 142 l 654 142 l 654 339 l 742 339 b 807 276 785 339 807 310 b 747 215 807 246 789 218 z m 1038 142 l 1038 339 l 1057 339 l 1057 142 z m 1478 179 l 1476 244 l 1476 339 l 1496 339 l 1496 142 l 1485 142 l 1358 300 l 1358 142 l 1339 142 l 1339 339 l 1351 339 z m 1197 157 b 1278 240 1251 157 1278 197 b 1197 322 1278 283 1251 324 b 1118 240 1144 324 1117 285 b 1197 157 1119 197 1144 157 z m 674 319 l 674 233 l 740 233 b 788 276 772 233 788 251 b 742 319 788 300 772 319 z "},"'":{"ha":1796,"x_min":0,"x_max":0,"o":"m 257 683 l 144 683 l 124 638 l 103 638 l 190 833 l 210 833 l 299 638 l 278 638 z m 403 638 l 381 638 l 297 833 l 318 833 l 392 658 l 463 833 l 485 833 z m 639 683 l 525 683 l 504 638 l 483 638 l 572 833 l 592 833 l 679 638 l 658 638 z m 713 638 l 713 833 l 732 833 l 732 638 z m 806 833 l 806 656 l 915 656 l 915 638 l 786 638 l 786 833 z m 1079 683 l 967 683 l 946 638 l 925 638 l 1014 833 l 1033 833 l 1121 638 l 1100 638 z m 1238 833 b 1303 779 1272 833 1303 818 b 1272 738 1303 761 1292 744 b 1308 690 1296 731 1308 710 b 1238 638 1308 650 1272 638 l 1154 638 l 1154 833 z m 1371 833 l 1371 656 l 1479 656 l 1479 638 l 1351 638 l 1351 833 z m 1651 638 l 1511 638 l 1511 833 l 1650 833 l 1650 815 l 1531 815 l 1531 744 l 1644 744 l 1644 726 l 1531 726 l 1531 656 l 1651 656 z m 1174 747 l 1239 747 b 1283 779 1263 747 1283 756 b 1238 815 1283 806 1261 815 l 1174 815 z m 151 700 l 250 700 l 200 813 z m 532 700 l 631 700 l 582 813 z m 974 700 l 1072 700 l 1024 813 z m 1174 656 l 1238 656 b 1289 690 1260 656 1289 663 b 1239 729 1289 718 1263 729 l 1174 729 z m 69 390 l 69 586 l 89 586 l 89 390 z m 282 426 l 282 586 l 301 586 l 301 390 l 289 390 l 163 547 l 163 390 l 143 390 l 143 586 l 156 586 z m 467 567 l 397 567 l 397 586 l 556 586 l 556 567 l 486 567 l 486 390 l 467 390 z m 725 390 l 725 476 l 607 476 l 607 390 l 588 390 l 588 586 l 607 586 l 607 494 l 725 494 l 725 586 l 744 586 l 744 390 z m 940 390 l 799 390 l 799 586 l 938 586 l 938 567 l 819 567 l 819 497 l 932 497 l 932 479 l 819 479 l 819 408 l 940 408 z m 1056 390 l 1056 586 l 1190 586 l 1190 567 l 1075 567 l 1075 493 l 1186 493 l 1186 475 l 1075 475 l 1075 390 z m 1385 586 l 1385 465 b 1307 388 1385 413 1350 388 b 1229 465 1265 388 1229 413 l 1229 586 l 1249 586 l 1249 465 b 1307 406 1249 428 1274 406 b 1365 465 1338 406 1365 424 l 1365 586 z m 1457 586 l 1457 408 l 1565 408 l 1565 390 l 1436 390 l 1436 586 z m 1617 586 l 1617 408 l 1726 408 l 1726 390 l 1597 390 l 1597 586 z m 975 297 b 918 322 964 317 939 322 b 863 288 894 322 863 315 b 919 253 863 264 889 258 b 997 196 958 246 997 238 b 918 139 997 151 954 139 b 836 182 886 139 851 151 l 854 192 b 918 158 867 167 894 158 b 976 196 943 158 976 164 b 917 235 976 222 947 229 b 843 288 881 242 843 249 b 918 342 843 328 885 342 b 992 307 944 342 974 333 z m 1297 240 b 1197 139 1297 189 1264 138 b 1099 240 1131 138 1099 189 b 1197 342 1099 294 1135 342 b 1297 240 1264 342 1297 292 z m 354 142 l 332 142 l 249 339 l 269 339 l 343 164 l 414 339 l 436 339 z m 611 142 l 471 142 l 471 339 l 608 339 l 608 319 l 490 319 l 490 250 l 603 250 l 603 232 l 490 232 l 490 161 l 611 161 z m 815 142 l 789 142 l 724 214 l 674 214 l 674 142 l 654 142 l 654 339 l 742 339 b 807 276 785 339 807 310 b 747 215 807 246 789 218 z m 1038 142 l 1038 339 l 1057 339 l 1057 142 z m 1478 179 l 1476 244 l 1476 339 l 1496 339 l 1496 142 l 1485 142 l 1358 300 l 1358 142 l 1339 142 l 1339 339 l 1351 339 z m 1197 157 b 1278 240 1251 157 1278 197 b 1197 322 1278 283 1251 324 b 1118 240 1144 324 1117 285 b 1197 157 1119 197 1144 157 z m 674 319 l 674 233 l 740 233 b 788 276 772 233 788 251 b 742 319 788 300 772 319 z "},";":{"ha":1796,"x_min":0,"x_max":0,"o":"m 257 683 l 144 683 l 124 638 l 103 638 l 190 833 l 210 833 l 299 638 l 278 638 z m 403 638 l 381 638 l 297 833 l 318 833 l 392 658 l 463 833 l 485 833 z m 639 683 l 525 683 l 504 638 l 483 638 l 572 833 l 592 833 l 679 638 l 658 638 z m 713 638 l 713 833 l 732 833 l 732 638 z m 806 833 l 806 656 l 915 656 l 915 638 l 786 638 l 786 833 z m 1079 683 l 967 683 l 946 638 l 925 638 l 1014 833 l 1033 833 l 1121 638 l 1100 638 z m 1238 833 b 1303 779 1272 833 1303 818 b 1272 738 1303 761 1292 744 b 1308 690 1296 731 1308 710 b 1238 638 1308 650 1272 638 l 1154 638 l 1154 833 z m 1371 833 l 1371 656 l 1479 656 l 1479 638 l 1351 638 l 1351 833 z m 1651 638 l 1511 638 l 1511 833 l 1650 833 l 1650 815 l 1531 815 l 1531 744 l 1644 744 l 1644 726 l 1531 726 l 1531 656 l 1651 656 z m 1174 747 l 1239 747 b 1283 779 1263 747 1283 756 b 1238 815 1283 806 1261 815 l 1174 815 z m 151 700 l 250 700 l 200 813 z m 532 700 l 631 700 l 582 813 z m 974 700 l 1072 700 l 1024 813 z m 1174 656 l 1238 656 b 1289 690 1260 656 1289 663 b 1239 729 1289 718 1263 729 l 1174 729 z m 69 390 l 69 586 l 89 586 l 89 390 z m 282 426 l 282 586 l 301 586 l 301 390 l 289 390 l 163 547 l 163 390 l 143 390 l 143 586 l 156 586 z m 467 567 l 397 567 l 397 586 l 556 586 l 556 567 l 486 567 l 486 390 l 467 390 z m 725 390 l 725 476 l 607 476 l 607 390 l 588 390 l 588 586 l 607 586 l 607 494 l 725 494 l 725 586 l 744 586 l 744 390 z m 940 390 l 799 390 l 799 586 l 938 586 l 938 567 l 819 567 l 819 497 l 932 497 l 932 479 l 819 479 l 819 408 l 940 408 z m 1056 390 l 1056 586 l 1190 586 l 1190 567 l 1075 567 l 1075 493 l 1186 493 l 1186 475 l 1075 475 l 1075 390 z m 1385 586 l 1385 465 b 1307 388 1385 413 1350 388 b 1229 465 1265 388 1229 413 l 1229 586 l 1249 586 l 1249 465 b 1307 406 1249 428 1274 406 b 1365 465 1338 406 1365 424 l 1365 586 z m 1457 586 l 1457 408 l 1565 408 l 1565 390 l 1436 390 l 1436 586 z m 1617 586 l 1617 408 l 1726 408 l 1726 390 l 1597 390 l 1597 586 z m 975 297 b 918 322 964 317 939 322 b 863 288 894 322 863 315 b 919 253 863 264 889 258 b 997 196 958 246 997 238 b 918 139 997 151 954 139 b 836 182 886 139 851 151 l 854 192 b 918 158 867 167 894 158 b 976 196 943 158 976 164 b 917 235 976 222 947 229 b 843 288 881 242 843 249 b 918 342 843 328 885 342 b 992 307 944 342 974 333 z m 1297 240 b 1197 139 1297 189 1264 138 b 1099 240 1131 138 1099 189 b 1197 342 1099 294 1135 342 b 1297 240 1264 342 1297 292 z m 354 142 l 332 142 l 249 339 l 269 339 l 343 164 l 414 339 l 436 339 z m 611 142 l 471 142 l 471 339 l 608 339 l 608 319 l 490 319 l 490 250 l 603 250 l 603 232 l 490 232 l 490 161 l 611 161 z m 815 142 l 789 142 l 724 214 l 674 214 l 674 142 l 654 142 l 654 339 l 742 339 b 807 276 785 339 807 310 b 747 215 807 246 789 218 z m 1038 142 l 1038 339 l 1057 339 l 1057 142 z m 1478 179 l 1476 244 l 1476 339 l 1496 339 l 1496 142 l 1485 142 l 1358 300 l 1358 142 l 1339 142 l 1339 339 l 1351 339 z m 1197 157 b 1278 240 1251 157 1278 197 b 1197 322 1278 283 1251 324 b 1118 240 1144 324 1117 285 b 1197 157 1119 197 1144 157 z m 674 319 l 674 233 l 740 233 b 788 276 772 233 788 251 b 742 319 788 300 772 319 z "},"/":{"ha":1796,"x_min":0,"x_max":0,"o":"m 257 683 l 144 683 l 124 638 l 103 638 l 190 833 l 210 833 l 299 638 l 278 638 z m 403 638 l 381 638 l 297 833 l 318 833 l 392 658 l 463 833 l 485 833 z m 639 683 l 525 683 l 504 638 l 483 638 l 572 833 l 592 833 l 679 638 l 658 638 z m 713 638 l 713 833 l 732 833 l 732 638 z m 806 833 l 806 656 l 915 656 l 915 638 l 786 638 l 786 833 z m 1079 683 l 967 683 l 946 638 l 925 638 l 1014 833 l 1033 833 l 1121 638 l 1100 638 z m 1238 833 b 1303 779 1272 833 1303 818 b 1272 738 1303 761 1292 744 b 1308 690 1296 731 1308 710 b 1238 638 1308 650 1272 638 l 1154 638 l 1154 833 z m 1371 833 l 1371 656 l 1479 656 l 1479 638 l 1351 638 l 1351 833 z m 1651 638 l 1511 638 l 1511 833 l 1650 833 l 1650 815 l 1531 815 l 1531 744 l 1644 744 l 1644 726 l 1531 726 l 1531 656 l 1651 656 z m 1174 747 l 1239 747 b 1283 779 1263 747 1283 756 b 1238 815 1283 806 1261 815 l 1174 815 z m 151 700 l 250 700 l 200 813 z m 532 700 l 631 700 l 582 813 z m 974 700 l 1072 700 l 1024 813 z m 1174 656 l 1238 656 b 1289 690 1260 656 1289 663 b 1239 729 1289 718 1263 729 l 1174 729 z m 69 390 l 69 586 l 89 586 l 89 390 z m 282 426 l 282 586 l 301 586 l 301 390 l 289 390 l 163 547 l 163 390 l 143 390 l 143 586 l 156 586 z m 467 567 l 397 567 l 397 586 l 556 586 l 556 567 l 486 567 l 486 390 l 467 390 z m 725 390 l 725 476 l 607 476 l 607 390 l 588 390 l 588 586 l 607 586 l 607 494 l 725 494 l 725 586 l 744 586 l 744 390 z m 940 390 l 799 390 l 799 586 l 938 586 l 938 567 l 819 567 l 819 497 l 932 497 l 932 479 l 819 479 l 819 408 l 940 408 z m 1056 390 l 1056 586 l 1190 586 l 1190 567 l 1075 567 l 1075 493 l 1186 493 l 1186 475 l 1075 475 l 1075 390 z m 1385 586 l 1385 465 b 1307 388 1385 413 1350 388 b 1229 465 1265 388 1229 413 l 1229 586 l 1249 586 l 1249 465 b 1307 406 1249 428 1274 406 b 1365 465 1338 406 1365 424 l 1365 586 z m 1457 586 l 1457 408 l 1565 408 l 1565 390 l 1436 390 l 1436 586 z m 1617 586 l 1617 408 l 1726 408 l 1726 390 l 1597 390 l 1597 586 z m 975 297 b 918 322 964 317 939 322 b 863 288 894 322 863 315 b 919 253 863 264 889 258 b 997 196 958 246 997 238 b 918 139 997 151 954 139 b 836 182 886 139 851 151 l 854 192 b 918 158 867 167 894 158 b 976 196 943 158 976 164 b 917 235 976 222 947 229 b 843 288 881 242 843 249 b 918 342 843 328 885 342 b 992 307 944 342 974 333 z m 1297 240 b 1197 139 1297 189 1264 138 b 1099 240 1131 138 1099 189 b 1197 342 1099 294 1135 342 b 1297 240 1264 342 1297 292 z m 354 142 l 332 142 l 249 339 l 269 339 l 343 164 l 414 339 l 436 339 z m 611 142 l 471 142 l 471 339 l 608 339 l 608 319 l 490 319 l 490 250 l 603 250 l 603 232 l 490 232 l 490 161 l 611 161 z m 815 142 l 789 142 l 724 214 l 674 214 l 674 142 l 654 142 l 654 339 l 742 339 b 807 276 785 339 807 310 b 747 215 807 246 789 218 z m 1038 142 l 1038 339 l 1057 339 l 1057 142 z m 1478 179 l 1476 244 l 1476 339 l 1496 339 l 1496 142 l 1485 142 l 1358 300 l 1358 142 l 1339 142 l 1339 339 l 1351 339 z m 1197 157 b 1278 240 1251 157 1278 197 b 1197 322 1278 283 1251 324 b 1118 240 1144 324 1117 285 b 1197 157 1119 197 1144 157 z m 674 319 l 674 233 l 740 233 b 788 276 772 233 788 251 b 742 319 788 300 772 319 z "},"_":{"ha":1796,"x_min":0,"x_max":0,"o":"m 257 683 l 144 683 l 124 638 l 103 638 l 190 833 l 210 833 l 299 638 l 278 638 z m 403 638 l 381 638 l 297 833 l 318 833 l 392 658 l 463 833 l 485 833 z m 639 683 l 525 683 l 504 638 l 483 638 l 572 833 l 592 833 l 679 638 l 658 638 z m 713 638 l 713 833 l 732 833 l 732 638 z m 806 833 l 806 656 l 915 656 l 915 638 l 786 638 l 786 833 z m 1079 683 l 967 683 l 946 638 l 925 638 l 1014 833 l 1033 833 l 1121 638 l 1100 638 z m 1238 833 b 1303 779 1272 833 1303 818 b 1272 738 1303 761 1292 744 b 1308 690 1296 731 1308 710 b 1238 638 1308 650 1272 638 l 1154 638 l 1154 833 z m 1371 833 l 1371 656 l 1479 656 l 1479 638 l 1351 638 l 1351 833 z m 1651 638 l 1511 638 l 1511 833 l 1650 833 l 1650 815 l 1531 815 l 1531 744 l 1644 744 l 1644 726 l 1531 726 l 1531 656 l 1651 656 z m 1174 747 l 1239 747 b 1283 779 1263 747 1283 756 b 1238 815 1283 806 1261 815 l 1174 815 z m 151 700 l 250 700 l 200 813 z m 532 700 l 631 700 l 582 813 z m 974 700 l 1072 700 l 1024 813 z m 1174 656 l 1238 656 b 1289 690 1260 656 1289 663 b 1239 729 1289 718 1263 729 l 1174 729 z m 69 390 l 69 586 l 89 586 l 89 390 z m 282 426 l 282 586 l 301 586 l 301 390 l 289 390 l 163 547 l 163 390 l 143 390 l 143 586 l 156 586 z m 467 567 l 397 567 l 397 586 l 556 586 l 556 567 l 486 567 l 486 390 l 467 390 z m 725 390 l 725 476 l 607 476 l 607 390 l 588 390 l 588 586 l 607 586 l 607 494 l 725 494 l 725 586 l 744 586 l 744 390 z m 940 390 l 799 390 l 799 586 l 938 586 l 938 567 l 819 567 l 819 497 l 932 497 l 932 479 l 819 479 l 819 408 l 940 408 z m 1056 390 l 1056 586 l 1190 586 l 1190 567 l 1075 567 l 1075 493 l 1186 493 l 1186 475 l 1075 475 l 1075 390 z m 1385 586 l 1385 465 b 1307 388 1385 413 1350 388 b 1229 465 1265 388 1229 413 l 1229 586 l 1249 586 l 1249 465 b 1307 406 1249 428 1274 406 b 1365 465 1338 406 1365 424 l 1365 586 z m 1457 586 l 1457 408 l 1565 408 l 1565 390 l 1436 390 l 1436 586 z m 1617 586 l 1617 408 l 1726 408 l 1726 390 l 1597 390 l 1597 586 z m 975 297 b 918 322 964 317 939 322 b 863 288 894 322 863 315 b 919 253 863 264 889 258 b 997 196 958 246 997 238 b 918 139 997 151 954 139 b 836 182 886 139 851 151 l 854 192 b 918 158 867 167 894 158 b 976 196 943 158 976 164 b 917 235 976 222 947 229 b 843 288 881 242 843 249 b 918 342 843 328 885 342 b 992 307 944 342 974 333 z m 1297 240 b 1197 139 1297 189 1264 138 b 1099 240 1131 138 1099 189 b 1197 342 1099 294 1135 342 b 1297 240 1264 342 1297 292 z m 354 142 l 332 142 l 249 339 l 269 339 l 343 164 l 414 339 l 436 339 z m 611 142 l 471 142 l 471 339 l 608 339 l 608 319 l 490 319 l 490 250 l 603 250 l 603 232 l 490 232 l 490 161 l 611 161 z m 815 142 l 789 142 l 724 214 l 674 214 l 674 142 l 654 142 l 654 339 l 742 339 b 807 276 785 339 807 310 b 747 215 807 246 789 218 z m 1038 142 l 1038 339 l 1057 339 l 1057 142 z m 1478 179 l 1476 244 l 1476 339 l 1496 339 l 1496 142 l 1485 142 l 1358 300 l 1358 142 l 1339 142 l 1339 339 l 1351 339 z m 1197 157 b 1278 240 1251 157 1278 197 b 1197 322 1278 283 1251 324 b 1118 240 1144 324 1117 285 b 1197 157 1119 197 1144 157 z m 674 319 l 674 233 l 740 233 b 788 276 772 233 788 251 b 742 319 788 300 772 319 z "},"{":{"ha":1796,"x_min":0,"x_max":0,"o":"m 257 683 l 144 683 l 124 638 l 103 638 l 190 833 l 210 833 l 299 638 l 278 638 z m 403 638 l 381 638 l 297 833 l 318 833 l 392 658 l 463 833 l 485 833 z m 639 683 l 525 683 l 504 638 l 483 638 l 572 833 l 592 833 l 679 638 l 658 638 z m 713 638 l 713 833 l 732 833 l 732 638 z m 806 833 l 806 656 l 915 656 l 915 638 l 786 638 l 786 833 z m 1079 683 l 967 683 l 946 638 l 925 638 l 1014 833 l 1033 833 l 1121 638 l 1100 638 z m 1238 833 b 1303 779 1272 833 1303 818 b 1272 738 1303 761 1292 744 b 1308 690 1296 731 1308 710 b 1238 638 1308 650 1272 638 l 1154 638 l 1154 833 z m 1371 833 l 1371 656 l 1479 656 l 1479 638 l 1351 638 l 1351 833 z m 1651 638 l 1511 638 l 1511 833 l 1650 833 l 1650 815 l 1531 815 l 1531 744 l 1644 744 l 1644 726 l 1531 726 l 1531 656 l 1651 656 z m 1174 747 l 1239 747 b 1283 779 1263 747 1283 756 b 1238 815 1283 806 1261 815 l 1174 815 z m 151 700 l 250 700 l 200 813 z m 532 700 l 631 700 l 582 813 z m 974 700 l 1072 700 l 1024 813 z m 1174 656 l 1238 656 b 1289 690 1260 656 1289 663 b 1239 729 1289 718 1263 729 l 1174 729 z m 69 390 l 69 586 l 89 586 l 89 390 z m 282 426 l 282 586 l 301 586 l 301 390 l 289 390 l 163 547 l 163 390 l 143 390 l 143 586 l 156 586 z m 467 567 l 397 567 l 397 586 l 556 586 l 556 567 l 486 567 l 486 390 l 467 390 z m 725 390 l 725 476 l 607 476 l 607 390 l 588 390 l 588 586 l 607 586 l 607 494 l 725 494 l 725 586 l 744 586 l 744 390 z m 940 390 l 799 390 l 799 586 l 938 586 l 938 567 l 819 567 l 819 497 l 932 497 l 932 479 l 819 479 l 819 408 l 940 408 z m 1056 390 l 1056 586 l 1190 586 l 1190 567 l 1075 567 l 1075 493 l 1186 493 l 1186 475 l 1075 475 l 1075 390 z m 1385 586 l 1385 465 b 1307 388 1385 413 1350 388 b 1229 465 1265 388 1229 413 l 1229 586 l 1249 586 l 1249 465 b 1307 406 1249 428 1274 406 b 1365 465 1338 406 1365 424 l 1365 586 z m 1457 586 l 1457 408 l 1565 408 l 1565 390 l 1436 390 l 1436 586 z m 1617 586 l 1617 408 l 1726 408 l 1726 390 l 1597 390 l 1597 586 z m 975 297 b 918 322 964 317 939 322 b 863 288 894 322 863 315 b 919 253 863 264 889 258 b 997 196 958 246 997 238 b 918 139 997 151 954 139 b 836 182 886 139 851 151 l 854 192 b 918 158 867 167 894 158 b 976 196 943 158 976 164 b 917 235 976 222 947 229 b 843 288 881 242 843 249 b 918 342 843 328 885 342 b 992 307 944 342 974 333 z m 1297 240 b 1197 139 1297 189 1264 138 b 1099 240 1131 138 1099 189 b 1197 342 1099 294 1135 342 b 1297 240 1264 342 1297 292 z m 354 142 l 332 142 l 249 339 l 269 339 l 343 164 l 414 339 l 436 339 z m 611 142 l 471 142 l 471 339 l 608 339 l 608 319 l 490 319 l 490 250 l 603 250 l 603 232 l 490 232 l 490 161 l 611 161 z m 815 142 l 789 142 l 724 214 l 674 214 l 674 142 l 654 142 l 654 339 l 742 339 b 807 276 785 339 807 310 b 747 215 807 246 789 218 z m 1038 142 l 1038 339 l 1057 339 l 1057 142 z m 1478 179 l 1476 244 l 1476 339 l 1496 339 l 1496 142 l 1485 142 l 1358 300 l 1358 142 l 1339 142 l 1339 339 l 1351 339 z m 1197 157 b 1278 240 1251 157 1278 197 b 1197 322 1278 283 1251 324 b 1118 240 1144 324 1117 285 b 1197 157 1119 197 1144 157 z m 674 319 l 674 233 l 740 233 b 788 276 772 233 788 251 b 742 319 788 300 772 319 z "},"}":{"ha":1796,"x_min":0,"x_max":0,"o":"m 257 683 l 144 683 l 124 638 l 103 638 l 190 833 l 210 833 l 299 638 l 278 638 z m 403 638 l 381 638 l 297 833 l 318 833 l 392 658 l 463 833 l 485 833 z m 639 683 l 525 683 l 504 638 l 483 638 l 572 833 l 592 833 l 679 638 l 658 638 z m 713 638 l 713 833 l 732 833 l 732 638 z m 806 833 l 806 656 l 915 656 l 915 638 l 786 638 l 786 833 z m 1079 683 l 967 683 l 946 638 l 925 638 l 1014 833 l 1033 833 l 1121 638 l 1100 638 z m 1238 833 b 1303 779 1272 833 1303 818 b 1272 738 1303 761 1292 744 b 1308 690 1296 731 1308 710 b 1238 638 1308 650 1272 638 l 1154 638 l 1154 833 z m 1371 833 l 1371 656 l 1479 656 l 1479 638 l 1351 638 l 1351 833 z m 1651 638 l 1511 638 l 1511 833 l 1650 833 l 1650 815 l 1531 815 l 1531 744 l 1644 744 l 1644 726 l 1531 726 l 1531 656 l 1651 656 z m 1174 747 l 1239 747 b 1283 779 1263 747 1283 756 b 1238 815 1283 806 1261 815 l 1174 815 z m 151 700 l 250 700 l 200 813 z m 532 700 l 631 700 l 582 813 z m 974 700 l 1072 700 l 1024 813 z m 1174 656 l 1238 656 b 1289 690 1260 656 1289 663 b 1239 729 1289 718 1263 729 l 1174 729 z m 69 390 l 69 586 l 89 586 l 89 390 z m 282 426 l 282 586 l 301 586 l 301 390 l 289 390 l 163 547 l 163 390 l 143 390 l 143 586 l 156 586 z m 467 567 l 397 567 l 397 586 l 556 586 l 556 567 l 486 567 l 486 390 l 467 390 z m 725 390 l 725 476 l 607 476 l 607 390 l 588 390 l 588 586 l 607 586 l 607 494 l 725 494 l 725 586 l 744 586 l 744 390 z m 940 390 l 799 390 l 799 586 l 938 586 l 938 567 l 819 567 l 819 497 l 932 497 l 932 479 l 819 479 l 819 408 l 940 408 z m 1056 390 l 1056 586 l 1190 586 l 1190 567 l 1075 567 l 1075 493 l 1186 493 l 1186 475 l 1075 475 l 1075 390 z m 1385 586 l 1385 465 b 1307 388 1385 413 1350 388 b 1229 465 1265 388 1229 413 l 1229 586 l 1249 586 l 1249 465 b 1307 406 1249 428 1274 406 b 1365 465 1338 406 1365 424 l 1365 586 z m 1457 586 l 1457 408 l 1565 408 l 1565 390 l 1436 390 l 1436 586 z m 1617 586 l 1617 408 l 1726 408 l 1726 390 l 1597 390 l 1597 586 z m 975 297 b 918 322 964 317 939 322 b 863 288 894 322 863 315 b 919 253 863 264 889 258 b 997 196 958 246 997 238 b 918 139 997 151 954 139 b 836 182 886 139 851 151 l 854 192 b 918 158 867 167 894 158 b 976 196 943 158 976 164 b 917 235 976 222 947 229 b 843 288 881 242 843 249 b 918 342 843 328 885 342 b 992 307 944 342 974 333 z m 1297 240 b 1197 139 1297 189 1264 138 b 1099 240 1131 138 1099 189 b 1197 342 1099 294 1135 342 b 1297 240 1264 342 1297 292 z m 354 142 l 332 142 l 249 339 l 269 339 l 343 164 l 414 339 l 436 339 z m 611 142 l 471 142 l 471 339 l 608 339 l 608 319 l 490 319 l 490 250 l 603 250 l 603 232 l 490 232 l 490 161 l 611 161 z m 815 142 l 789 142 l 724 214 l 674 214 l 674 142 l 654 142 l 654 339 l 742 339 b 807 276 785 339 807 310 b 747 215 807 246 789 218 z m 1038 142 l 1038 339 l 1057 339 l 1057 142 z m 1478 179 l 1476 244 l 1476 339 l 1496 339 l 1496 142 l 1485 142 l 1358 300 l 1358 142 l 1339 142 l 1339 339 l 1351 339 z m 1197 157 b 1278 240 1251 157 1278 197 b 1197 322 1278 283 1251 324 b 1118 240 1144 324 1117 285 b 1197 157 1119 197 1144 157 z m 674 319 l 674 233 l 740 233 b 788 276 772 233 788 251 b 742 319 788 300 772 319 z "},"[":{"ha":1796,"x_min":0,"x_max":0,"o":"m 257 683 l 144 683 l 124 638 l 103 638 l 190 833 l 210 833 l 299 638 l 278 638 z m 403 638 l 381 638 l 297 833 l 318 833 l 392 658 l 463 833 l 485 833 z m 639 683 l 525 683 l 504 638 l 483 638 l 572 833 l 592 833 l 679 638 l 658 638 z m 713 638 l 713 833 l 732 833 l 732 638 z m 806 833 l 806 656 l 915 656 l 915 638 l 786 638 l 786 833 z m 1079 683 l 967 683 l 946 638 l 925 638 l 1014 833 l 1033 833 l 1121 638 l 1100 638 z m 1238 833 b 1303 779 1272 833 1303 818 b 1272 738 1303 761 1292 744 b 1308 690 1296 731 1308 710 b 1238 638 1308 650 1272 638 l 1154 638 l 1154 833 z m 1371 833 l 1371 656 l 1479 656 l 1479 638 l 1351 638 l 1351 833 z m 1651 638 l 1511 638 l 1511 833 l 1650 833 l 1650 815 l 1531 815 l 1531 744 l 1644 744 l 1644 726 l 1531 726 l 1531 656 l 1651 656 z m 1174 747 l 1239 747 b 1283 779 1263 747 1283 756 b 1238 815 1283 806 1261 815 l 1174 815 z m 151 700 l 250 700 l 200 813 z m 532 700 l 631 700 l 582 813 z m 974 700 l 1072 700 l 1024 813 z m 1174 656 l 1238 656 b 1289 690 1260 656 1289 663 b 1239 729 1289 718 1263 729 l 1174 729 z m 69 390 l 69 586 l 89 586 l 89 390 z m 282 426 l 282 586 l 301 586 l 301 390 l 289 390 l 163 547 l 163 390 l 143 390 l 143 586 l 156 586 z m 467 567 l 397 567 l 397 586 l 556 586 l 556 567 l 486 567 l 486 390 l 467 390 z m 725 390 l 725 476 l 607 476 l 607 390 l 588 390 l 588 586 l 607 586 l 607 494 l 725 494 l 725 586 l 744 586 l 744 390 z m 940 390 l 799 390 l 799 586 l 938 586 l 938 567 l 819 567 l 819 497 l 932 497 l 932 479 l 819 479 l 819 408 l 940 408 z m 1056 390 l 1056 586 l 1190 586 l 1190 567 l 1075 567 l 1075 493 l 1186 493 l 1186 475 l 1075 475 l 1075 390 z m 1385 586 l 1385 465 b 1307 388 1385 413 1350 388 b 1229 465 1265 388 1229 413 l 1229 586 l 1249 586 l 1249 465 b 1307 406 1249 428 1274 406 b 1365 465 1338 406 1365 424 l 1365 586 z m 1457 586 l 1457 408 l 1565 408 l 1565 390 l 1436 390 l 1436 586 z m 1617 586 l 1617 408 l 1726 408 l 1726 390 l 1597 390 l 1597 586 z m 975 297 b 918 322 964 317 939 322 b 863 288 894 322 863 315 b 919 253 863 264 889 258 b 997 196 958 246 997 238 b 918 139 997 151 954 139 b 836 182 886 139 851 151 l 854 192 b 918 158 867 167 894 158 b 976 196 943 158 976 164 b 917 235 976 222 947 229 b 843 288 881 242 843 249 b 918 342 843 328 885 342 b 992 307 944 342 974 333 z m 1297 240 b 1197 139 1297 189 1264 138 b 1099 240 1131 138 1099 189 b 1197 342 1099 294 1135 342 b 1297 240 1264 342 1297 292 z m 354 142 l 332 142 l 249 339 l 269 339 l 343 164 l 414 339 l 436 339 z m 611 142 l 471 142 l 471 339 l 608 339 l 608 319 l 490 319 l 490 250 l 603 250 l 603 232 l 490 232 l 490 161 l 611 161 z m 815 142 l 789 142 l 724 214 l 674 214 l 674 142 l 654 142 l 654 339 l 742 339 b 807 276 785 339 807 310 b 747 215 807 246 789 218 z m 1038 142 l 1038 339 l 1057 339 l 1057 142 z m 1478 179 l 1476 244 l 1476 339 l 1496 339 l 1496 142 l 1485 142 l 1358 300 l 1358 142 l 1339 142 l 1339 339 l 1351 339 z m 1197 157 b 1278 240 1251 157 1278 197 b 1197 322 1278 283 1251 324 b 1118 240 1144 324 1117 285 b 1197 157 1119 197 1144 157 z m 674 319 l 674 233 l 740 233 b 788 276 772 233 788 251 b 742 319 788 300 772 319 z "},"]":{"ha":1796,"x_min":0,"x_max":0,"o":"m 257 683 l 144 683 l 124 638 l 103 638 l 190 833 l 210 833 l 299 638 l 278 638 z m 403 638 l 381 638 l 297 833 l 318 833 l 392 658 l 463 833 l 485 833 z m 639 683 l 525 683 l 504 638 l 483 638 l 572 833 l 592 833 l 679 638 l 658 638 z m 713 638 l 713 833 l 732 833 l 732 638 z m 806 833 l 806 656 l 915 656 l 915 638 l 786 638 l 786 833 z m 1079 683 l 967 683 l 946 638 l 925 638 l 1014 833 l 1033 833 l 1121 638 l 1100 638 z m 1238 833 b 1303 779 1272 833 1303 818 b 1272 738 1303 761 1292 744 b 1308 690 1296 731 1308 710 b 1238 638 1308 650 1272 638 l 1154 638 l 1154 833 z m 1371 833 l 1371 656 l 1479 656 l 1479 638 l 1351 638 l 1351 833 z m 1651 638 l 1511 638 l 1511 833 l 1650 833 l 1650 815 l 1531 815 l 1531 744 l 1644 744 l 1644 726 l 1531 726 l 1531 656 l 1651 656 z m 1174 747 l 1239 747 b 1283 779 1263 747 1283 756 b 1238 815 1283 806 1261 815 l 1174 815 z m 151 700 l 250 700 l 200 813 z m 532 700 l 631 700 l 582 813 z m 974 700 l 1072 700 l 1024 813 z m 1174 656 l 1238 656 b 1289 690 1260 656 1289 663 b 1239 729 1289 718 1263 729 l 1174 729 z m 69 390 l 69 586 l 89 586 l 89 390 z m 282 426 l 282 586 l 301 586 l 301 390 l 289 390 l 163 547 l 163 390 l 143 390 l 143 586 l 156 586 z m 467 567 l 397 567 l 397 586 l 556 586 l 556 567 l 486 567 l 486 390 l 467 390 z m 725 390 l 725 476 l 607 476 l 607 390 l 588 390 l 588 586 l 607 586 l 607 494 l 725 494 l 725 586 l 744 586 l 744 390 z m 940 390 l 799 390 l 799 586 l 938 586 l 938 567 l 819 567 l 819 497 l 932 497 l 932 479 l 819 479 l 819 408 l 940 408 z m 1056 390 l 1056 586 l 1190 586 l 1190 567 l 1075 567 l 1075 493 l 1186 493 l 1186 475 l 1075 475 l 1075 390 z m 1385 586 l 1385 465 b 1307 388 1385 413 1350 388 b 1229 465 1265 388 1229 413 l 1229 586 l 1249 586 l 1249 465 b 1307 406 1249 428 1274 406 b 1365 465 1338 406 1365 424 l 1365 586 z m 1457 586 l 1457 408 l 1565 408 l 1565 390 l 1436 390 l 1436 586 z m 1617 586 l 1617 408 l 1726 408 l 1726 390 l 1597 390 l 1597 586 z m 975 297 b 918 322 964 317 939 322 b 863 288 894 322 863 315 b 919 253 863 264 889 258 b 997 196 958 246 997 238 b 918 139 997 151 954 139 b 836 182 886 139 851 151 l 854 192 b 918 158 867 167 894 158 b 976 196 943 158 976 164 b 917 235 976 222 947 229 b 843 288 881 242 843 249 b 918 342 843 328 885 342 b 992 307 944 342 974 333 z m 1297 240 b 1197 139 1297 189 1264 138 b 1099 240 1131 138 1099 189 b 1197 342 1099 294 1135 342 b 1297 240 1264 342 1297 292 z m 354 142 l 332 142 l 249 339 l 269 339 l 343 164 l 414 339 l 436 339 z m 611 142 l 471 142 l 471 339 l 608 339 l 608 319 l 490 319 l 490 250 l 603 250 l 603 232 l 490 232 l 490 161 l 611 161 z m 815 142 l 789 142 l 724 214 l 674 214 l 674 142 l 654 142 l 654 339 l 742 339 b 807 276 785 339 807 310 b 747 215 807 246 789 218 z m 1038 142 l 1038 339 l 1057 339 l 1057 142 z m 1478 179 l 1476 244 l 1476 339 l 1496 339 l 1496 142 l 1485 142 l 1358 300 l 1358 142 l 1339 142 l 1339 339 l 1351 339 z m 1197 157 b 1278 240 1251 157 1278 197 b 1197 322 1278 283 1251 324 b 1118 240 1144 324 1117 285 b 1197 157 1119 197 1144 157 z m 674 319 l 674 233 l 740 233 b 788 276 772 233 788 251 b 742 319 788 300 772 319 z "},"(":{"ha":1796,"x_min":0,"x_max":0,"o":"m 257 683 l 144 683 l 124 638 l 103 638 l 190 833 l 210 833 l 299 638 l 278 638 z m 403 638 l 381 638 l 297 833 l 318 833 l 392 658 l 463 833 l 485 833 z m 639 683 l 525 683 l 504 638 l 483 638 l 572 833 l 592 833 l 679 638 l 658 638 z m 713 638 l 713 833 l 732 833 l 732 638 z m 806 833 l 806 656 l 915 656 l 915 638 l 786 638 l 786 833 z m 1079 683 l 967 683 l 946 638 l 925 638 l 1014 833 l 1033 833 l 1121 638 l 1100 638 z m 1238 833 b 1303 779 1272 833 1303 818 b 1272 738 1303 761 1292 744 b 1308 690 1296 731 1308 710 b 1238 638 1308 650 1272 638 l 1154 638 l 1154 833 z m 1371 833 l 1371 656 l 1479 656 l 1479 638 l 1351 638 l 1351 833 z m 1651 638 l 1511 638 l 1511 833 l 1650 833 l 1650 815 l 1531 815 l 1531 744 l 1644 744 l 1644 726 l 1531 726 l 1531 656 l 1651 656 z m 1174 747 l 1239 747 b 1283 779 1263 747 1283 756 b 1238 815 1283 806 1261 815 l 1174 815 z m 151 700 l 250 700 l 200 813 z m 532 700 l 631 700 l 582 813 z m 974 700 l 1072 700 l 1024 813 z m 1174 656 l 1238 656 b 1289 690 1260 656 1289 663 b 1239 729 1289 718 1263 729 l 1174 729 z m 69 390 l 69 586 l 89 586 l 89 390 z m 282 426 l 282 586 l 301 586 l 301 390 l 289 390 l 163 547 l 163 390 l 143 390 l 143 586 l 156 586 z m 467 567 l 397 567 l 397 586 l 556 586 l 556 567 l 486 567 l 486 390 l 467 390 z m 725 390 l 725 476 l 607 476 l 607 390 l 588 390 l 588 586 l 607 586 l 607 494 l 725 494 l 725 586 l 744 586 l 744 390 z m 940 390 l 799 390 l 799 586 l 938 586 l 938 567 l 819 567 l 819 497 l 932 497 l 932 479 l 819 479 l 819 408 l 940 408 z m 1056 390 l 1056 586 l 1190 586 l 1190 567 l 1075 567 l 1075 493 l 1186 493 l 1186 475 l 1075 475 l 1075 390 z m 1385 586 l 1385 465 b 1307 388 1385 413 1350 388 b 1229 465 1265 388 1229 413 l 1229 586 l 1249 586 l 1249 465 b 1307 406 1249 428 1274 406 b 1365 465 1338 406 1365 424 l 1365 586 z m 1457 586 l 1457 408 l 1565 408 l 1565 390 l 1436 390 l 1436 586 z m 1617 586 l 1617 408 l 1726 408 l 1726 390 l 1597 390 l 1597 586 z m 975 297 b 918 322 964 317 939 322 b 863 288 894 322 863 315 b 919 253 863 264 889 258 b 997 196 958 246 997 238 b 918 139 997 151 954 139 b 836 182 886 139 851 151 l 854 192 b 918 158 867 167 894 158 b 976 196 943 158 976 164 b 917 235 976 222 947 229 b 843 288 881 242 843 249 b 918 342 843 328 885 342 b 992 307 944 342 974 333 z m 1297 240 b 1197 139 1297 189 1264 138 b 1099 240 1131 138 1099 189 b 1197 342 1099 294 1135 342 b 1297 240 1264 342 1297 292 z m 354 142 l 332 142 l 249 339 l 269 339 l 343 164 l 414 339 l 436 339 z m 611 142 l 471 142 l 471 339 l 608 339 l 608 319 l 490 319 l 490 250 l 603 250 l 603 232 l 490 232 l 490 161 l 611 161 z m 815 142 l 789 142 l 724 214 l 674 214 l 674 142 l 654 142 l 654 339 l 742 339 b 807 276 785 339 807 310 b 747 215 807 246 789 218 z m 1038 142 l 1038 339 l 1057 339 l 1057 142 z m 1478 179 l 1476 244 l 1476 339 l 1496 339 l 1496 142 l 1485 142 l 1358 300 l 1358 142 l 1339 142 l 1339 339 l 1351 339 z m 1197 157 b 1278 240 1251 157 1278 197 b 1197 322 1278 283 1251 324 b 1118 240 1144 324 1117 285 b 1197 157 1119 197 1144 157 z m 674 319 l 674 233 l 740 233 b 788 276 772 233 788 251 b 742 319 788 300 772 319 z "},")":{"ha":1796,"x_min":0,"x_max":0,"o":"m 257 683 l 144 683 l 124 638 l 103 638 l 190 833 l 210 833 l 299 638 l 278 638 z m 403 638 l 381 638 l 297 833 l 318 833 l 392 658 l 463 833 l 485 833 z m 639 683 l 525 683 l 504 638 l 483 638 l 572 833 l 592 833 l 679 638 l 658 638 z m 713 638 l 713 833 l 732 833 l 732 638 z m 806 833 l 806 656 l 915 656 l 915 638 l 786 638 l 786 833 z m 1079 683 l 967 683 l 946 638 l 925 638 l 1014 833 l 1033 833 l 1121 638 l 1100 638 z m 1238 833 b 1303 779 1272 833 1303 818 b 1272 738 1303 761 1292 744 b 1308 690 1296 731 1308 710 b 1238 638 1308 650 1272 638 l 1154 638 l 1154 833 z m 1371 833 l 1371 656 l 1479 656 l 1479 638 l 1351 638 l 1351 833 z m 1651 638 l 1511 638 l 1511 833 l 1650 833 l 1650 815 l 1531 815 l 1531 744 l 1644 744 l 1644 726 l 1531 726 l 1531 656 l 1651 656 z m 1174 747 l 1239 747 b 1283 779 1263 747 1283 756 b 1238 815 1283 806 1261 815 l 1174 815 z m 151 700 l 250 700 l 200 813 z m 532 700 l 631 700 l 582 813 z m 974 700 l 1072 700 l 1024 813 z m 1174 656 l 1238 656 b 1289 690 1260 656 1289 663 b 1239 729 1289 718 1263 729 l 1174 729 z m 69 390 l 69 586 l 89 586 l 89 390 z m 282 426 l 282 586 l 301 586 l 301 390 l 289 390 l 163 547 l 163 390 l 143 390 l 143 586 l 156 586 z m 467 567 l 397 567 l 397 586 l 556 586 l 556 567 l 486 567 l 486 390 l 467 390 z m 725 390 l 725 476 l 607 476 l 607 390 l 588 390 l 588 586 l 607 586 l 607 494 l 725 494 l 725 586 l 744 586 l 744 390 z m 940 390 l 799 390 l 799 586 l 938 586 l 938 567 l 819 567 l 819 497 l 932 497 l 932 479 l 819 479 l 819 408 l 940 408 z m 1056 390 l 1056 586 l 1190 586 l 1190 567 l 1075 567 l 1075 493 l 1186 493 l 1186 475 l 1075 475 l 1075 390 z m 1385 586 l 1385 465 b 1307 388 1385 413 1350 388 b 1229 465 1265 388 1229 413 l 1229 586 l 1249 586 l 1249 465 b 1307 406 1249 428 1274 406 b 1365 465 1338 406 1365 424 l 1365 586 z m 1457 586 l 1457 408 l 1565 408 l 1565 390 l 1436 390 l 1436 586 z m 1617 586 l 1617 408 l 1726 408 l 1726 390 l 1597 390 l 1597 586 z m 975 297 b 918 322 964 317 939 322 b 863 288 894 322 863 315 b 919 253 863 264 889 258 b 997 196 958 246 997 238 b 918 139 997 151 954 139 b 836 182 886 139 851 151 l 854 192 b 918 158 867 167 894 158 b 976 196 943 158 976 164 b 917 235 976 222 947 229 b 843 288 881 242 843 249 b 918 342 843 328 885 342 b 992 307 944 342 974 333 z m 1297 240 b 1197 139 1297 189 1264 138 b 1099 240 1131 138 1099 189 b 1197 342 1099 294 1135 342 b 1297 240 1264 342 1297 292 z m 354 142 l 332 142 l 249 339 l 269 339 l 343 164 l 414 339 l 436 339 z m 611 142 l 471 142 l 471 339 l 608 339 l 608 319 l 490 319 l 490 250 l 603 250 l 603 232 l 490 232 l 490 161 l 611 161 z m 815 142 l 789 142 l 724 214 l 674 214 l 674 142 l 654 142 l 654 339 l 742 339 b 807 276 785 339 807 310 b 747 215 807 246 789 218 z m 1038 142 l 1038 339 l 1057 339 l 1057 142 z m 1478 179 l 1476 244 l 1476 339 l 1496 339 l 1496 142 l 1485 142 l 1358 300 l 1358 142 l 1339 142 l 1339 339 l 1351 339 z m 1197 157 b 1278 240 1251 157 1278 197 b 1197 322 1278 283 1251 324 b 1118 240 1144 324 1117 285 b 1197 157 1119 197 1144 157 z m 674 319 l 674 233 l 740 233 b 788 276 772 233 788 251 b 742 319 788 300 772 319 z "},"—":{"ha":1796,"x_min":0,"x_max":0,"o":"m 257 683 l 144 683 l 124 638 l 103 638 l 190 833 l 210 833 l 299 638 l 278 638 z m 403 638 l 381 638 l 297 833 l 318 833 l 392 658 l 463 833 l 485 833 z m 639 683 l 525 683 l 504 638 l 483 638 l 572 833 l 592 833 l 679 638 l 658 638 z m 713 638 l 713 833 l 732 833 l 732 638 z m 806 833 l 806 656 l 915 656 l 915 638 l 786 638 l 786 833 z m 1079 683 l 967 683 l 946 638 l 925 638 l 1014 833 l 1033 833 l 1121 638 l 1100 638 z m 1238 833 b 1303 779 1272 833 1303 818 b 1272 738 1303 761 1292 744 b 1308 690 1296 731 1308 710 b 1238 638 1308 650 1272 638 l 1154 638 l 1154 833 z m 1371 833 l 1371 656 l 1479 656 l 1479 638 l 1351 638 l 1351 833 z m 1651 638 l 1511 638 l 1511 833 l 1650 833 l 1650 815 l 1531 815 l 1531 744 l 1644 744 l 1644 726 l 1531 726 l 1531 656 l 1651 656 z m 1174 747 l 1239 747 b 1283 779 1263 747 1283 756 b 1238 815 1283 806 1261 815 l 1174 815 z m 151 700 l 250 700 l 200 813 z m 532 700 l 631 700 l 582 813 z m 974 700 l 1072 700 l 1024 813 z m 1174 656 l 1238 656 b 1289 690 1260 656 1289 663 b 1239 729 1289 718 1263 729 l 1174 729 z m 69 390 l 69 586 l 89 586 l 89 390 z m 282 426 l 282 586 l 301 586 l 301 390 l 289 390 l 163 547 l 163 390 l 143 390 l 143 586 l 156 586 z m 467 567 l 397 567 l 397 586 l 556 586 l 556 567 l 486 567 l 486 390 l 467 390 z m 725 390 l 725 476 l 607 476 l 607 390 l 588 390 l 588 586 l 607 586 l 607 494 l 725 494 l 725 586 l 744 586 l 744 390 z m 940 390 l 799 390 l 799 586 l 938 586 l 938 567 l 819 567 l 819 497 l 932 497 l 932 479 l 819 479 l 819 408 l 940 408 z m 1056 390 l 1056 586 l 1190 586 l 1190 567 l 1075 567 l 1075 493 l 1186 493 l 1186 475 l 1075 475 l 1075 390 z m 1385 586 l 1385 465 b 1307 388 1385 413 1350 388 b 1229 465 1265 388 1229 413 l 1229 586 l 1249 586 l 1249 465 b 1307 406 1249 428 1274 406 b 1365 465 1338 406 1365 424 l 1365 586 z m 1457 586 l 1457 408 l 1565 408 l 1565 390 l 1436 390 l 1436 586 z m 1617 586 l 1617 408 l 1726 408 l 1726 390 l 1597 390 l 1597 586 z m 975 297 b 918 322 964 317 939 322 b 863 288 894 322 863 315 b 919 253 863 264 889 258 b 997 196 958 246 997 238 b 918 139 997 151 954 139 b 836 182 886 139 851 151 l 854 192 b 918 158 867 167 894 158 b 976 196 943 158 976 164 b 917 235 976 222 947 229 b 843 288 881 242 843 249 b 918 342 843 328 885 342 b 992 307 944 342 974 333 z m 1297 240 b 1197 139 1297 189 1264 138 b 1099 240 1131 138 1099 189 b 1197 342 1099 294 1135 342 b 1297 240 1264 342 1297 292 z m 354 142 l 332 142 l 249 339 l 269 339 l 343 164 l 414 339 l 436 339 z m 611 142 l 471 142 l 471 339 l 608 339 l 608 319 l 490 319 l 490 250 l 603 250 l 603 232 l 490 232 l 490 161 l 611 161 z m 815 142 l 789 142 l 724 214 l 674 214 l 674 142 l 654 142 l 654 339 l 742 339 b 807 276 785 339 807 310 b 747 215 807 246 789 218 z m 1038 142 l 1038 339 l 1057 339 l 1057 142 z m 1478 179 l 1476 244 l 1476 339 l 1496 339 l 1496 142 l 1485 142 l 1358 300 l 1358 142 l 1339 142 l 1339 339 l 1351 339 z m 1197 157 b 1278 240 1251 157 1278 197 b 1197 322 1278 283 1251 324 b 1118 240 1144 324 1117 285 b 1197 157 1119 197 1144 157 z m 674 319 l 674 233 l 740 233 b 788 276 772 233 788 251 b 742 319 788 300 772 319 z "}}}
